STARTFONT 2.1
FONT -QuanPixel 8px-8px-R-8px--8-8-75-75-c-80-iso10646-1
SIZE 8 75 75
FONTBOUNDINGBOX 12 10 -1 -3
STARTPROPERTIES 10
FAMILY_NAME QuanPixel 8px
WEIGHT_NAME 8px
FONT_VERSION Version 1.920
COPYRIGHT (c) Galmuri8, Chill Bitmap, diaowinner, 2022. OFL
FOUNDRY Made with Bits'n'Picas by Kreative Software
FONT_ASCENT 6
FONT_DESCENT 2
CAP_HEIGHT 6
POINT_SIZE 8
X_HEIGHT 4
ENDPROPERTIES
CHARS 18082
STARTCHAR U+0020
ENCODING 32
SWIDTH 250 0
DWIDTH 3 0
BBX 0 0 0 0
BITMAP
ENDCHAR
STARTCHAR U+0021
ENCODING 33
SWIDTH 166 0
DWIDTH 2 0
BBX 1 7 0 -1
BITMAP
80
80
80
80
80
00
80
ENDCHAR
STARTCHAR U+0022
ENCODING 34
SWIDTH 333 0
DWIDTH 4 0
BBX 3 2 0 4
BITMAP
A0
A0
ENDCHAR
STARTCHAR U+0023
ENCODING 35
SWIDTH 500 0
DWIDTH 6 0
BBX 5 7 0 -1
BITMAP
50
F8
50
50
F8
50
50
ENDCHAR
STARTCHAR U+0024
ENCODING 36
SWIDTH 500 0
DWIDTH 6 0
BBX 5 7 0 -1
BITMAP
20
78
A0
70
28
F0
20
ENDCHAR
STARTCHAR U+0025
ENCODING 37
SWIDTH 500 0
DWIDTH 6 0
BBX 5 7 0 -1
BITMAP
40
A8
50
20
50
A8
10
ENDCHAR
STARTCHAR U+0026
ENCODING 38
SWIDTH 500 0
DWIDTH 6 0
BBX 5 7 0 -1
BITMAP
40
A0
A0
40
A8
90
68
ENDCHAR
STARTCHAR U+0027
ENCODING 39
SWIDTH 166 0
DWIDTH 2 0
BBX 1 2 0 4
BITMAP
80
80
ENDCHAR
STARTCHAR U+0028
ENCODING 40
SWIDTH 250 0
DWIDTH 3 0
BBX 2 7 0 -1
BITMAP
40
80
80
80
80
80
40
ENDCHAR
STARTCHAR U+0029
ENCODING 41
SWIDTH 250 0
DWIDTH 3 0
BBX 2 7 0 -1
BITMAP
80
40
40
40
40
40
80
ENDCHAR
STARTCHAR U+002A
ENCODING 42
SWIDTH 500 0
DWIDTH 6 0
BBX 5 7 0 -1
BITMAP
20
A8
70
20
70
A8
20
ENDCHAR
STARTCHAR U+002B
ENCODING 43
SWIDTH 500 0
DWIDTH 6 0
BBX 5 5 0 0
BITMAP
20
20
F8
20
20
ENDCHAR
STARTCHAR U+002C
ENCODING 44
SWIDTH 250 0
DWIDTH 3 0
BBX 2 2 0 -2
BITMAP
40
80
ENDCHAR
STARTCHAR U+002D
ENCODING 45
SWIDTH 500 0
DWIDTH 6 0
BBX 5 1 0 2
BITMAP
F8
ENDCHAR
STARTCHAR U+002E
ENCODING 46
SWIDTH 250 0
DWIDTH 3 0
BBX 1 1 1 -1
BITMAP
80
ENDCHAR
STARTCHAR U+002F
ENCODING 47
SWIDTH 333 0
DWIDTH 4 0
BBX 3 7 0 -1
BITMAP
20
20
40
40
40
80
80
ENDCHAR
STARTCHAR U+0030
ENCODING 48
SWIDTH 416 0
DWIDTH 5 0
BBX 4 7 0 -1
BITMAP
60
90
B0
D0
90
90
60
ENDCHAR
STARTCHAR U+0031
ENCODING 49
SWIDTH 333 0
DWIDTH 4 0
BBX 2 7 0 -1
BITMAP
C0
40
40
40
40
40
40
ENDCHAR
STARTCHAR U+0032
ENCODING 50
SWIDTH 416 0
DWIDTH 5 0
BBX 4 7 0 -1
BITMAP
E0
10
10
60
80
80
F0
ENDCHAR
STARTCHAR U+0033
ENCODING 51
SWIDTH 416 0
DWIDTH 5 0
BBX 4 7 0 -1
BITMAP
E0
10
10
60
10
10
E0
ENDCHAR
STARTCHAR U+0034
ENCODING 52
SWIDTH 416 0
DWIDTH 5 0
BBX 4 7 0 -1
BITMAP
90
90
90
90
70
10
10
ENDCHAR
STARTCHAR U+0035
ENCODING 53
SWIDTH 416 0
DWIDTH 5 0
BBX 4 7 0 -1
BITMAP
F0
80
80
E0
10
10
E0
ENDCHAR
STARTCHAR U+0036
ENCODING 54
SWIDTH 416 0
DWIDTH 5 0
BBX 4 7 0 -1
BITMAP
60
80
80
E0
90
90
60
ENDCHAR
STARTCHAR U+0037
ENCODING 55
SWIDTH 416 0
DWIDTH 5 0
BBX 4 7 0 -1
BITMAP
F0
10
10
20
40
40
40
ENDCHAR
STARTCHAR U+0038
ENCODING 56
SWIDTH 416 0
DWIDTH 5 0
BBX 4 7 0 -1
BITMAP
60
90
90
60
90
90
60
ENDCHAR
STARTCHAR U+0039
ENCODING 57
SWIDTH 416 0
DWIDTH 5 0
BBX 4 7 0 -1
BITMAP
60
90
90
70
10
10
60
ENDCHAR
STARTCHAR U+003A
ENCODING 58
SWIDTH 250 0
DWIDTH 3 0
BBX 1 5 1 0
BITMAP
80
00
00
00
80
ENDCHAR
STARTCHAR U+003B
ENCODING 59
SWIDTH 250 0
DWIDTH 3 0
BBX 2 6 0 -1
BITMAP
40
00
00
00
40
80
ENDCHAR
STARTCHAR U+003C
ENCODING 60
SWIDTH 416 0
DWIDTH 5 0
BBX 4 7 0 -1
BITMAP
10
20
40
80
40
20
10
ENDCHAR
STARTCHAR U+003D
ENCODING 61
SWIDTH 500 0
DWIDTH 6 0
BBX 5 3 0 1
BITMAP
F8
00
F8
ENDCHAR
STARTCHAR U+003E
ENCODING 62
SWIDTH 416 0
DWIDTH 5 0
BBX 4 7 0 -1
BITMAP
80
40
20
10
20
40
80
ENDCHAR
STARTCHAR U+003F
ENCODING 63
SWIDTH 416 0
DWIDTH 5 0
BBX 4 7 0 -1
BITMAP
E0
10
20
40
40
00
40
ENDCHAR
STARTCHAR U+0040
ENCODING 64
SWIDTH 666 0
DWIDTH 8 0
BBX 7 7 0 -1
BITMAP
38
44
9A
AA
BA
44
30
ENDCHAR
STARTCHAR U+0041
ENCODING 65
SWIDTH 416 0
DWIDTH 5 0
BBX 4 7 0 -1
BITMAP
60
90
90
F0
90
90
90
ENDCHAR
STARTCHAR U+0042
ENCODING 66
SWIDTH 416 0
DWIDTH 5 0
BBX 4 7 0 -1
BITMAP
E0
90
90
E0
90
90
E0
ENDCHAR
STARTCHAR U+0043
ENCODING 67
SWIDTH 416 0
DWIDTH 5 0
BBX 4 7 0 -1
BITMAP
70
80
80
80
80
80
70
ENDCHAR
STARTCHAR U+0044
ENCODING 68
SWIDTH 416 0
DWIDTH 5 0
BBX 4 7 0 -1
BITMAP
E0
90
90
90
90
90
E0
ENDCHAR
STARTCHAR U+0045
ENCODING 69
SWIDTH 333 0
DWIDTH 4 0
BBX 3 7 0 -1
BITMAP
E0
80
80
E0
80
80
E0
ENDCHAR
STARTCHAR U+0046
ENCODING 70
SWIDTH 333 0
DWIDTH 4 0
BBX 3 7 0 -1
BITMAP
E0
80
80
E0
80
80
80
ENDCHAR
STARTCHAR U+0047
ENCODING 71
SWIDTH 416 0
DWIDTH 5 0
BBX 4 7 0 -1
BITMAP
70
80
80
B0
90
90
60
ENDCHAR
STARTCHAR U+0048
ENCODING 72
SWIDTH 416 0
DWIDTH 5 0
BBX 4 7 0 -1
BITMAP
90
90
90
F0
90
90
90
ENDCHAR
STARTCHAR U+0049
ENCODING 73
SWIDTH 166 0
DWIDTH 2 0
BBX 1 7 0 -1
BITMAP
80
80
80
80
80
80
80
ENDCHAR
STARTCHAR U+004A
ENCODING 74
SWIDTH 333 0
DWIDTH 4 0
BBX 3 7 0 -1
BITMAP
20
20
20
20
20
20
C0
ENDCHAR
STARTCHAR U+004B
ENCODING 75
SWIDTH 416 0
DWIDTH 5 0
BBX 4 7 0 -1
BITMAP
90
A0
A0
C0
A0
A0
90
ENDCHAR
STARTCHAR U+004C
ENCODING 76
SWIDTH 333 0
DWIDTH 4 0
BBX 3 7 0 -1
BITMAP
80
80
80
80
80
80
E0
ENDCHAR
STARTCHAR U+004D
ENCODING 77
SWIDTH 500 0
DWIDTH 6 0
BBX 5 7 0 -1
BITMAP
88
D8
D8
A8
A8
88
88
ENDCHAR
STARTCHAR U+004E
ENCODING 78
SWIDTH 416 0
DWIDTH 5 0
BBX 4 7 0 -1
BITMAP
90
D0
D0
B0
B0
90
90
ENDCHAR
STARTCHAR U+004F
ENCODING 79
SWIDTH 416 0
DWIDTH 5 0
BBX 4 7 0 -1
BITMAP
60
90
90
90
90
90
60
ENDCHAR
STARTCHAR U+0050
ENCODING 80
SWIDTH 416 0
DWIDTH 5 0
BBX 4 7 0 -1
BITMAP
E0
90
90
E0
80
80
80
ENDCHAR
STARTCHAR U+0051
ENCODING 81
SWIDTH 416 0
DWIDTH 5 0
BBX 4 7 0 -1
BITMAP
60
90
90
90
90
A0
50
ENDCHAR
STARTCHAR U+0052
ENCODING 82
SWIDTH 416 0
DWIDTH 5 0
BBX 4 7 0 -1
BITMAP
E0
90
90
E0
A0
90
90
ENDCHAR
STARTCHAR U+0053
ENCODING 83
SWIDTH 416 0
DWIDTH 5 0
BBX 4 7 0 -1
BITMAP
70
80
80
60
10
10
E0
ENDCHAR
STARTCHAR U+0054
ENCODING 84
SWIDTH 500 0
DWIDTH 6 0
BBX 5 7 0 -1
BITMAP
F8
20
20
20
20
20
20
ENDCHAR
STARTCHAR U+0055
ENCODING 85
SWIDTH 416 0
DWIDTH 5 0
BBX 4 7 0 -1
BITMAP
90
90
90
90
90
90
60
ENDCHAR
STARTCHAR U+0056
ENCODING 86
SWIDTH 500 0
DWIDTH 6 0
BBX 5 7 0 -1
BITMAP
88
88
50
50
50
20
20
ENDCHAR
STARTCHAR U+0057
ENCODING 87
SWIDTH 500 0
DWIDTH 6 0
BBX 5 7 0 -1
BITMAP
88
A8
A8
A8
50
50
50
ENDCHAR
STARTCHAR U+0058
ENCODING 88
SWIDTH 500 0
DWIDTH 6 0
BBX 5 7 0 -1
BITMAP
88
50
50
20
50
50
88
ENDCHAR
STARTCHAR U+0059
ENCODING 89
SWIDTH 500 0
DWIDTH 6 0
BBX 5 7 0 -1
BITMAP
88
50
50
20
20
20
20
ENDCHAR
STARTCHAR U+005A
ENCODING 90
SWIDTH 416 0
DWIDTH 5 0
BBX 4 7 0 -1
BITMAP
F0
10
20
60
40
80
F0
ENDCHAR
STARTCHAR U+005B
ENCODING 91
SWIDTH 250 0
DWIDTH 3 0
BBX 2 7 0 -1
BITMAP
C0
80
80
80
80
80
C0
ENDCHAR
STARTCHAR U+005C
ENCODING 92
SWIDTH 333 0
DWIDTH 4 0
BBX 3 7 0 -1
BITMAP
80
80
40
40
40
20
20
ENDCHAR
STARTCHAR U+005D
ENCODING 93
SWIDTH 250 0
DWIDTH 3 0
BBX 2 7 0 -1
BITMAP
C0
40
40
40
40
40
C0
ENDCHAR
STARTCHAR U+005E
ENCODING 94
SWIDTH 333 0
DWIDTH 4 0
BBX 3 2 0 4
BITMAP
40
A0
ENDCHAR
STARTCHAR U+005F
ENCODING 95
SWIDTH 416 0
DWIDTH 5 0
BBX 4 1 0 -1
BITMAP
F0
ENDCHAR
STARTCHAR U+0060
ENCODING 96
SWIDTH 250 0
DWIDTH 3 0
BBX 2 2 0 4
BITMAP
80
40
ENDCHAR
STARTCHAR U+0061
ENCODING 97
SWIDTH 416 0
DWIDTH 5 0
BBX 4 5 0 -1
BITMAP
E0
10
70
90
70
ENDCHAR
STARTCHAR U+0062
ENCODING 98
SWIDTH 416 0
DWIDTH 5 0
BBX 4 7 0 -1
BITMAP
80
80
E0
90
90
90
E0
ENDCHAR
STARTCHAR U+0063
ENCODING 99
SWIDTH 416 0
DWIDTH 5 0
BBX 4 5 0 -1
BITMAP
70
80
80
80
70
ENDCHAR
STARTCHAR U+0064
ENCODING 100
SWIDTH 416 0
DWIDTH 5 0
BBX 4 7 0 -1
BITMAP
10
10
70
90
90
90
70
ENDCHAR
STARTCHAR U+0065
ENCODING 101
SWIDTH 416 0
DWIDTH 5 0
BBX 4 5 0 -1
BITMAP
60
90
F0
80
70
ENDCHAR
STARTCHAR U+0066
ENCODING 102
SWIDTH 333 0
DWIDTH 4 0
BBX 3 7 0 -1
BITMAP
20
40
E0
40
40
40
40
ENDCHAR
STARTCHAR U+0067
ENCODING 103
SWIDTH 416 0
DWIDTH 5 0
BBX 4 6 0 -2
BITMAP
70
90
90
70
10
E0
ENDCHAR
STARTCHAR U+0068
ENCODING 104
SWIDTH 416 0
DWIDTH 5 0
BBX 4 7 0 -1
BITMAP
80
80
E0
90
90
90
90
ENDCHAR
STARTCHAR U+0069
ENCODING 105
SWIDTH 166 0
DWIDTH 2 0
BBX 1 7 0 -1
BITMAP
80
00
80
80
80
80
80
ENDCHAR
STARTCHAR U+006A
ENCODING 106
SWIDTH 333 0
DWIDTH 4 0
BBX 3 8 0 -2
BITMAP
20
00
20
20
20
20
20
C0
ENDCHAR
STARTCHAR U+006B
ENCODING 107
SWIDTH 416 0
DWIDTH 5 0
BBX 4 7 0 -1
BITMAP
80
80
90
A0
C0
A0
90
ENDCHAR
STARTCHAR U+006C
ENCODING 108
SWIDTH 250 0
DWIDTH 3 0
BBX 2 7 0 -1
BITMAP
80
80
80
80
80
80
40
ENDCHAR
STARTCHAR U+006D
ENCODING 109
SWIDTH 500 0
DWIDTH 6 0
BBX 5 5 0 -1
BITMAP
F0
A8
A8
A8
A8
ENDCHAR
STARTCHAR U+006E
ENCODING 110
SWIDTH 416 0
DWIDTH 5 0
BBX 4 5 0 -1
BITMAP
E0
90
90
90
90
ENDCHAR
STARTCHAR U+006F
ENCODING 111
SWIDTH 416 0
DWIDTH 5 0
BBX 4 5 0 -1
BITMAP
60
90
90
90
60
ENDCHAR
STARTCHAR U+0070
ENCODING 112
SWIDTH 416 0
DWIDTH 5 0
BBX 4 6 0 -2
BITMAP
E0
90
90
E0
80
80
ENDCHAR
STARTCHAR U+0071
ENCODING 113
SWIDTH 416 0
DWIDTH 5 0
BBX 4 6 0 -2
BITMAP
70
90
90
70
10
10
ENDCHAR
STARTCHAR U+0072
ENCODING 114
SWIDTH 333 0
DWIDTH 4 0
BBX 3 5 0 -1
BITMAP
A0
C0
80
80
80
ENDCHAR
STARTCHAR U+0073
ENCODING 115
SWIDTH 416 0
DWIDTH 5 0
BBX 4 5 0 -1
BITMAP
70
80
60
10
E0
ENDCHAR
STARTCHAR U+0074
ENCODING 116
SWIDTH 333 0
DWIDTH 4 0
BBX 3 6 0 -1
BITMAP
40
E0
40
40
40
20
ENDCHAR
STARTCHAR U+0075
ENCODING 117
SWIDTH 416 0
DWIDTH 5 0
BBX 4 5 0 -1
BITMAP
90
90
90
90
70
ENDCHAR
STARTCHAR U+0076
ENCODING 118
SWIDTH 500 0
DWIDTH 6 0
BBX 5 5 0 -1
BITMAP
88
88
50
50
20
ENDCHAR
STARTCHAR U+0077
ENCODING 119
SWIDTH 500 0
DWIDTH 6 0
BBX 5 5 0 -1
BITMAP
88
A8
A8
50
50
ENDCHAR
STARTCHAR U+0078
ENCODING 120
SWIDTH 500 0
DWIDTH 6 0
BBX 5 5 0 -1
BITMAP
88
50
20
50
88
ENDCHAR
STARTCHAR U+0079
ENCODING 121
SWIDTH 416 0
DWIDTH 5 0
BBX 4 6 0 -2
BITMAP
90
90
90
70
10
E0
ENDCHAR
STARTCHAR U+007A
ENCODING 122
SWIDTH 416 0
DWIDTH 5 0
BBX 4 5 0 -1
BITMAP
F0
10
60
80
F0
ENDCHAR
STARTCHAR U+007B
ENCODING 123
SWIDTH 333 0
DWIDTH 4 0
BBX 3 7 0 -1
BITMAP
20
40
40
80
40
40
20
ENDCHAR
STARTCHAR U+007C
ENCODING 124
SWIDTH 166 0
DWIDTH 2 0
BBX 1 7 0 -1
BITMAP
80
80
80
80
80
80
80
ENDCHAR
STARTCHAR U+007D
ENCODING 125
SWIDTH 333 0
DWIDTH 4 0
BBX 3 7 0 -1
BITMAP
80
40
40
20
40
40
80
ENDCHAR
STARTCHAR U+007E
ENCODING 126
SWIDTH 583 0
DWIDTH 7 0
BBX 6 2 0 2
BITMAP
64
98
ENDCHAR
STARTCHAR U+00A0
ENCODING 160
SWIDTH 250 0
DWIDTH 3 0
BBX 0 0 0 0
BITMAP
ENDCHAR
STARTCHAR U+00A1
ENCODING 161
SWIDTH 166 0
DWIDTH 2 0
BBX 1 7 0 -2
BITMAP
80
00
80
80
80
80
80
ENDCHAR
STARTCHAR U+00A2
ENCODING 162
SWIDTH 500 0
DWIDTH 6 0
BBX 5 7 0 -1
BITMAP
08
70
98
A0
C8
70
80
ENDCHAR
STARTCHAR U+00A3
ENCODING 163
SWIDTH 416 0
DWIDTH 5 0
BBX 4 7 0 -1
BITMAP
20
50
40
F0
20
40
F0
ENDCHAR
STARTCHAR U+00A4
ENCODING 164
SWIDTH 583 0
DWIDTH 7 0
BBX 6 6 0 -1
BITMAP
B4
48
84
84
48
B4
ENDCHAR
STARTCHAR U+00A5
ENCODING 165
SWIDTH 500 0
DWIDTH 6 0
BBX 5 7 0 -1
BITMAP
88
50
F8
20
F8
20
20
ENDCHAR
STARTCHAR U+00A6
ENCODING 166
SWIDTH 166 0
DWIDTH 2 0
BBX 1 7 0 -1
BITMAP
80
80
80
00
80
80
80
ENDCHAR
STARTCHAR U+00A7
ENCODING 167
SWIDTH 333 0
DWIDTH 4 0
BBX 3 7 0 -1
BITMAP
60
80
C0
A0
60
20
C0
ENDCHAR
STARTCHAR U+00A8
ENCODING 168
SWIDTH 333 0
DWIDTH 4 0
BBX 3 1 0 5
BITMAP
A0
ENDCHAR
STARTCHAR U+00A9
ENCODING 169
SWIDTH 666 0
DWIDTH 8 0
BBX 7 7 0 -1
BITMAP
38
44
BA
A2
BA
44
38
ENDCHAR
STARTCHAR U+00AA
ENCODING 170
SWIDTH 333 0
DWIDTH 4 0
BBX 3 5 0 0
BITMAP
60
A0
60
00
E0
ENDCHAR
STARTCHAR U+00AB
ENCODING 171
SWIDTH 416 0
DWIDTH 5 0
BBX 4 3 0 1
BITMAP
50
A0
50
ENDCHAR
STARTCHAR U+00AC
ENCODING 172
SWIDTH 500 0
DWIDTH 6 0
BBX 5 4 0 -1
BITMAP
F8
08
08
08
ENDCHAR
STARTCHAR U+00AD
ENCODING 173
SWIDTH 666 0
DWIDTH 8 0
BBX 2 1 3 1
BITMAP
C0
ENDCHAR
STARTCHAR U+00AE
ENCODING 174
SWIDTH 666 0
DWIDTH 8 0
BBX 7 7 0 -1
BITMAP
38
74
AA
B2
AA
44
38
ENDCHAR
STARTCHAR U+00AF
ENCODING 175
SWIDTH 416 0
DWIDTH 5 0
BBX 4 1 0 5
BITMAP
F0
ENDCHAR
STARTCHAR U+00B0
ENCODING 176
SWIDTH 333 0
DWIDTH 4 0
BBX 3 3 0 3
BITMAP
40
A0
40
ENDCHAR
STARTCHAR U+00B1
ENCODING 177
SWIDTH 500 0
DWIDTH 6 0
BBX 5 7 0 -1
BITMAP
20
20
F8
20
20
00
F8
ENDCHAR
STARTCHAR U+00B4
ENCODING 180
SWIDTH 250 0
DWIDTH 3 0
BBX 2 2 0 4
BITMAP
40
80
ENDCHAR
STARTCHAR U+00B5
ENCODING 181
SWIDTH 416 0
DWIDTH 5 0
BBX 4 6 0 -2
BITMAP
90
90
90
90
F0
80
ENDCHAR
STARTCHAR U+00B6
ENCODING 182
SWIDTH 500 0
DWIDTH 6 0
BBX 5 7 0 -1
BITMAP
78
E8
E8
68
28
28
28
ENDCHAR
STARTCHAR U+00B7
ENCODING 183
SWIDTH 166 0
DWIDTH 2 0
BBX 1 1 0 2
BITMAP
80
ENDCHAR
STARTCHAR U+00B8
ENCODING 184
SWIDTH 250 0
DWIDTH 3 0
BBX 2 2 0 -2
BITMAP
40
80
ENDCHAR
STARTCHAR U+00BA
ENCODING 186
SWIDTH 333 0
DWIDTH 4 0
BBX 3 5 0 0
BITMAP
40
A0
40
00
E0
ENDCHAR
STARTCHAR U+00BB
ENCODING 187
SWIDTH 416 0
DWIDTH 5 0
BBX 4 3 0 1
BITMAP
A0
50
A0
ENDCHAR
STARTCHAR U+00BC
ENCODING 188
SWIDTH 666 0
DWIDTH 8 0
BBX 7 7 0 -1
BITMAP
42
44
48
1A
2A
4E
82
ENDCHAR
STARTCHAR U+00BD
ENCODING 189
SWIDTH 666 0
DWIDTH 8 0
BBX 7 7 0 -1
BITMAP
42
44
48
14
2A
44
8E
ENDCHAR
STARTCHAR U+00BE
ENCODING 190
SWIDTH 666 0
DWIDTH 8 0
BBX 7 7 0 -1
BITMAP
E2
44
28
DA
2A
4E
82
ENDCHAR
STARTCHAR U+00BF
ENCODING 191
SWIDTH 416 0
DWIDTH 5 0
BBX 4 7 0 -2
BITMAP
20
00
20
20
40
80
70
ENDCHAR
STARTCHAR U+00C0
ENCODING 192
SWIDTH 416 0
DWIDTH 5 0
BBX 4 8 0 -1
BITMAP
40
20
60
90
90
F0
90
90
ENDCHAR
STARTCHAR U+00C1
ENCODING 193
SWIDTH 416 0
DWIDTH 5 0
BBX 4 8 0 -1
BITMAP
20
40
60
90
90
F0
90
90
ENDCHAR
STARTCHAR U+00C2
ENCODING 194
SWIDTH 416 0
DWIDTH 5 0
BBX 4 8 0 -1
BITMAP
20
50
00
60
90
F0
90
90
ENDCHAR
STARTCHAR U+00C3
ENCODING 195
SWIDTH 416 0
DWIDTH 5 0
BBX 4 8 0 -1
BITMAP
50
A0
60
90
90
F0
90
90
ENDCHAR
STARTCHAR U+00C4
ENCODING 196
SWIDTH 416 0
DWIDTH 5 0
BBX 4 8 0 -1
BITMAP
50
00
60
90
90
F0
90
90
ENDCHAR
STARTCHAR U+00C5
ENCODING 197
SWIDTH 416 0
DWIDTH 5 0
BBX 4 8 0 -1
BITMAP
20
50
20
60
90
F0
90
90
ENDCHAR
STARTCHAR U+00C6
ENCODING 198
SWIDTH 500 0
DWIDTH 6 0
BBX 5 7 0 -1
BITMAP
78
A0
A0
B8
E0
A0
B8
ENDCHAR
STARTCHAR U+00C7
ENCODING 199
SWIDTH 416 0
DWIDTH 5 0
BBX 4 8 0 -2
BITMAP
70
80
80
80
80
70
20
40
ENDCHAR
STARTCHAR U+00C8
ENCODING 200
SWIDTH 416 0
DWIDTH 5 0
BBX 4 8 0 -1
BITMAP
40
20
F0
80
F0
80
80
F0
ENDCHAR
STARTCHAR U+00C9
ENCODING 201
SWIDTH 416 0
DWIDTH 5 0
BBX 4 8 0 -1
BITMAP
20
40
F0
80
F0
80
80
F0
ENDCHAR
STARTCHAR U+00CA
ENCODING 202
SWIDTH 416 0
DWIDTH 5 0
BBX 4 8 0 -1
BITMAP
20
50
F0
80
F0
80
80
F0
ENDCHAR
STARTCHAR U+00CB
ENCODING 203
SWIDTH 416 0
DWIDTH 5 0
BBX 4 8 0 -1
BITMAP
50
00
F0
80
F0
80
80
F0
ENDCHAR
STARTCHAR U+00CC
ENCODING 204
SWIDTH 250 0
DWIDTH 3 0
BBX 2 8 0 -1
BITMAP
80
40
00
40
40
40
40
40
ENDCHAR
STARTCHAR U+00CD
ENCODING 205
SWIDTH 250 0
DWIDTH 3 0
BBX 2 8 0 -1
BITMAP
40
80
00
80
80
80
80
80
ENDCHAR
STARTCHAR U+00CE
ENCODING 206
SWIDTH 333 0
DWIDTH 4 0
BBX 3 8 0 -1
BITMAP
40
A0
00
40
40
40
40
40
ENDCHAR
STARTCHAR U+00CF
ENCODING 207
SWIDTH 333 0
DWIDTH 4 0
BBX 3 7 0 -1
BITMAP
A0
00
40
40
40
40
40
ENDCHAR
STARTCHAR U+00D0
ENCODING 208
SWIDTH 500 0
DWIDTH 6 0
BBX 5 7 0 -1
BITMAP
70
48
48
E8
48
48
70
ENDCHAR
STARTCHAR U+00D1
ENCODING 209
SWIDTH 500 0
DWIDTH 6 0
BBX 5 8 0 -1
BITMAP
28
50
88
C8
A8
A8
98
88
ENDCHAR
STARTCHAR U+00D2
ENCODING 210
SWIDTH 416 0
DWIDTH 5 0
BBX 4 8 0 -1
BITMAP
40
20
60
90
90
90
90
60
ENDCHAR
STARTCHAR U+00D3
ENCODING 211
SWIDTH 416 0
DWIDTH 5 0
BBX 4 8 0 -1
BITMAP
20
40
60
90
90
90
90
60
ENDCHAR
STARTCHAR U+00D4
ENCODING 212
SWIDTH 416 0
DWIDTH 5 0
BBX 4 8 0 -1
BITMAP
20
50
60
90
90
90
90
60
ENDCHAR
STARTCHAR U+00D5
ENCODING 213
SWIDTH 416 0
DWIDTH 5 0
BBX 4 8 0 -1
BITMAP
50
A0
60
90
90
90
90
60
ENDCHAR
STARTCHAR U+00D6
ENCODING 214
SWIDTH 416 0
DWIDTH 5 0
BBX 4 8 0 -1
BITMAP
50
00
60
90
90
90
90
60
ENDCHAR
STARTCHAR U+00D7
ENCODING 215
SWIDTH 500 0
DWIDTH 6 0
BBX 5 5 0 0
BITMAP
88
50
20
50
88
ENDCHAR
STARTCHAR U+00D8
ENCODING 216
SWIDTH 583 0
DWIDTH 7 0
BBX 6 6 0 -1
BITMAP
34
48
58
68
48
B0
ENDCHAR
STARTCHAR U+00D9
ENCODING 217
SWIDTH 416 0
DWIDTH 5 0
BBX 4 8 0 -1
BITMAP
80
40
90
90
90
90
90
60
ENDCHAR
STARTCHAR U+00DA
ENCODING 218
SWIDTH 416 0
DWIDTH 5 0
BBX 4 8 0 -1
BITMAP
10
20
90
90
90
90
90
60
ENDCHAR
STARTCHAR U+00DB
ENCODING 219
SWIDTH 416 0
DWIDTH 5 0
BBX 4 8 0 -1
BITMAP
20
50
90
90
90
90
90
60
ENDCHAR
STARTCHAR U+00DC
ENCODING 220
SWIDTH 416 0
DWIDTH 5 0
BBX 4 8 0 -1
BITMAP
50
00
90
90
90
90
90
60
ENDCHAR
STARTCHAR U+00DD
ENCODING 221
SWIDTH 500 0
DWIDTH 6 0
BBX 5 8 0 -1
BITMAP
10
20
88
50
50
20
20
20
ENDCHAR
STARTCHAR U+00DE
ENCODING 222
SWIDTH 333 0
DWIDTH 4 0
BBX 4 7 0 -1
BITMAP
80
E0
90
90
E0
80
80
ENDCHAR
STARTCHAR U+00DF
ENCODING 223
SWIDTH 416 0
DWIDTH 5 0
BBX 4 7 0 -1
BITMAP
60
90
90
A0
90
90
A0
ENDCHAR
STARTCHAR U+00E0
ENCODING 224
SWIDTH 416 0
DWIDTH 5 0
BBX 4 7 0 -1
BITMAP
40
20
E0
10
70
90
70
ENDCHAR
STARTCHAR U+00E1
ENCODING 225
SWIDTH 416 0
DWIDTH 5 0
BBX 4 7 0 -1
BITMAP
20
40
E0
10
70
90
70
ENDCHAR
STARTCHAR U+00E2
ENCODING 226
SWIDTH 416 0
DWIDTH 5 0
BBX 4 7 0 -1
BITMAP
20
50
E0
10
70
90
70
ENDCHAR
STARTCHAR U+00E3
ENCODING 227
SWIDTH 500 0
DWIDTH 6 0
BBX 5 7 0 -1
BITMAP
28
50
E0
10
70
90
70
ENDCHAR
STARTCHAR U+00E4
ENCODING 228
SWIDTH 416 0
DWIDTH 5 0
BBX 4 7 0 -1
BITMAP
50
00
E0
10
70
90
70
ENDCHAR
STARTCHAR U+00E5
ENCODING 229
SWIDTH 416 0
DWIDTH 5 0
BBX 4 7 0 -1
BITMAP
20
50
E0
10
70
90
70
ENDCHAR
STARTCHAR U+00E6
ENCODING 230
SWIDTH 500 0
DWIDTH 6 0
BBX 5 5 0 -1
BITMAP
D0
28
78
A0
58
ENDCHAR
STARTCHAR U+00E7
ENCODING 231
SWIDTH 416 0
DWIDTH 5 0
BBX 4 6 0 -2
BITMAP
70
80
80
80
70
C0
ENDCHAR
STARTCHAR U+00E8
ENCODING 232
SWIDTH 416 0
DWIDTH 5 0
BBX 4 7 0 -1
BITMAP
40
20
60
90
F0
80
70
ENDCHAR
STARTCHAR U+00E9
ENCODING 233
SWIDTH 416 0
DWIDTH 5 0
BBX 4 7 0 -1
BITMAP
20
40
60
90
F0
80
70
ENDCHAR
STARTCHAR U+00EA
ENCODING 234
SWIDTH 416 0
DWIDTH 5 0
BBX 4 7 0 -1
BITMAP
20
50
60
90
F0
80
70
ENDCHAR
STARTCHAR U+00EB
ENCODING 235
SWIDTH 416 0
DWIDTH 5 0
BBX 4 7 0 -1
BITMAP
50
00
60
90
F0
80
70
ENDCHAR
STARTCHAR U+00EC
ENCODING 236
SWIDTH 250 0
DWIDTH 3 0
BBX 2 7 0 -1
BITMAP
80
40
00
40
40
40
40
ENDCHAR
STARTCHAR U+00ED
ENCODING 237
SWIDTH 250 0
DWIDTH 3 0
BBX 2 7 0 -1
BITMAP
40
80
00
80
80
80
80
ENDCHAR
STARTCHAR U+00EE
ENCODING 238
SWIDTH 333 0
DWIDTH 4 0
BBX 3 7 0 -1
BITMAP
40
A0
00
40
40
40
40
ENDCHAR
STARTCHAR U+00EF
ENCODING 239
SWIDTH 333 0
DWIDTH 4 0
BBX 3 6 0 -1
BITMAP
A0
00
40
40
40
40
ENDCHAR
STARTCHAR U+00F0
ENCODING 240
SWIDTH 416 0
DWIDTH 5 0
BBX 4 7 0 -1
BITMAP
A0
40
A0
10
70
90
60
ENDCHAR
STARTCHAR U+00F1
ENCODING 241
SWIDTH 416 0
DWIDTH 5 0
BBX 4 8 0 -1
BITMAP
50
A0
00
E0
90
90
90
90
ENDCHAR
STARTCHAR U+00F2
ENCODING 242
SWIDTH 416 0
DWIDTH 5 0
BBX 4 7 0 -1
BITMAP
40
20
60
90
90
90
60
ENDCHAR
STARTCHAR U+00F3
ENCODING 243
SWIDTH 416 0
DWIDTH 5 0
BBX 4 7 0 -1
BITMAP
20
40
60
90
90
90
60
ENDCHAR
STARTCHAR U+00F4
ENCODING 244
SWIDTH 416 0
DWIDTH 5 0
BBX 4 7 0 -1
BITMAP
20
50
60
90
90
90
60
ENDCHAR
STARTCHAR U+00F5
ENCODING 245
SWIDTH 416 0
DWIDTH 5 0
BBX 4 7 0 -1
BITMAP
50
A0
60
90
90
90
60
ENDCHAR
STARTCHAR U+00F6
ENCODING 246
SWIDTH 416 0
DWIDTH 5 0
BBX 4 7 0 -1
BITMAP
50
00
60
90
90
90
60
ENDCHAR
STARTCHAR U+00F7
ENCODING 247
SWIDTH 500 0
DWIDTH 6 0
BBX 5 5 0 0
BITMAP
20
00
F8
00
20
ENDCHAR
STARTCHAR U+00F8
ENCODING 248
SWIDTH 583 0
DWIDTH 7 0
BBX 6 5 0 -1
BITMAP
34
58
68
48
B0
ENDCHAR
STARTCHAR U+00F9
ENCODING 249
SWIDTH 416 0
DWIDTH 5 0
BBX 4 8 0 -1
BITMAP
40
20
00
90
90
90
90
70
ENDCHAR
STARTCHAR U+00FA
ENCODING 250
SWIDTH 416 0
DWIDTH 5 0
BBX 4 8 0 -1
BITMAP
20
40
00
90
90
90
90
70
ENDCHAR
STARTCHAR U+00FB
ENCODING 251
SWIDTH 416 0
DWIDTH 5 0
BBX 4 8 0 -1
BITMAP
20
50
00
90
90
90
90
70
ENDCHAR
STARTCHAR U+00FC
ENCODING 252
SWIDTH 416 0
DWIDTH 5 0
BBX 4 7 0 -1
BITMAP
50
00
90
90
90
90
70
ENDCHAR
STARTCHAR U+00FD
ENCODING 253
SWIDTH 416 0
DWIDTH 5 0
BBX 4 9 0 -2
BITMAP
20
40
00
90
90
90
70
10
E0
ENDCHAR
STARTCHAR U+00FE
ENCODING 254
SWIDTH 416 0
DWIDTH 5 0
BBX 4 7 0 -2
BITMAP
80
E0
90
90
E0
80
80
ENDCHAR
STARTCHAR U+00FF
ENCODING 255
SWIDTH 416 0
DWIDTH 5 0
BBX 4 8 0 -2
BITMAP
50
00
90
90
90
70
10
E0
ENDCHAR
STARTCHAR U+0100
ENCODING 256
SWIDTH 333 0
DWIDTH 4 0
BBX 3 5 0 -1
BITMAP
E0
00
60
A0
60
ENDCHAR
STARTCHAR U+0101
ENCODING 257
SWIDTH 333 0
DWIDTH 4 0
BBX 3 6 0 -1
BITMAP
E0
00
60
A0
A0
60
ENDCHAR
STARTCHAR U+0102
ENCODING 258
SWIDTH 416 0
DWIDTH 5 0
BBX 4 6 0 -1
BITMAP
50
20
20
50
F0
90
ENDCHAR
STARTCHAR U+0103
ENCODING 259
SWIDTH 333 0
DWIDTH 4 0
BBX 3 6 0 -1
BITMAP
A0
40
00
60
A0
60
ENDCHAR
STARTCHAR U+0104
ENCODING 260
SWIDTH 416 0
DWIDTH 5 0
BBX 4 9 0 -3
BITMAP
60
90
90
F0
90
90
90
40
60
ENDCHAR
STARTCHAR U+0105
ENCODING 261
SWIDTH 333 0
DWIDTH 4 0
BBX 4 7 0 -3
BITMAP
E0
10
70
90
70
40
60
ENDCHAR
STARTCHAR U+0106
ENCODING 262
SWIDTH 416 0
DWIDTH 5 0
BBX 4 6 0 -1
BITMAP
20
40
60
90
80
60
ENDCHAR
STARTCHAR U+0107
ENCODING 263
SWIDTH 333 0
DWIDTH 4 0
BBX 4 6 0 -1
BITMAP
20
70
80
80
80
70
ENDCHAR
STARTCHAR U+0108
ENCODING 264
SWIDTH 416 0
DWIDTH 5 0
BBX 4 6 0 -1
BITMAP
40
A0
60
90
80
60
ENDCHAR
STARTCHAR U+0109
ENCODING 265
SWIDTH 333 0
DWIDTH 4 0
BBX 4 6 0 -1
BITMAP
40
F0
80
80
80
70
ENDCHAR
STARTCHAR U+010A
ENCODING 266
SWIDTH 416 0
DWIDTH 5 0
BBX 4 5 0 -1
BITMAP
60
90
80
90
60
ENDCHAR
STARTCHAR U+010B
ENCODING 267
SWIDTH 333 0
DWIDTH 4 0
BBX 4 5 0 -1
BITMAP
70
80
80
80
70
ENDCHAR
STARTCHAR U+010C
ENCODING 268
SWIDTH 416 0
DWIDTH 5 0
BBX 4 6 0 -1
BITMAP
A0
40
60
90
80
60
ENDCHAR
STARTCHAR U+010D
ENCODING 269
SWIDTH 333 0
DWIDTH 4 0
BBX 4 6 0 -1
BITMAP
50
20
00
60
80
60
ENDCHAR
STARTCHAR U+010E
ENCODING 270
SWIDTH 416 0
DWIDTH 5 0
BBX 4 6 0 -1
BITMAP
A0
40
E0
90
90
E0
ENDCHAR
STARTCHAR U+010F
ENCODING 271
SWIDTH 333 0
DWIDTH 4 0
BBX 3 6 0 -1
BITMAP
A0
60
60
A0
A0
60
ENDCHAR
STARTCHAR U+0110
ENCODING 272
SWIDTH 416 0
DWIDTH 5 0
BBX 4 5 0 -1
BITMAP
E0
90
D0
A0
C0
ENDCHAR
STARTCHAR U+0111
ENCODING 273
SWIDTH 416 0
DWIDTH 5 0
BBX 4 5 0 -1
BITMAP
70
20
60
A0
60
ENDCHAR
STARTCHAR U+0112
ENCODING 274
SWIDTH 333 0
DWIDTH 4 0
BBX 4 8 0 -1
BITMAP
F0
00
00
60
90
F0
80
70
ENDCHAR
STARTCHAR U+0113
ENCODING 275
SWIDTH 333 0
DWIDTH 4 0
BBX 4 6 0 -1
BITMAP
E0
60
90
F0
80
70
ENDCHAR
STARTCHAR U+0116
ENCODING 278
SWIDTH 333 0
DWIDTH 4 0
BBX 3 5 0 -1
BITMAP
E0
80
E0
80
E0
ENDCHAR
STARTCHAR U+0117
ENCODING 279
SWIDTH 333 0
DWIDTH 4 0
BBX 4 5 0 -1
BITMAP
60
90
F0
80
70
ENDCHAR
STARTCHAR U+0118
ENCODING 280
SWIDTH 333 0
DWIDTH 4 0
BBX 3 9 0 -3
BITMAP
E0
80
80
E0
80
80
E0
40
60
ENDCHAR
STARTCHAR U+0119
ENCODING 281
SWIDTH 333 0
DWIDTH 4 0
BBX 4 7 0 -3
BITMAP
60
90
F0
80
70
40
60
ENDCHAR
STARTCHAR U+011A
ENCODING 282
SWIDTH 333 0
DWIDTH 4 0
BBX 4 6 0 -1
BITMAP
A0
60
90
F0
80
70
ENDCHAR
STARTCHAR U+011B
ENCODING 283
SWIDTH 333 0
DWIDTH 4 0
BBX 3 6 0 -1
BITMAP
A0
40
60
E0
80
60
ENDCHAR
STARTCHAR U+011C
ENCODING 284
SWIDTH 416 0
DWIDTH 5 0
BBX 4 6 0 -1
BITMAP
40
F0
80
B0
90
60
ENDCHAR
STARTCHAR U+011D
ENCODING 285
SWIDTH 333 0
DWIDTH 4 0
BBX 4 7 0 -2
BITMAP
40
F0
90
90
70
10
E0
ENDCHAR
STARTCHAR U+011E
ENCODING 286
SWIDTH 416 0
DWIDTH 5 0
BBX 4 6 0 -1
BITMAP
A0
70
80
B0
90
60
ENDCHAR
STARTCHAR U+011F
ENCODING 287
SWIDTH 333 0
DWIDTH 4 0
BBX 4 7 0 -2
BITMAP
A0
70
90
90
70
10
E0
ENDCHAR
STARTCHAR U+0120
ENCODING 288
SWIDTH 416 0
DWIDTH 5 0
BBX 4 5 0 -1
BITMAP
70
80
B0
90
60
ENDCHAR
STARTCHAR U+0121
ENCODING 289
SWIDTH 333 0
DWIDTH 4 0
BBX 4 6 0 -2
BITMAP
70
90
90
70
10
E0
ENDCHAR
STARTCHAR U+0122
ENCODING 290
SWIDTH 416 0
DWIDTH 5 0
BBX 4 9 0 -3
BITMAP
70
80
80
B0
90
90
60
40
80
ENDCHAR
STARTCHAR U+0123
ENCODING 291
SWIDTH 333 0
DWIDTH 4 0
BBX 4 7 0 -2
BITMAP
80
F0
90
90
70
10
E0
ENDCHAR
STARTCHAR U+0124
ENCODING 292
SWIDTH 416 0
DWIDTH 5 0
BBX 4 6 0 -1
BITMAP
40
B0
90
F0
90
90
ENDCHAR
STARTCHAR U+0125
ENCODING 293
SWIDTH 333 0
DWIDTH 4 0
BBX 3 6 0 -1
BITMAP
C0
A0
C0
A0
A0
A0
ENDCHAR
STARTCHAR U+0126
ENCODING 294
SWIDTH 416 0
DWIDTH 5 0
BBX 5 5 0 -1
BITMAP
50
F8
50
70
50
ENDCHAR
STARTCHAR U+0127
ENCODING 295
SWIDTH 416 0
DWIDTH 5 0
BBX 4 6 0 -1
BITMAP
40
E0
40
60
50
50
ENDCHAR
STARTCHAR U+0128
ENCODING 296
SWIDTH 166 0
DWIDTH 2 0
BBX 4 6 -1 -1
BITMAP
50
A0
00
40
40
40
ENDCHAR
STARTCHAR U+0129
ENCODING 297
SWIDTH 333 0
DWIDTH 4 0
BBX 4 6 -1 -1
BITMAP
50
A0
80
80
80
80
ENDCHAR
STARTCHAR U+012A
ENCODING 298
SWIDTH 83 0
DWIDTH 1 0
BBX 3 5 -1 -1
BITMAP
E0
00
40
40
40
ENDCHAR
STARTCHAR U+012B
ENCODING 299
SWIDTH 333 0
DWIDTH 4 0
BBX 3 6 0 -1
BITMAP
E0
00
40
40
40
40
ENDCHAR
STARTCHAR U+012E
ENCODING 302
SWIDTH 166 0
DWIDTH 2 0
BBX 2 9 0 -3
BITMAP
80
80
80
80
80
80
80
80
C0
ENDCHAR
STARTCHAR U+012F
ENCODING 303
SWIDTH 416 0
DWIDTH 5 0
BBX 3 7 0 -3
BITMAP
40
80
80
80
80
40
60
ENDCHAR
STARTCHAR U+0130
ENCODING 304
SWIDTH 166 0
DWIDTH 2 0
BBX 1 5 0 -1
BITMAP
80
00
80
80
80
ENDCHAR
STARTCHAR U+0131
ENCODING 305
SWIDTH 166 0
DWIDTH 2 0
BBX 1 4 0 -1
BITMAP
80
80
80
80
ENDCHAR
STARTCHAR U+0132
ENCODING 306
SWIDTH 333 0
DWIDTH 4 0
BBX 4 5 0 -1
BITMAP
B0
A0
A0
A0
40
ENDCHAR
STARTCHAR U+0133
ENCODING 307
SWIDTH 333 0
DWIDTH 4 0
BBX 3 7 0 -2
BITMAP
A0
00
A0
A0
A0
20
40
ENDCHAR
STARTCHAR U+0134
ENCODING 308
SWIDTH 250 0
DWIDTH 3 0
BBX 3 8 0 -3
BITMAP
40
A0
00
00
40
40
40
80
ENDCHAR
STARTCHAR U+0135
ENCODING 309
SWIDTH 416 0
DWIDTH 5 0
BBX 3 7 0 -2
BITMAP
40
A0
20
20
20
A0
40
ENDCHAR
STARTCHAR U+0136
ENCODING 310
SWIDTH 416 0
DWIDTH 5 0
BBX 4 9 0 -3
BITMAP
90
A0
A0
C0
A0
A0
90
40
80
ENDCHAR
STARTCHAR U+0137
ENCODING 311
SWIDTH 333 0
DWIDTH 4 0
BBX 4 9 0 -3
BITMAP
80
80
90
A0
C0
A0
90
40
80
ENDCHAR
STARTCHAR U+0139
ENCODING 313
SWIDTH 250 0
DWIDTH 3 0
BBX 2 6 0 -1
BITMAP
40
80
00
80
80
C0
ENDCHAR
STARTCHAR U+013A
ENCODING 314
SWIDTH 166 0
DWIDTH 2 0
BBX 2 6 0 -1
BITMAP
40
80
00
80
80
80
ENDCHAR
STARTCHAR U+013B
ENCODING 315
SWIDTH 333 0
DWIDTH 4 0
BBX 3 9 0 -3
BITMAP
80
80
80
80
80
80
E0
40
80
ENDCHAR
STARTCHAR U+013C
ENCODING 316
SWIDTH 166 0
DWIDTH 2 0
BBX 2 9 0 -3
BITMAP
80
80
80
80
80
80
40
40
80
ENDCHAR
STARTCHAR U+013D
ENCODING 317
SWIDTH 250 0
DWIDTH 3 0
BBX 3 6 -1 -1
BITMAP
A0
40
00
40
40
60
ENDCHAR
STARTCHAR U+013E
ENCODING 318
SWIDTH 166 0
DWIDTH 2 0
BBX 3 6 -1 -1
BITMAP
A0
40
00
40
40
40
ENDCHAR
STARTCHAR U+0141
ENCODING 321
SWIDTH 333 0
DWIDTH 4 0
BBX 3 5 0 -1
BITMAP
80
A0
C0
80
E0
ENDCHAR
STARTCHAR U+0142
ENCODING 322
SWIDTH 416 0
DWIDTH 5 0
BBX 3 5 0 -1
BITMAP
40
60
C0
40
40
ENDCHAR
STARTCHAR U+0143
ENCODING 323
SWIDTH 416 0
DWIDTH 5 0
BBX 4 6 0 -1
BITMAP
20
40
00
D0
B0
90
ENDCHAR
STARTCHAR U+0144
ENCODING 324
SWIDTH 333 0
DWIDTH 4 0
BBX 3 6 0 -1
BITMAP
40
80
00
C0
A0
A0
ENDCHAR
STARTCHAR U+0145
ENCODING 325
SWIDTH 416 0
DWIDTH 5 0
BBX 4 9 0 -3
BITMAP
90
D0
D0
B0
B0
90
90
40
80
ENDCHAR
STARTCHAR U+0146
ENCODING 326
SWIDTH 333 0
DWIDTH 4 0
BBX 4 7 0 -3
BITMAP
E0
90
90
90
90
40
80
ENDCHAR
STARTCHAR U+0147
ENCODING 327
SWIDTH 416 0
DWIDTH 5 0
BBX 4 6 0 -1
BITMAP
A0
40
00
D0
B0
90
ENDCHAR
STARTCHAR U+0148
ENCODING 328
SWIDTH 333 0
DWIDTH 4 0
BBX 3 6 0 -1
BITMAP
A0
40
00
C0
A0
A0
ENDCHAR
STARTCHAR U+014A
ENCODING 330
SWIDTH 416 0
DWIDTH 5 0
BBX 4 6 0 -2
BITMAP
90
D0
B0
90
90
10
ENDCHAR
STARTCHAR U+014B
ENCODING 331
SWIDTH 333 0
DWIDTH 4 0
BBX 3 5 0 -3
BITMAP
C0
A0
A0
20
20
ENDCHAR
STARTCHAR U+014C
ENCODING 332
SWIDTH 333 0
DWIDTH 4 0
BBX 4 8 0 -1
BITMAP
F0
00
00
60
90
90
90
60
ENDCHAR
STARTCHAR U+014D
ENCODING 333
SWIDTH 333 0
DWIDTH 4 0
BBX 3 6 0 -2
BITMAP
E0
00
00
60
A0
C0
ENDCHAR
STARTCHAR U+0150
ENCODING 336
SWIDTH 333 0
DWIDTH 4 0
BBX 4 6 0 -1
BITMAP
50
A0
40
A0
A0
40
ENDCHAR
STARTCHAR U+0151
ENCODING 337
SWIDTH 333 0
DWIDTH 4 0
BBX 4 7 0 -2
BITMAP
50
A0
00
00
60
A0
C0
ENDCHAR
STARTCHAR U+0152
ENCODING 338
SWIDTH 500 0
DWIDTH 6 0
BBX 5 5 0 -1
BITMAP
58
A0
B8
A0
58
ENDCHAR
STARTCHAR U+0153
ENCODING 339
SWIDTH 333 0
DWIDTH 4 0
BBX 4 5 0 -1
BITMAP
70
A0
B0
A0
70
ENDCHAR
STARTCHAR U+0154
ENCODING 340
SWIDTH 416 0
DWIDTH 5 0
BBX 4 6 0 -1
BITMAP
20
40
E0
90
E0
90
ENDCHAR
STARTCHAR U+0155
ENCODING 341
SWIDTH 166 0
DWIDTH 2 0
BBX 3 6 0 -1
BITMAP
40
A0
C0
80
80
80
ENDCHAR
STARTCHAR U+0156
ENCODING 342
SWIDTH 416 0
DWIDTH 5 0
BBX 4 9 0 -3
BITMAP
E0
90
90
E0
A0
90
90
40
80
ENDCHAR
STARTCHAR U+0157
ENCODING 343
SWIDTH 166 0
DWIDTH 2 0
BBX 4 7 -1 -3
BITMAP
50
60
40
40
40
40
80
ENDCHAR
STARTCHAR U+0158
ENCODING 344
SWIDTH 416 0
DWIDTH 5 0
BBX 4 6 0 -1
BITMAP
A0
40
E0
90
E0
90
ENDCHAR
STARTCHAR U+0159
ENCODING 345
SWIDTH 166 0
DWIDTH 2 0
BBX 4 6 -1 -1
BITMAP
A0
50
60
40
40
40
ENDCHAR
STARTCHAR U+015A
ENCODING 346
SWIDTH 333 0
DWIDTH 4 0
BBX 4 6 0 -1
BITMAP
20
70
80
60
10
E0
ENDCHAR
STARTCHAR U+015B
ENCODING 347
SWIDTH 333 0
DWIDTH 4 0
BBX 4 6 0 -1
BITMAP
20
70
80
60
10
E0
ENDCHAR
STARTCHAR U+015C
ENCODING 348
SWIDTH 416 0
DWIDTH 5 0
BBX 4 6 0 -1
BITMAP
40
F0
80
60
10
E0
ENDCHAR
STARTCHAR U+015D
ENCODING 349
SWIDTH 333 0
DWIDTH 4 0
BBX 4 6 0 -1
BITMAP
40
F0
80
60
10
E0
ENDCHAR
STARTCHAR U+015E
ENCODING 350
SWIDTH 416 0
DWIDTH 5 0
BBX 4 9 0 -3
BITMAP
70
80
80
60
10
10
E0
20
40
ENDCHAR
STARTCHAR U+015F
ENCODING 351
SWIDTH 333 0
DWIDTH 4 0
BBX 4 7 0 -3
BITMAP
70
80
60
10
E0
20
40
ENDCHAR
STARTCHAR U+0160
ENCODING 352
SWIDTH 333 0
DWIDTH 4 0
BBX 4 6 0 -1
BITMAP
A0
70
80
60
10
E0
ENDCHAR
STARTCHAR U+0161
ENCODING 353
SWIDTH 333 0
DWIDTH 4 0
BBX 3 6 0 -1
BITMAP
A0
40
E0
80
40
C0
ENDCHAR
STARTCHAR U+0162
ENCODING 354
SWIDTH 333 0
DWIDTH 4 0
BBX 5 9 0 -3
BITMAP
F8
20
20
20
20
20
20
20
40
ENDCHAR
STARTCHAR U+0163
ENCODING 355
SWIDTH 250 0
DWIDTH 3 0
BBX 4 8 -1 -3
BITMAP
20
70
20
20
20
10
40
80
ENDCHAR
STARTCHAR U+0164
ENCODING 356
SWIDTH 333 0
DWIDTH 4 0
BBX 3 6 0 -1
BITMAP
A0
40
00
E0
40
40
ENDCHAR
STARTCHAR U+0165
ENCODING 357
SWIDTH 250 0
DWIDTH 3 0
BBX 3 7 -1 -2
BITMAP
A0
40
00
40
60
40
20
ENDCHAR
STARTCHAR U+0168
ENCODING 360
SWIDTH 333 0
DWIDTH 4 0
BBX 4 6 0 -1
BITMAP
50
A0
00
A0
A0
C0
ENDCHAR
STARTCHAR U+0169
ENCODING 361
SWIDTH 333 0
DWIDTH 4 0
BBX 4 7 0 -2
BITMAP
50
A0
00
00
A0
A0
60
ENDCHAR
STARTCHAR U+016A
ENCODING 362
SWIDTH 333 0
DWIDTH 4 0
BBX 4 8 0 -2
BITMAP
F0
00
00
00
00
A0
A0
60
ENDCHAR
STARTCHAR U+016B
ENCODING 363
SWIDTH 333 0
DWIDTH 4 0
BBX 3 6 0 -2
BITMAP
E0
00
00
A0
A0
60
ENDCHAR
STARTCHAR U+016C
ENCODING 364
SWIDTH 416 0
DWIDTH 5 0
BBX 4 6 0 -1
BITMAP
A0
D0
90
90
90
60
ENDCHAR
STARTCHAR U+016D
ENCODING 365
SWIDTH 333 0
DWIDTH 4 0
BBX 4 6 0 -1
BITMAP
A0
D0
90
90
90
70
ENDCHAR
STARTCHAR U+016E
ENCODING 366
SWIDTH 333 0
DWIDTH 4 0
BBX 3 6 0 -1
BITMAP
E0
A0
00
A0
A0
C0
ENDCHAR
STARTCHAR U+016F
ENCODING 367
SWIDTH 333 0
DWIDTH 4 0
BBX 3 7 0 -2
BITMAP
E0
A0
00
00
A0
A0
60
ENDCHAR
STARTCHAR U+0170
ENCODING 368
SWIDTH 333 0
DWIDTH 4 0
BBX 4 7 0 -2
BITMAP
50
A0
00
00
A0
A0
60
ENDCHAR
STARTCHAR U+0171
ENCODING 369
SWIDTH 333 0
DWIDTH 4 0
BBX 4 7 0 -2
BITMAP
50
A0
00
00
A0
A0
60
ENDCHAR
STARTCHAR U+0172
ENCODING 370
SWIDTH 416 0
DWIDTH 5 0
BBX 4 9 0 -3
BITMAP
90
90
90
90
90
90
60
40
60
ENDCHAR
STARTCHAR U+0173
ENCODING 371
SWIDTH 333 0
DWIDTH 4 0
BBX 4 7 0 -3
BITMAP
90
90
90
90
70
40
60
ENDCHAR
STARTCHAR U+0174
ENCODING 372
SWIDTH 500 0
DWIDTH 6 0
BBX 5 7 0 -2
BITMAP
20
50
00
00
A8
A8
50
ENDCHAR
STARTCHAR U+0175
ENCODING 373
SWIDTH 500 0
DWIDTH 6 0
BBX 5 6 0 -1
BITMAP
50
A8
A8
A8
50
50
ENDCHAR
STARTCHAR U+0176
ENCODING 374
SWIDTH 333 0
DWIDTH 4 0
BBX 3 7 0 -2
BITMAP
A0
40
00
A0
A0
60
C0
ENDCHAR
STARTCHAR U+0177
ENCODING 375
SWIDTH 333 0
DWIDTH 4 0
BBX 3 7 0 -2
BITMAP
A0
40
00
A0
60
20
C0
ENDCHAR
STARTCHAR U+0178
ENCODING 376
SWIDTH 333 0
DWIDTH 4 0
BBX 3 6 0 -2
BITMAP
A0
00
A0
A0
60
C0
ENDCHAR
STARTCHAR U+0179
ENCODING 377
SWIDTH 333 0
DWIDTH 4 0
BBX 3 6 0 -1
BITMAP
20
40
E0
20
40
E0
ENDCHAR
STARTCHAR U+017A
ENCODING 378
SWIDTH 333 0
DWIDTH 4 0
BBX 4 6 0 -1
BITMAP
20
F0
10
60
80
F0
ENDCHAR
STARTCHAR U+017B
ENCODING 379
SWIDTH 333 0
DWIDTH 4 0
BBX 3 5 0 -1
BITMAP
40
E0
20
40
E0
ENDCHAR
STARTCHAR U+017C
ENCODING 380
SWIDTH 333 0
DWIDTH 4 0
BBX 4 5 0 -1
BITMAP
F0
10
60
80
F0
ENDCHAR
STARTCHAR U+017D
ENCODING 381
SWIDTH 333 0
DWIDTH 4 0
BBX 3 6 0 -1
BITMAP
A0
40
E0
20
40
E0
ENDCHAR
STARTCHAR U+017E
ENCODING 382
SWIDTH 333 0
DWIDTH 4 0
BBX 4 6 0 -1
BITMAP
A0
F0
10
60
80
F0
ENDCHAR
STARTCHAR U+0181
ENCODING 385
SWIDTH 416 0
DWIDTH 5 0
BBX 5 5 -1 -1
BITMAP
F0
48
70
48
70
ENDCHAR
STARTCHAR U+0186
ENCODING 390
SWIDTH 416 0
DWIDTH 5 0
BBX 4 5 0 -1
BITMAP
60
90
10
90
60
ENDCHAR
STARTCHAR U+0187
ENCODING 391
SWIDTH 416 0
DWIDTH 5 0
BBX 5 5 0 -1
BITMAP
68
90
80
90
60
ENDCHAR
STARTCHAR U+0188
ENCODING 392
SWIDTH 416 0
DWIDTH 5 0
BBX 4 5 0 -1
BITMAP
10
20
60
80
60
ENDCHAR
STARTCHAR U+0189
ENCODING 393
SWIDTH 416 0
DWIDTH 5 0
BBX 5 5 -1 -1
BITMAP
70
48
C8
50
60
ENDCHAR
STARTCHAR U+018A
ENCODING 394
SWIDTH 416 0
DWIDTH 5 0
BBX 5 5 -1 -1
BITMAP
F0
48
48
50
60
ENDCHAR
STARTCHAR U+018E
ENCODING 398
SWIDTH 333 0
DWIDTH 4 0
BBX 3 5 0 -1
BITMAP
E0
20
E0
20
E0
ENDCHAR
STARTCHAR U+018F
ENCODING 399
SWIDTH 333 0
DWIDTH 4 0
BBX 3 4 0 -1
BITMAP
C0
60
A0
C0
ENDCHAR
STARTCHAR U+0190
ENCODING 400
SWIDTH 416 0
DWIDTH 5 0
BBX 4 5 0 -1
BITMAP
70
80
60
80
70
ENDCHAR
STARTCHAR U+0191
ENCODING 401
SWIDTH 333 0
DWIDTH 4 0
BBX 4 6 -1 -2
BITMAP
70
40
70
40
40
80
ENDCHAR
STARTCHAR U+0192
ENCODING 402
SWIDTH 333 0
DWIDTH 4 0
BBX 3 8 0 -2
BITMAP
20
40
E0
40
40
40
40
80
ENDCHAR
STARTCHAR U+0193
ENCODING 403
SWIDTH 416 0
DWIDTH 5 0
BBX 5 6 0 -1
BITMAP
08
70
80
B0
90
60
ENDCHAR
STARTCHAR U+0194
ENCODING 404
SWIDTH 416 0
DWIDTH 5 0
BBX 5 6 0 -2
BITMAP
88
50
50
20
50
20
ENDCHAR
STARTCHAR U+0196
ENCODING 406
SWIDTH 166 0
DWIDTH 2 0
BBX 2 6 0 -2
BITMAP
80
80
80
80
80
40
ENDCHAR
STARTCHAR U+0197
ENCODING 407
SWIDTH 250 0
DWIDTH 3 0
BBX 3 5 0 -1
BITMAP
40
E0
40
40
40
ENDCHAR
STARTCHAR U+0198
ENCODING 408
SWIDTH 416 0
DWIDTH 5 0
BBX 5 5 0 -1
BITMAP
98
A0
C0
A0
90
ENDCHAR
STARTCHAR U+0199
ENCODING 409
SWIDTH 333 0
DWIDTH 4 0
BBX 3 6 0 -1
BITMAP
C0
80
A0
C0
A0
A0
ENDCHAR
STARTCHAR U+019D
ENCODING 413
SWIDTH 416 0
DWIDTH 5 0
BBX 4 6 0 -2
BITMAP
90
D0
B0
90
90
80
ENDCHAR
STARTCHAR U+01A4
ENCODING 420
SWIDTH 416 0
DWIDTH 5 0
BBX 5 5 0 -1
BITMAP
F0
48
70
40
40
ENDCHAR
STARTCHAR U+01A5
ENCODING 421
SWIDTH 333 0
DWIDTH 4 0
BBX 3 7 0 -2
BITMAP
40
80
C0
A0
A0
C0
80
ENDCHAR
STARTCHAR U+01A9
ENCODING 425
SWIDTH 416 0
DWIDTH 5 0
BBX 4 5 0 -1
BITMAP
F0
40
20
40
F0
ENDCHAR
STARTCHAR U+01AA
ENCODING 426
SWIDTH 666 0
DWIDTH 8 0
BBX 4 7 1 -2
BITMAP
40
A0
60
20
20
20
10
ENDCHAR
STARTCHAR U+01AC
ENCODING 428
SWIDTH 333 0
DWIDTH 4 0
BBX 4 5 -1 -1
BITMAP
70
A0
20
20
20
ENDCHAR
STARTCHAR U+01AD
ENCODING 429
SWIDTH 250 0
DWIDTH 3 0
BBX 2 6 0 -1
BITMAP
40
80
C0
80
80
40
ENDCHAR
STARTCHAR U+01AE
ENCODING 430
SWIDTH 333 0
DWIDTH 4 0
BBX 3 6 0 -2
BITMAP
E0
40
40
40
40
20
ENDCHAR
STARTCHAR U+01B1
ENCODING 433
SWIDTH 500 0
DWIDTH 6 0
BBX 5 5 0 -1
BITMAP
D8
50
88
88
70
ENDCHAR
STARTCHAR U+01B2
ENCODING 434
SWIDTH 416 0
DWIDTH 5 0
BBX 4 5 0 -1
BITMAP
A0
90
90
90
60
ENDCHAR
STARTCHAR U+01B3
ENCODING 435
SWIDTH 416 0
DWIDTH 5 0
BBX 4 5 1 -1
BITMAP
90
A0
40
40
40
ENDCHAR
STARTCHAR U+01B4
ENCODING 436
SWIDTH 416 0
DWIDTH 5 0
BBX 4 5 0 -2
BITMAP
10
A0
60
20
C0
ENDCHAR
STARTCHAR U+01B7
ENCODING 439
SWIDTH 416 0
DWIDTH 5 0
BBX 4 6 0 -2
BITMAP
F0
20
40
20
90
60
ENDCHAR
STARTCHAR U+01CD
ENCODING 461
SWIDTH 333 0
DWIDTH 4 0
BBX 4 6 0 -1
BITMAP
50
20
20
50
F0
90
ENDCHAR
STARTCHAR U+01CE
ENCODING 462
SWIDTH 333 0
DWIDTH 4 0
BBX 3 6 0 -1
BITMAP
A0
40
60
A0
A0
60
ENDCHAR
STARTCHAR U+01CF
ENCODING 463
SWIDTH 166 0
DWIDTH 2 0
BBX 3 6 -1 -1
BITMAP
A0
40
00
40
40
40
ENDCHAR
STARTCHAR U+01D0
ENCODING 464
SWIDTH 333 0
DWIDTH 4 0
BBX 3 6 0 -1
BITMAP
A0
40
00
40
40
40
ENDCHAR
STARTCHAR U+01D1
ENCODING 465
SWIDTH 333 0
DWIDTH 4 0
BBX 4 6 0 -1
BITMAP
A0
60
90
90
90
60
ENDCHAR
STARTCHAR U+01D2
ENCODING 466
SWIDTH 333 0
DWIDTH 4 0
BBX 3 6 0 -1
BITMAP
A0
40
00
60
A0
C0
ENDCHAR
STARTCHAR U+01D3
ENCODING 467
SWIDTH 333 0
DWIDTH 4 0
BBX 4 6 0 -1
BITMAP
A0
D0
90
90
90
70
ENDCHAR
STARTCHAR U+01D4
ENCODING 468
SWIDTH 333 0
DWIDTH 4 0
BBX 3 7 0 -2
BITMAP
A0
40
00
00
A0
A0
60
ENDCHAR
STARTCHAR U+01D5
ENCODING 469
SWIDTH 333 0
DWIDTH 4 0
BBX 3 6 0 -1
BITMAP
E0
00
A0
A0
A0
60
ENDCHAR
STARTCHAR U+01D6
ENCODING 470
SWIDTH 333 0
DWIDTH 4 0
BBX 3 7 0 -2
BITMAP
E0
A0
00
00
A0
A0
60
ENDCHAR
STARTCHAR U+01D7
ENCODING 471
SWIDTH 333 0
DWIDTH 4 0
BBX 3 6 0 -1
BITMAP
A0
40
A0
A0
A0
60
ENDCHAR
STARTCHAR U+01D8
ENCODING 472
SWIDTH 333 0
DWIDTH 4 0
BBX 3 6 0 -1
BITMAP
A0
40
00
A0
A0
60
ENDCHAR
STARTCHAR U+01D9
ENCODING 473
SWIDTH 333 0
DWIDTH 4 0
BBX 3 6 0 -1
BITMAP
A0
40
A0
A0
A0
60
ENDCHAR
STARTCHAR U+01DA
ENCODING 474
SWIDTH 333 0
DWIDTH 4 0
BBX 3 6 0 -1
BITMAP
A0
40
00
A0
A0
60
ENDCHAR
STARTCHAR U+01DB
ENCODING 475
SWIDTH 333 0
DWIDTH 4 0
BBX 3 6 0 -1
BITMAP
A0
40
A0
A0
A0
60
ENDCHAR
STARTCHAR U+01DC
ENCODING 476
SWIDTH 333 0
DWIDTH 4 0
BBX 3 6 0 -1
BITMAP
40
A0
00
A0
A0
60
ENDCHAR
STARTCHAR U+01DD
ENCODING 477
SWIDTH 333 0
DWIDTH 4 0
BBX 3 4 0 -1
BITMAP
C0
60
A0
C0
ENDCHAR
STARTCHAR U+01DE
ENCODING 478
SWIDTH 416 0
DWIDTH 5 0
BBX 4 6 0 -1
BITMAP
70
50
20
50
F0
90
ENDCHAR
STARTCHAR U+01DF
ENCODING 479
SWIDTH 333 0
DWIDTH 4 0
BBX 4 6 -1 -1
BITMAP
E0
00
50
30
50
30
ENDCHAR
STARTCHAR U+01E2
ENCODING 482
SWIDTH 583 0
DWIDTH 7 0
BBX 6 6 0 -1
BITMAP
38
00
3C
50
FC
9C
ENDCHAR
STARTCHAR U+01E3
ENCODING 483
SWIDTH 583 0
DWIDTH 7 0
BBX 5 6 0 -1
BITMAP
38
D0
28
78
A0
58
ENDCHAR
STARTCHAR U+01E6
ENCODING 486
SWIDTH 416 0
DWIDTH 5 0
BBX 4 6 0 -1
BITMAP
A0
70
80
B0
90
60
ENDCHAR
STARTCHAR U+01E7
ENCODING 487
SWIDTH 333 0
DWIDTH 4 0
BBX 4 7 0 -2
BITMAP
A0
70
90
90
70
10
E0
ENDCHAR
STARTCHAR U+01FE
ENCODING 510
SWIDTH 333 0
DWIDTH 4 0
BBX 3 6 0 -1
BITMAP
20
C0
A0
A0
60
80
ENDCHAR
STARTCHAR U+01FF
ENCODING 511
SWIDTH 333 0
DWIDTH 4 0
BBX 3 7 0 -2
BITMAP
20
60
40
A0
A0
40
80
ENDCHAR
STARTCHAR U+0218
ENCODING 536
SWIDTH 416 0
DWIDTH 5 0
BBX 4 9 0 -3
BITMAP
70
80
80
60
10
10
E0
40
80
ENDCHAR
STARTCHAR U+0219
ENCODING 537
SWIDTH 333 0
DWIDTH 4 0
BBX 4 7 0 -3
BITMAP
70
80
60
10
E0
40
80
ENDCHAR
STARTCHAR U+021A
ENCODING 538
SWIDTH 333 0
DWIDTH 4 0
BBX 5 9 0 -3
BITMAP
F8
20
20
20
20
20
20
40
80
ENDCHAR
STARTCHAR U+021B
ENCODING 539
SWIDTH 250 0
DWIDTH 3 0
BBX 4 8 -1 -3
BITMAP
20
70
20
20
20
10
40
80
ENDCHAR
STARTCHAR U+0228
ENCODING 552
SWIDTH 333 0
DWIDTH 4 0
BBX 3 9 0 -3
BITMAP
E0
80
80
E0
80
80
E0
20
40
ENDCHAR
STARTCHAR U+0229
ENCODING 553
SWIDTH 333 0
DWIDTH 4 0
BBX 4 7 0 -3
BITMAP
60
90
F0
80
70
20
40
ENDCHAR
STARTCHAR U+022A
ENCODING 554
SWIDTH 333 0
DWIDTH 4 0
BBX 3 6 0 -1
BITMAP
E0
00
40
A0
A0
40
ENDCHAR
STARTCHAR U+022B
ENCODING 555
SWIDTH 333 0
DWIDTH 4 0
BBX 3 6 0 -1
BITMAP
E0
A0
00
60
A0
C0
ENDCHAR
STARTCHAR U+0232
ENCODING 562
SWIDTH 333 0
DWIDTH 4 0
BBX 3 6 0 -2
BITMAP
E0
00
A0
A0
60
C0
ENDCHAR
STARTCHAR U+0233
ENCODING 563
SWIDTH 333 0
DWIDTH 4 0
BBX 3 6 0 -2
BITMAP
E0
00
A0
60
20
C0
ENDCHAR
STARTCHAR U+0237
ENCODING 567
SWIDTH 416 0
DWIDTH 5 0
BBX 3 5 0 -2
BITMAP
20
20
20
A0
40
ENDCHAR
STARTCHAR U+0242
ENCODING 578
SWIDTH 416 0
DWIDTH 5 0
BBX 3 5 1 -1
BITMAP
40
A0
20
40
40
ENDCHAR
STARTCHAR U+0243
ENCODING 579
SWIDTH 416 0
DWIDTH 5 0
BBX 5 5 -1 -1
BITMAP
70
48
70
C8
70
ENDCHAR
STARTCHAR U+0244
ENCODING 580
SWIDTH 500 0
DWIDTH 6 0
BBX 6 5 0 -1
BITMAP
48
FC
48
48
30
ENDCHAR
STARTCHAR U+0245
ENCODING 581
SWIDTH 416 0
DWIDTH 5 0
BBX 5 5 0 -1
BITMAP
20
50
50
88
88
ENDCHAR
STARTCHAR U+024B
ENCODING 587
SWIDTH 333 0
DWIDTH 4 0
BBX 4 6 0 -3
BITMAP
60
A0
A0
60
20
10
ENDCHAR
STARTCHAR U+024C
ENCODING 588
SWIDTH 416 0
DWIDTH 5 0
BBX 5 5 -1 -1
BITMAP
70
48
F0
50
48
ENDCHAR
STARTCHAR U+0251
ENCODING 593
SWIDTH 333 0
DWIDTH 4 0
BBX 3 3 0 -1
BITMAP
60
A0
60
ENDCHAR
STARTCHAR U+0253
ENCODING 595
SWIDTH 333 0
DWIDTH 4 0
BBX 3 6 0 -1
BITMAP
40
80
80
C0
A0
C0
ENDCHAR
STARTCHAR U+0254
ENCODING 596
SWIDTH 333 0
DWIDTH 4 0
BBX 3 4 0 -1
BITMAP
C0
20
20
C0
ENDCHAR
STARTCHAR U+0256
ENCODING 598
SWIDTH 416 0
DWIDTH 5 0
BBX 4 6 0 -2
BITMAP
20
20
60
A0
60
10
ENDCHAR
STARTCHAR U+0257
ENCODING 599
SWIDTH 416 0
DWIDTH 5 0
BBX 4 5 0 -1
BITMAP
10
20
60
A0
60
ENDCHAR
STARTCHAR U+0259
ENCODING 601
SWIDTH 333 0
DWIDTH 4 0
BBX 3 4 0 -1
BITMAP
C0
60
A0
C0
ENDCHAR
STARTCHAR U+025B
ENCODING 603
SWIDTH 333 0
DWIDTH 4 0
BBX 3 4 0 -1
BITMAP
60
80
C0
60
ENDCHAR
STARTCHAR U+0260
ENCODING 608
SWIDTH 333 0
DWIDTH 4 0
BBX 4 7 0 -2
BITMAP
10
20
60
A0
60
20
C0
ENDCHAR
STARTCHAR U+0263
ENCODING 611
SWIDTH 333 0
DWIDTH 4 0
BBX 3 5 0 -2
BITMAP
A0
A0
40
A0
40
ENDCHAR
STARTCHAR U+0266
ENCODING 614
SWIDTH 333 0
DWIDTH 4 0
BBX 4 7 0 -1
BITMAP
80
80
E0
90
90
90
90
ENDCHAR
STARTCHAR U+0268
ENCODING 616
SWIDTH 250 0
DWIDTH 3 0
BBX 3 6 0 -1
BITMAP
40
00
40
E0
40
40
ENDCHAR
STARTCHAR U+0269
ENCODING 617
SWIDTH 166 0
DWIDTH 2 0
BBX 2 4 0 -1
BITMAP
80
80
80
40
ENDCHAR
STARTCHAR U+0272
ENCODING 626
SWIDTH 333 0
DWIDTH 4 0
BBX 3 5 0 -2
BITMAP
C0
A0
A0
A0
80
ENDCHAR
STARTCHAR U+0274
ENCODING 628
SWIDTH 416 0
DWIDTH 5 0
BBX 4 3 0 -1
BITMAP
D0
B0
90
ENDCHAR
STARTCHAR U+0277
ENCODING 631
SWIDTH 500 0
DWIDTH 6 0
BBX 5 4 0 -1
BITMAP
70
88
A8
50
ENDCHAR
STARTCHAR U+027D
ENCODING 637
SWIDTH 250 0
DWIDTH 3 0
BBX 2 5 0 -2
BITMAP
40
80
80
80
40
ENDCHAR
STARTCHAR U+027E
ENCODING 638
SWIDTH 250 0
DWIDTH 3 0
BBX 3 5 0 -1
BITMAP
A0
C0
80
80
80
ENDCHAR
STARTCHAR U+0280
ENCODING 640
SWIDTH 416 0
DWIDTH 5 0
BBX 4 4 0 -1
BITMAP
E0
90
E0
90
ENDCHAR
STARTCHAR U+0283
ENCODING 643
SWIDTH 666 0
DWIDTH 8 0
BBX 3 7 2 -2
BITMAP
20
40
40
40
40
40
80
ENDCHAR
STARTCHAR U+0285
ENCODING 645
SWIDTH 666 0
DWIDTH 8 0
BBX 3 4 2 -2
BITMAP
C0
40
40
60
ENDCHAR
STARTCHAR U+0288
ENCODING 648
SWIDTH 250 0
DWIDTH 3 0
BBX 2 6 0 -2
BITMAP
80
C0
80
80
80
40
ENDCHAR
STARTCHAR U+0289
ENCODING 649
SWIDTH 333 0
DWIDTH 4 0
BBX 5 4 -1 -1
BITMAP
50
F8
50
30
ENDCHAR
STARTCHAR U+028A
ENCODING 650
SWIDTH 500 0
DWIDTH 6 0
BBX 5 4 0 -1
BITMAP
D8
50
88
70
ENDCHAR
STARTCHAR U+028B
ENCODING 651
SWIDTH 416 0
DWIDTH 5 0
BBX 4 4 0 -1
BITMAP
A0
90
90
60
ENDCHAR
STARTCHAR U+028C
ENCODING 652
SWIDTH 333 0
DWIDTH 4 0
BBX 3 4 0 -1
BITMAP
40
A0
A0
A0
ENDCHAR
STARTCHAR U+028F
ENCODING 655
SWIDTH 333 0
DWIDTH 4 0
BBX 3 4 0 -2
BITMAP
A0
A0
60
C0
ENDCHAR
STARTCHAR U+0292
ENCODING 658
SWIDTH 333 0
DWIDTH 4 0
BBX 3 6 0 -2
BITMAP
E0
20
40
20
A0
40
ENDCHAR
STARTCHAR U+0294
ENCODING 660
SWIDTH 666 0
DWIDTH 8 0
BBX 3 7 2 -2
BITMAP
40
A0
20
20
40
40
E0
ENDCHAR
STARTCHAR U+0295
ENCODING 661
SWIDTH 666 0
DWIDTH 8 0
BBX 3 7 2 -2
BITMAP
40
A0
80
80
40
40
E0
ENDCHAR
STARTCHAR U+0296
ENCODING 662
SWIDTH 666 0
DWIDTH 8 0
BBX 3 7 2 -2
BITMAP
E0
40
40
20
20
A0
40
ENDCHAR
STARTCHAR U+0298
ENCODING 664
SWIDTH 666 0
DWIDTH 8 0
BBX 5 7 1 -2
BITMAP
70
88
88
A8
88
88
70
ENDCHAR
STARTCHAR U+029A
ENCODING 666
SWIDTH 666 0
DWIDTH 8 0
BBX 4 5 1 -1
BITMAP
60
90
50
90
60
ENDCHAR
STARTCHAR U+029F
ENCODING 671
SWIDTH 250 0
DWIDTH 3 0
BBX 2 3 0 -1
BITMAP
80
80
C0
ENDCHAR
STARTCHAR U+02BC
ENCODING 700
SWIDTH 416 0
DWIDTH 5 0
BBX 2 2 1 3
BITMAP
40
80
ENDCHAR
STARTCHAR U+02BD
ENCODING 701
SWIDTH 416 0
DWIDTH 5 0
BBX 2 2 1 3
BITMAP
C0
80
ENDCHAR
STARTCHAR U+02BE
ENCODING 702
SWIDTH 416 0
DWIDTH 5 0
BBX 2 3 0 2
BITMAP
80
40
80
ENDCHAR
STARTCHAR U+02BF
ENCODING 703
SWIDTH 416 0
DWIDTH 5 0
BBX 2 3 0 2
BITMAP
40
80
40
ENDCHAR
STARTCHAR U+02C2
ENCODING 706
SWIDTH 666 0
DWIDTH 8 0
BBX 5 5 1 0
BITMAP
18
60
80
60
18
ENDCHAR
STARTCHAR U+02C3
ENCODING 707
SWIDTH 666 0
DWIDTH 8 0
BBX 5 5 1 0
BITMAP
C0
30
08
30
C0
ENDCHAR
STARTCHAR U+02C6
ENCODING 710
SWIDTH 333 0
DWIDTH 4 0
BBX 3 2 0 3
BITMAP
A0
40
ENDCHAR
STARTCHAR U+02C7
ENCODING 711
SWIDTH 250 0
DWIDTH 3 0
BBX 3 2 0 3
BITMAP
A0
40
ENDCHAR
STARTCHAR U+02C9
ENCODING 713
SWIDTH 666 0
DWIDTH 8 0
BBX 3 1 2 2
BITMAP
E0
ENDCHAR
STARTCHAR U+02CA
ENCODING 714
SWIDTH 666 0
DWIDTH 8 0
BBX 3 3 2 0
BITMAP
20
40
80
ENDCHAR
STARTCHAR U+02CB
ENCODING 715
SWIDTH 666 0
DWIDTH 8 0
BBX 3 3 2 0
BITMAP
80
40
20
ENDCHAR
STARTCHAR U+02CD
ENCODING 717
SWIDTH 666 0
DWIDTH 8 0
BBX 3 1 2 0
BITMAP
E0
ENDCHAR
STARTCHAR U+02D8
ENCODING 728
SWIDTH 666 0
DWIDTH 8 0
BBX 5 2 1 3
BITMAP
88
70
ENDCHAR
STARTCHAR U+02D9
ENCODING 729
SWIDTH 666 0
DWIDTH 8 0
BBX 3 3 2 0
BITMAP
40
E0
40
ENDCHAR
STARTCHAR U+02DA
ENCODING 730
SWIDTH 416 0
DWIDTH 5 0
BBX 3 2 1 3
BITMAP
E0
A0
ENDCHAR
STARTCHAR U+02DB
ENCODING 731
SWIDTH 416 0
DWIDTH 5 0
BBX 2 2 1 -3
BITMAP
80
C0
ENDCHAR
STARTCHAR U+02DC
ENCODING 732
SWIDTH 333 0
DWIDTH 4 0
BBX 7 7 0 -2
BITMAP
10
28
28
44
7C
82
82
ENDCHAR
STARTCHAR U+02DD
ENCODING 733
SWIDTH 416 0
DWIDTH 5 0
BBX 4 2 0 3
BITMAP
50
A0
ENDCHAR
STARTCHAR U+02EA
ENCODING 746
SWIDTH 666 0
DWIDTH 8 0
BBX 3 3 2 -1
BITMAP
80
80
E0
ENDCHAR
STARTCHAR U+02EB
ENCODING 747
SWIDTH 666 0
DWIDTH 8 0
BBX 4 7 1 -2
BITMAP
20
80
30
50
90
50
30
ENDCHAR
STARTCHAR U+0300
ENCODING 768
SWIDTH 0 0
DWIDTH 0 0
BBX 2 2 1 3
BITMAP
80
40
ENDCHAR
STARTCHAR U+0301
ENCODING 769
SWIDTH 0 0
DWIDTH 0 0
BBX 2 2 1 3
BITMAP
40
80
ENDCHAR
STARTCHAR U+0302
ENCODING 770
SWIDTH 0 0
DWIDTH 0 0
BBX 3 2 0 3
BITMAP
40
A0
ENDCHAR
STARTCHAR U+0303
ENCODING 771
SWIDTH 0 0
DWIDTH 0 0
BBX 4 2 0 3
BITMAP
50
A0
ENDCHAR
STARTCHAR U+0304
ENCODING 772
SWIDTH 0 0
DWIDTH 0 0
BBX 3 1 0 4
BITMAP
E0
ENDCHAR
STARTCHAR U+0306
ENCODING 774
SWIDTH 0 0
DWIDTH 0 0
BBX 3 2 0 3
BITMAP
A0
40
ENDCHAR
STARTCHAR U+0307
ENCODING 775
SWIDTH 0 0
DWIDTH 0 0
BBX 1 1 1 3
BITMAP
80
ENDCHAR
STARTCHAR U+0308
ENCODING 776
SWIDTH 0 0
DWIDTH 0 0
BBX 3 1 0 4
BITMAP
A0
ENDCHAR
STARTCHAR U+030A
ENCODING 778
SWIDTH 0 0
DWIDTH 0 0
BBX 3 2 1 3
BITMAP
E0
A0
ENDCHAR
STARTCHAR U+030B
ENCODING 779
SWIDTH 0 0
DWIDTH 0 0
BBX 4 2 0 3
BITMAP
50
A0
ENDCHAR
STARTCHAR U+030C
ENCODING 780
SWIDTH 0 0
DWIDTH 0 0
BBX 3 2 0 3
BITMAP
A0
40
ENDCHAR
STARTCHAR U+0310
ENCODING 784
SWIDTH 0 0
DWIDTH 0 0
BBX 3 2 0 3
BITMAP
40
A0
ENDCHAR
STARTCHAR U+0312
ENCODING 786
SWIDTH 0 0
DWIDTH 0 0
BBX 2 2 0 3
BITMAP
80
C0
ENDCHAR
STARTCHAR U+0323
ENCODING 803
SWIDTH 0 0
DWIDTH 0 0
BBX 1 1 1 -3
BITMAP
80
ENDCHAR
STARTCHAR U+0324
ENCODING 804
SWIDTH 0 0
DWIDTH 0 0
BBX 3 1 0 -3
BITMAP
A0
ENDCHAR
STARTCHAR U+0325
ENCODING 805
SWIDTH 0 0
DWIDTH 0 0
BBX 2 2 0 -3
BITMAP
C0
C0
ENDCHAR
STARTCHAR U+0326
ENCODING 806
SWIDTH 0 0
DWIDTH 0 0
BBX 2 2 0 -3
BITMAP
40
80
ENDCHAR
STARTCHAR U+0327
ENCODING 807
SWIDTH 0 0
DWIDTH 0 0
BBX 2 2 1 -3
BITMAP
40
80
ENDCHAR
STARTCHAR U+0328
ENCODING 808
SWIDTH 0 0
DWIDTH 0 0
BBX 2 2 1 -3
BITMAP
80
C0
ENDCHAR
STARTCHAR U+032E
ENCODING 814
SWIDTH 0 0
DWIDTH 0 0
BBX 4 2 0 -3
BITMAP
90
60
ENDCHAR
STARTCHAR U+0331
ENCODING 817
SWIDTH 0 0
DWIDTH 0 0
BBX 3 1 0 -3
BITMAP
E0
ENDCHAR
STARTCHAR U+035F
ENCODING 863
SWIDTH 0 0
DWIDTH 0 0
BBX 5 1 0 -3
BITMAP
F8
ENDCHAR
STARTCHAR U+0384
ENCODING 900
SWIDTH 666 0
DWIDTH 8 0
BBX 2 2 3 3
BITMAP
40
80
ENDCHAR
STARTCHAR U+0391
ENCODING 913
SWIDTH 666 0
DWIDTH 8 0
BBX 7 7 1 -2
BITMAP
10
28
28
44
7C
82
82
ENDCHAR
STARTCHAR U+0392
ENCODING 914
SWIDTH 583 0
DWIDTH 7 0
BBX 6 7 1 -2
BITMAP
F8
84
84
F8
84
84
F8
ENDCHAR
STARTCHAR U+0393
ENCODING 915
SWIDTH 583 0
DWIDTH 7 0
BBX 6 7 1 -2
BITMAP
FC
80
80
80
80
80
80
ENDCHAR
STARTCHAR U+0394
ENCODING 916
SWIDTH 666 0
DWIDTH 8 0
BBX 7 7 1 -2
BITMAP
10
28
28
44
44
82
FE
ENDCHAR
STARTCHAR U+0395
ENCODING 917
SWIDTH 583 0
DWIDTH 7 0
BBX 6 7 1 -2
BITMAP
FC
80
80
F8
80
80
FC
ENDCHAR
STARTCHAR U+0396
ENCODING 918
SWIDTH 583 0
DWIDTH 7 0
BBX 6 7 1 -2
BITMAP
FC
04
08
10
20
40
FC
ENDCHAR
STARTCHAR U+0397
ENCODING 919
SWIDTH 583 0
DWIDTH 7 0
BBX 6 7 1 -2
BITMAP
84
84
84
FC
84
84
84
ENDCHAR
STARTCHAR U+0398
ENCODING 920
SWIDTH 666 0
DWIDTH 8 0
BBX 7 7 1 -2
BITMAP
38
44
82
BA
82
44
38
ENDCHAR
STARTCHAR U+0399
ENCODING 921
SWIDTH 333 0
DWIDTH 4 0
BBX 3 7 1 -2
BITMAP
E0
40
40
40
40
40
E0
ENDCHAR
STARTCHAR U+039A
ENCODING 922
SWIDTH 583 0
DWIDTH 7 0
BBX 6 7 1 -2
BITMAP
84
88
90
A0
D0
88
84
ENDCHAR
STARTCHAR U+039B
ENCODING 923
SWIDTH 666 0
DWIDTH 8 0
BBX 7 7 1 -2
BITMAP
10
28
28
44
44
82
82
ENDCHAR
STARTCHAR U+039C
ENCODING 924
SWIDTH 666 0
DWIDTH 8 0
BBX 7 7 1 -2
BITMAP
82
C6
AA
AA
92
92
82
ENDCHAR
STARTCHAR U+039D
ENCODING 925
SWIDTH 583 0
DWIDTH 7 0
BBX 6 7 1 -2
BITMAP
84
C4
A4
94
8C
84
84
ENDCHAR
STARTCHAR U+039E
ENCODING 926
SWIDTH 583 0
DWIDTH 7 0
BBX 6 7 1 -2
BITMAP
FC
00
00
78
00
00
FC
ENDCHAR
STARTCHAR U+039F
ENCODING 927
SWIDTH 583 0
DWIDTH 7 0
BBX 6 7 1 -2
BITMAP
78
84
84
84
84
84
78
ENDCHAR
STARTCHAR U+03A0
ENCODING 928
SWIDTH 583 0
DWIDTH 7 0
BBX 6 7 1 -2
BITMAP
FC
84
84
84
84
84
84
ENDCHAR
STARTCHAR U+03A1
ENCODING 929
SWIDTH 583 0
DWIDTH 7 0
BBX 6 7 1 -2
BITMAP
F8
84
84
F8
80
80
80
ENDCHAR
STARTCHAR U+03A3
ENCODING 931
SWIDTH 583 0
DWIDTH 7 0
BBX 6 7 1 -2
BITMAP
FC
40
20
10
20
40
FC
ENDCHAR
STARTCHAR U+03A4
ENCODING 932
SWIDTH 666 0
DWIDTH 8 0
BBX 7 7 1 -2
BITMAP
FE
10
10
10
10
10
10
ENDCHAR
STARTCHAR U+03A5
ENCODING 933
SWIDTH 666 0
DWIDTH 8 0
BBX 7 7 1 -2
BITMAP
82
44
28
10
10
10
10
ENDCHAR
STARTCHAR U+03A6
ENCODING 934
SWIDTH 666 0
DWIDTH 8 0
BBX 7 7 1 -2
BITMAP
10
7C
92
92
92
7C
10
ENDCHAR
STARTCHAR U+03A7
ENCODING 935
SWIDTH 666 0
DWIDTH 8 0
BBX 7 7 1 -2
BITMAP
82
44
28
10
28
44
82
ENDCHAR
STARTCHAR U+03A8
ENCODING 936
SWIDTH 666 0
DWIDTH 8 0
BBX 7 7 1 -2
BITMAP
92
54
54
38
10
10
10
ENDCHAR
STARTCHAR U+03A9
ENCODING 937
SWIDTH 666 0
DWIDTH 8 0
BBX 7 7 1 -2
BITMAP
38
44
82
82
44
28
EE
ENDCHAR
STARTCHAR U+03AC
ENCODING 940
SWIDTH 500 0
DWIDTH 6 0
BBX 6 8 0 -2
BITMAP
10
20
40
34
48
90
94
68
ENDCHAR
STARTCHAR U+03AD
ENCODING 941
SWIDTH 416 0
DWIDTH 5 0
BBX 5 8 0 -2
BITMAP
10
20
40
30
48
60
88
70
ENDCHAR
STARTCHAR U+03AE
ENCODING 942
SWIDTH 500 0
DWIDTH 6 0
BBX 6 8 0 -2
BITMAP
04
08
10
58
A4
24
48
08
ENDCHAR
STARTCHAR U+03AF
ENCODING 943
SWIDTH 250 0
DWIDTH 3 0
BBX 3 8 0 -2
BITMAP
20
40
80
40
40
80
A0
40
ENDCHAR
STARTCHAR U+03B0
ENCODING 944
SWIDTH 500 0
DWIDTH 6 0
BBX 6 8 0 -2
BITMAP
08
34
00
64
A4
44
48
30
ENDCHAR
STARTCHAR U+03B1
ENCODING 945
SWIDTH 500 0
DWIDTH 6 0
BBX 6 5 0 -2
BITMAP
34
48
90
94
68
ENDCHAR
STARTCHAR U+03B2
ENCODING 946
SWIDTH 500 0
DWIDTH 6 0
BBX 6 7 0 -2
BITMAP
18
24
58
44
64
98
80
ENDCHAR
STARTCHAR U+03B3
ENCODING 947
SWIDTH 416 0
DWIDTH 5 0
BBX 5 5 0 -2
BITMAP
C8
30
20
60
40
ENDCHAR
STARTCHAR U+03B4
ENCODING 948
SWIDTH 416 0
DWIDTH 5 0
BBX 5 7 0 -2
BITMAP
30
48
20
50
90
90
60
ENDCHAR
STARTCHAR U+03B5
ENCODING 949
SWIDTH 416 0
DWIDTH 5 0
BBX 5 5 0 -2
BITMAP
30
48
60
88
70
ENDCHAR
STARTCHAR U+03B6
ENCODING 950
SWIDTH 333 0
DWIDTH 4 0
BBX 4 7 0 -2
BITMAP
B0
40
80
80
60
10
60
ENDCHAR
STARTCHAR U+03B7
ENCODING 951
SWIDTH 500 0
DWIDTH 6 0
BBX 6 5 0 -2
BITMAP
58
A4
24
48
08
ENDCHAR
STARTCHAR U+03B8
ENCODING 952
SWIDTH 416 0
DWIDTH 5 0
BBX 5 7 0 -2
BITMAP
30
48
48
F8
90
90
60
ENDCHAR
STARTCHAR U+03B9
ENCODING 953
SWIDTH 250 0
DWIDTH 3 0
BBX 3 5 0 -2
BITMAP
40
40
80
A0
40
ENDCHAR
STARTCHAR U+03BA
ENCODING 954
SWIDTH 416 0
DWIDTH 5 0
BBX 5 5 0 -2
BITMAP
48
50
60
A0
98
ENDCHAR
STARTCHAR U+03BB
ENCODING 955
SWIDTH 416 0
DWIDTH 5 0
BBX 5 7 0 -2
BITMAP
20
10
10
30
50
50
88
ENDCHAR
STARTCHAR U+03BC
ENCODING 956
SWIDTH 500 0
DWIDTH 6 0
BBX 6 5 0 -2
BITMAP
24
24
48
74
80
ENDCHAR
STARTCHAR U+03BD
ENCODING 957
SWIDTH 416 0
DWIDTH 5 0
BBX 5 5 0 -2
BITMAP
88
48
50
60
40
ENDCHAR
STARTCHAR U+03BE
ENCODING 958
SWIDTH 416 0
DWIDTH 5 0
BBX 5 7 0 -2
BITMAP
38
40
78
80
70
08
30
ENDCHAR
STARTCHAR U+03BF
ENCODING 959
SWIDTH 416 0
DWIDTH 5 0
BBX 5 5 0 -2
BITMAP
30
48
88
90
60
ENDCHAR
STARTCHAR U+03C0
ENCODING 960
SWIDTH 500 0
DWIDTH 6 0
BBX 6 5 0 -2
BITMAP
7C
A8
28
48
8C
ENDCHAR
STARTCHAR U+03C1
ENCODING 961
SWIDTH 500 0
DWIDTH 6 0
BBX 6 5 0 -2
BITMAP
38
44
44
B8
80
ENDCHAR
STARTCHAR U+03C2
ENCODING 962
SWIDTH 500 0
DWIDTH 6 0
BBX 4 5 1 -2
BITMAP
70
80
F0
10
20
ENDCHAR
STARTCHAR U+03C3
ENCODING 963
SWIDTH 500 0
DWIDTH 6 0
BBX 6 5 0 -2
BITMAP
3C
48
88
90
60
ENDCHAR
STARTCHAR U+03C4
ENCODING 964
SWIDTH 500 0
DWIDTH 6 0
BBX 6 5 0 -2
BITMAP
7C
90
20
28
10
ENDCHAR
STARTCHAR U+03C5
ENCODING 965
SWIDTH 500 0
DWIDTH 6 0
BBX 6 5 0 -2
BITMAP
64
A4
44
48
30
ENDCHAR
STARTCHAR U+03C6
ENCODING 966
SWIDTH 500 0
DWIDTH 6 0
BBX 6 7 0 -2
BITMAP
08
08
78
94
94
78
20
ENDCHAR
STARTCHAR U+03C7
ENCODING 967
SWIDTH 416 0
DWIDTH 5 0
BBX 5 5 0 -2
BITMAP
68
10
20
60
98
ENDCHAR
STARTCHAR U+03C8
ENCODING 968
SWIDTH 500 0
DWIDTH 6 0
BBX 6 7 0 -2
BITMAP
08
08
D0
54
94
78
20
ENDCHAR
STARTCHAR U+03C9
ENCODING 969
SWIDTH 500 0
DWIDTH 6 0
BBX 6 5 0 -2
BITMAP
44
94
94
B4
48
ENDCHAR
STARTCHAR U+03CA
ENCODING 970
SWIDTH 250 0
DWIDTH 3 0
BBX 3 7 0 -2
BITMAP
A0
00
40
40
80
A0
40
ENDCHAR
STARTCHAR U+03CB
ENCODING 971
SWIDTH 500 0
DWIDTH 6 0
BBX 6 7 0 -2
BITMAP
14
00
64
A4
44
48
30
ENDCHAR
STARTCHAR U+03CC
ENCODING 972
SWIDTH 416 0
DWIDTH 5 0
BBX 5 8 0 -2
BITMAP
10
20
40
30
48
88
90
60
ENDCHAR
STARTCHAR U+03CD
ENCODING 973
SWIDTH 500 0
DWIDTH 6 0
BBX 6 8 0 -2
BITMAP
04
08
10
64
A4
44
48
30
ENDCHAR
STARTCHAR U+03CE
ENCODING 974
SWIDTH 500 0
DWIDTH 6 0
BBX 6 8 0 -2
BITMAP
04
08
10
44
94
94
B4
48
ENDCHAR
STARTCHAR U+0401
ENCODING 1025
SWIDTH 583 0
DWIDTH 7 0
BBX 6 7 0 -2
BITMAP
48
FC
80
F8
80
80
FC
ENDCHAR
STARTCHAR U+0404
ENCODING 1028
SWIDTH 583 0
DWIDTH 7 0
BBX 6 7 0 -2
BITMAP
78
84
80
F0
80
84
78
ENDCHAR
STARTCHAR U+0406
ENCODING 1030
SWIDTH 333 0
DWIDTH 4 0
BBX 3 6 0 -2
BITMAP
E0
40
40
40
40
E0
ENDCHAR
STARTCHAR U+0407
ENCODING 1031
SWIDTH 333 0
DWIDTH 4 0
BBX 3 8 0 -2
BITMAP
A0
00
E0
40
40
40
40
E0
ENDCHAR
STARTCHAR U+0410
ENCODING 1040
SWIDTH 666 0
DWIDTH 8 0
BBX 7 7 0 -2
BITMAP
10
28
28
44
7C
82
82
ENDCHAR
STARTCHAR U+0411
ENCODING 1041
SWIDTH 583 0
DWIDTH 7 0
BBX 6 7 0 -2
BITMAP
FC
80
80
F8
84
84
F8
ENDCHAR
STARTCHAR U+0412
ENCODING 1042
SWIDTH 583 0
DWIDTH 7 0
BBX 6 7 0 -2
BITMAP
F8
84
84
F8
84
84
F8
ENDCHAR
STARTCHAR U+0413
ENCODING 1043
SWIDTH 583 0
DWIDTH 7 0
BBX 6 7 0 -2
BITMAP
FC
80
80
80
80
80
80
ENDCHAR
STARTCHAR U+0414
ENCODING 1044
SWIDTH 666 0
DWIDTH 8 0
BBX 7 7 0 -2
BITMAP
3C
24
24
24
44
FE
82
ENDCHAR
STARTCHAR U+0415
ENCODING 1045
SWIDTH 583 0
DWIDTH 7 0
BBX 6 7 0 -2
BITMAP
FC
80
80
F8
80
80
FC
ENDCHAR
STARTCHAR U+0416
ENCODING 1046
SWIDTH 666 0
DWIDTH 8 0
BBX 7 7 0 -2
BITMAP
92
54
54
38
54
54
92
ENDCHAR
STARTCHAR U+0417
ENCODING 1047
SWIDTH 583 0
DWIDTH 7 0
BBX 6 7 0 -2
BITMAP
78
84
04
38
04
84
78
ENDCHAR
STARTCHAR U+0418
ENCODING 1048
SWIDTH 583 0
DWIDTH 7 0
BBX 6 7 0 -2
BITMAP
84
84
8C
94
A4
C4
84
ENDCHAR
STARTCHAR U+0419
ENCODING 1049
SWIDTH 583 0
DWIDTH 7 0
BBX 6 7 0 -2
BITMAP
48
B4
8C
94
A4
C4
84
ENDCHAR
STARTCHAR U+041A
ENCODING 1050
SWIDTH 583 0
DWIDTH 7 0
BBX 6 7 0 -2
BITMAP
8C
90
90
E0
90
88
84
ENDCHAR
STARTCHAR U+041B
ENCODING 1051
SWIDTH 666 0
DWIDTH 8 0
BBX 7 7 0 -2
BITMAP
3E
22
22
22
22
22
C2
ENDCHAR
STARTCHAR U+041C
ENCODING 1052
SWIDTH 666 0
DWIDTH 8 0
BBX 7 7 0 -2
BITMAP
44
44
44
AA
AA
92
92
ENDCHAR
STARTCHAR U+041D
ENCODING 1053
SWIDTH 583 0
DWIDTH 7 0
BBX 6 7 0 -2
BITMAP
84
84
84
FC
84
84
84
ENDCHAR
STARTCHAR U+041E
ENCODING 1054
SWIDTH 583 0
DWIDTH 7 0
BBX 6 7 0 -2
BITMAP
78
84
84
84
84
84
78
ENDCHAR
STARTCHAR U+041F
ENCODING 1055
SWIDTH 583 0
DWIDTH 7 0
BBX 6 7 0 -2
BITMAP
FC
84
84
84
84
84
84
ENDCHAR
STARTCHAR U+0420
ENCODING 1056
SWIDTH 583 0
DWIDTH 7 0
BBX 6 7 0 -2
BITMAP
F8
84
84
F8
80
80
80
ENDCHAR
STARTCHAR U+0421
ENCODING 1057
SWIDTH 583 0
DWIDTH 7 0
BBX 6 7 0 -2
BITMAP
78
84
80
80
80
84
78
ENDCHAR
STARTCHAR U+0422
ENCODING 1058
SWIDTH 666 0
DWIDTH 8 0
BBX 7 7 0 -2
BITMAP
FE
10
10
10
10
10
10
ENDCHAR
STARTCHAR U+0423
ENCODING 1059
SWIDTH 583 0
DWIDTH 7 0
BBX 6 7 0 -2
BITMAP
84
48
48
30
10
20
C0
ENDCHAR
STARTCHAR U+0424
ENCODING 1060
SWIDTH 666 0
DWIDTH 8 0
BBX 7 7 0 -2
BITMAP
10
7C
92
92
92
7C
10
ENDCHAR
STARTCHAR U+0425
ENCODING 1061
SWIDTH 666 0
DWIDTH 8 0
BBX 7 7 0 -2
BITMAP
82
44
28
10
28
44
82
ENDCHAR
STARTCHAR U+0426
ENCODING 1062
SWIDTH 583 0
DWIDTH 7 0
BBX 6 7 0 -2
BITMAP
88
88
88
88
88
FC
04
ENDCHAR
STARTCHAR U+0427
ENCODING 1063
SWIDTH 583 0
DWIDTH 7 0
BBX 6 7 0 -2
BITMAP
84
84
84
84
7C
04
04
ENDCHAR
STARTCHAR U+0428
ENCODING 1064
SWIDTH 666 0
DWIDTH 8 0
BBX 7 7 0 -2
BITMAP
92
92
92
92
92
92
FE
ENDCHAR
STARTCHAR U+0429
ENCODING 1065
SWIDTH 666 0
DWIDTH 8 0
BBX 7 7 0 -2
BITMAP
92
92
92
92
92
FE
02
ENDCHAR
STARTCHAR U+042A
ENCODING 1066
SWIDTH 583 0
DWIDTH 7 0
BBX 6 7 0 -2
BITMAP
C0
40
40
78
44
44
78
ENDCHAR
STARTCHAR U+042B
ENCODING 1067
SWIDTH 583 0
DWIDTH 7 0
BBX 6 7 0 -2
BITMAP
84
84
84
E4
94
94
E4
ENDCHAR
STARTCHAR U+042C
ENCODING 1068
SWIDTH 500 0
DWIDTH 6 0
BBX 5 7 0 -2
BITMAP
80
80
80
F0
88
88
F0
ENDCHAR
STARTCHAR U+042D
ENCODING 1069
SWIDTH 583 0
DWIDTH 7 0
BBX 6 7 0 -2
BITMAP
78
84
04
7C
04
84
78
ENDCHAR
STARTCHAR U+042E
ENCODING 1070
SWIDTH 583 0
DWIDTH 7 0
BBX 7 7 -1 -2
BITMAP
9C
A2
A2
E2
A2
A2
9C
ENDCHAR
STARTCHAR U+042F
ENCODING 1071
SWIDTH 583 0
DWIDTH 7 0
BBX 6 7 0 -2
BITMAP
7C
84
84
7C
44
44
84
ENDCHAR
STARTCHAR U+0430
ENCODING 1072
SWIDTH 500 0
DWIDTH 6 0
BBX 5 5 0 -2
BITMAP
70
08
78
88
78
ENDCHAR
STARTCHAR U+0431
ENCODING 1073
SWIDTH 500 0
DWIDTH 6 0
BBX 5 7 0 -2
BITMAP
38
40
F0
88
88
88
70
ENDCHAR
STARTCHAR U+0432
ENCODING 1074
SWIDTH 500 0
DWIDTH 6 0
BBX 5 5 0 -2
BITMAP
F0
88
F0
88
F0
ENDCHAR
STARTCHAR U+0433
ENCODING 1075
SWIDTH 500 0
DWIDTH 6 0
BBX 5 5 0 -2
BITMAP
F8
80
80
80
80
ENDCHAR
STARTCHAR U+0434
ENCODING 1076
SWIDTH 500 0
DWIDTH 6 0
BBX 5 5 0 -2
BITMAP
70
50
50
F8
88
ENDCHAR
STARTCHAR U+0435
ENCODING 1077
SWIDTH 500 0
DWIDTH 6 0
BBX 5 5 0 -2
BITMAP
70
88
F8
80
70
ENDCHAR
STARTCHAR U+0436
ENCODING 1078
SWIDTH 666 0
DWIDTH 8 0
BBX 7 5 0 -2
BITMAP
92
54
38
54
92
ENDCHAR
STARTCHAR U+0437
ENCODING 1079
SWIDTH 500 0
DWIDTH 6 0
BBX 5 5 0 -2
BITMAP
70
88
30
88
70
ENDCHAR
STARTCHAR U+0438
ENCODING 1080
SWIDTH 500 0
DWIDTH 6 0
BBX 5 5 0 -2
BITMAP
88
98
A8
C8
88
ENDCHAR
STARTCHAR U+0439
ENCODING 1081
SWIDTH 500 0
DWIDTH 6 0
BBX 5 7 0 -2
BITMAP
50
20
88
98
A8
C8
88
ENDCHAR
STARTCHAR U+043A
ENCODING 1082
SWIDTH 500 0
DWIDTH 6 0
BBX 5 5 0 -2
BITMAP
98
A0
E0
90
88
ENDCHAR
STARTCHAR U+043B
ENCODING 1083
SWIDTH 583 0
DWIDTH 7 0
BBX 6 5 0 -2
BITMAP
3C
24
24
24
C4
ENDCHAR
STARTCHAR U+043C
ENCODING 1084
SWIDTH 500 0
DWIDTH 6 0
BBX 5 5 0 -2
BITMAP
88
D8
A8
A8
88
ENDCHAR
STARTCHAR U+043D
ENCODING 1085
SWIDTH 500 0
DWIDTH 6 0
BBX 5 5 0 -2
BITMAP
88
88
F8
88
88
ENDCHAR
STARTCHAR U+043E
ENCODING 1086
SWIDTH 500 0
DWIDTH 6 0
BBX 5 5 0 -2
BITMAP
70
88
88
88
70
ENDCHAR
STARTCHAR U+043F
ENCODING 1087
SWIDTH 500 0
DWIDTH 6 0
BBX 5 5 0 -2
BITMAP
F8
88
88
88
88
ENDCHAR
STARTCHAR U+0440
ENCODING 1088
SWIDTH 500 0
DWIDTH 6 0
BBX 5 5 0 -2
BITMAP
F0
88
F0
80
80
ENDCHAR
STARTCHAR U+0441
ENCODING 1089
SWIDTH 500 0
DWIDTH 6 0
BBX 5 5 0 -2
BITMAP
70
88
80
88
70
ENDCHAR
STARTCHAR U+0442
ENCODING 1090
SWIDTH 500 0
DWIDTH 6 0
BBX 5 5 0 -2
BITMAP
F8
20
20
20
20
ENDCHAR
STARTCHAR U+0443
ENCODING 1091
SWIDTH 500 0
DWIDTH 6 0
BBX 5 5 0 -2
BITMAP
88
50
50
20
C0
ENDCHAR
STARTCHAR U+0444
ENCODING 1092
SWIDTH 500 0
DWIDTH 6 0
BBX 5 7 0 -2
BITMAP
20
20
70
A8
A8
70
20
ENDCHAR
STARTCHAR U+0445
ENCODING 1093
SWIDTH 500 0
DWIDTH 6 0
BBX 5 5 0 -2
BITMAP
88
50
20
50
88
ENDCHAR
STARTCHAR U+0446
ENCODING 1094
SWIDTH 500 0
DWIDTH 6 0
BBX 5 5 0 -2
BITMAP
90
90
90
F8
08
ENDCHAR
STARTCHAR U+0447
ENCODING 1095
SWIDTH 500 0
DWIDTH 6 0
BBX 5 5 0 -2
BITMAP
88
88
88
78
08
ENDCHAR
STARTCHAR U+0448
ENCODING 1096
SWIDTH 500 0
DWIDTH 6 0
BBX 5 5 0 -2
BITMAP
A8
A8
A8
A8
F8
ENDCHAR
STARTCHAR U+0449
ENCODING 1097
SWIDTH 583 0
DWIDTH 7 0
BBX 6 5 0 -2
BITMAP
A8
A8
A8
FC
04
ENDCHAR
STARTCHAR U+044A
ENCODING 1098
SWIDTH 583 0
DWIDTH 7 0
BBX 6 5 0 -2
BITMAP
C0
40
78
44
78
ENDCHAR
STARTCHAR U+044B
ENCODING 1099
SWIDTH 500 0
DWIDTH 6 0
BBX 5 5 0 -2
BITMAP
88
88
E8
98
E8
ENDCHAR
STARTCHAR U+044C
ENCODING 1100
SWIDTH 500 0
DWIDTH 6 0
BBX 5 5 0 -2
BITMAP
80
80
F0
88
F0
ENDCHAR
STARTCHAR U+044D
ENCODING 1101
SWIDTH 500 0
DWIDTH 6 0
BBX 5 5 0 -2
BITMAP
70
88
38
88
70
ENDCHAR
STARTCHAR U+044E
ENCODING 1102
SWIDTH 583 0
DWIDTH 7 0
BBX 6 5 0 -2
BITMAP
98
A4
E4
A4
98
ENDCHAR
STARTCHAR U+044F
ENCODING 1103
SWIDTH 500 0
DWIDTH 6 0
BBX 5 5 0 -2
BITMAP
78
88
78
48
88
ENDCHAR
STARTCHAR U+0451
ENCODING 1105
SWIDTH 500 0
DWIDTH 6 0
BBX 5 7 0 -2
BITMAP
50
00
70
88
F8
80
70
ENDCHAR
STARTCHAR U+0454
ENCODING 1108
SWIDTH 500 0
DWIDTH 6 0
BBX 5 5 0 -2
BITMAP
70
88
E0
88
70
ENDCHAR
STARTCHAR U+0456
ENCODING 1110
SWIDTH 333 0
DWIDTH 4 0
BBX 3 6 0 -2
BITMAP
40
00
C0
40
40
E0
ENDCHAR
STARTCHAR U+0457
ENCODING 1111
SWIDTH 333 0
DWIDTH 4 0
BBX 3 6 0 -2
BITMAP
A0
00
C0
40
40
E0
ENDCHAR
STARTCHAR U+0490
ENCODING 1168
SWIDTH 583 0
DWIDTH 7 0
BBX 6 8 0 -2
BITMAP
04
FC
80
80
80
80
80
80
ENDCHAR
STARTCHAR U+0491
ENCODING 1169
SWIDTH 500 0
DWIDTH 6 0
BBX 5 6 0 -2
BITMAP
08
F8
80
80
80
80
ENDCHAR
STARTCHAR U+053E
ENCODING 1342
SWIDTH 666 0
DWIDTH 8 0
BBX 5 7 1 -2
BITMAP
80
70
08
70
88
88
70
ENDCHAR
STARTCHAR U+0CA0
ENCODING 3232
SWIDTH 666 0
DWIDTH 8 0
BBX 3 3 2 -1
BITMAP
80
E0
80
ENDCHAR
STARTCHAR U+0CA5
ENCODING 3237
SWIDTH 666 0
DWIDTH 8 0
BBX 7 7 0 -2
BITMAP
02
FC
82
92
82
6C
10
ENDCHAR
STARTCHAR U+0E01
ENCODING 3585
SWIDTH 666 0
DWIDTH 8 0
BBX 5 5 1 -2
BITMAP
70
88
48
88
88
ENDCHAR
STARTCHAR U+0E05
ENCODING 3589
SWIDTH 666 0
DWIDTH 8 0
BBX 5 6 1 -2
BITMAP
50
A8
88
A8
D8
68
ENDCHAR
STARTCHAR U+0E07
ENCODING 3591
SWIDTH 666 0
DWIDTH 8 0
BBX 5 6 1 -2
BITMAP
10
28
98
48
48
30
ENDCHAR
STARTCHAR U+0E34
ENCODING 3636
SWIDTH 0 0
DWIDTH 0 0
BBX 7 4 0 1
BITMAP
38
44
82
FE
ENDCHAR
STARTCHAR U+0E3F
ENCODING 3647
SWIDTH 666 0
DWIDTH 8 0
BBX 5 7 1 -2
BITMAP
20
F0
A8
F0
A8
F0
20
ENDCHAR
STARTCHAR U+11C2
ENCODING 4546
SWIDTH 666 0
DWIDTH 8 0
BBX 7 5 0 -2
BITMAP
7C
00
FE
44
38
ENDCHAR
STARTCHAR U+141B
ENCODING 5147
SWIDTH 666 0
DWIDTH 8 0
BBX 7 7 0 -2
BITMAP
04
02
FC
44
54
44
38
ENDCHAR
STARTCHAR U+1D00
ENCODING 7424
SWIDTH 416 0
DWIDTH 5 0
BBX 4 4 0 -1
BITMAP
20
50
F0
90
ENDCHAR
STARTCHAR U+1D04
ENCODING 7428
SWIDTH 416 0
DWIDTH 5 0
BBX 4 4 0 -1
BITMAP
60
90
80
60
ENDCHAR
STARTCHAR U+1D0F
ENCODING 7439
SWIDTH 416 0
DWIDTH 5 0
BBX 3 4 0 -1
BITMAP
40
A0
A0
40
ENDCHAR
STARTCHAR U+1D11
ENCODING 7441
SWIDTH 416 0
DWIDTH 5 0
BBX 4 3 0 -1
BITMAP
60
90
60
ENDCHAR
STARTCHAR U+1D17
ENCODING 7447
SWIDTH 666 0
DWIDTH 8 0
BBX 5 2 1 -2
BITMAP
88
70
ENDCHAR
STARTCHAR U+1D1B
ENCODING 7451
SWIDTH 333 0
DWIDTH 4 0
BBX 3 3 0 -1
BITMAP
E0
40
40
ENDCHAR
STARTCHAR U+1D1C
ENCODING 7452
SWIDTH 333 0
DWIDTH 4 0
BBX 3 3 0 -1
BITMAP
A0
A0
C0
ENDCHAR
STARTCHAR U+1D22
ENCODING 7458
SWIDTH 333 0
DWIDTH 4 0
BBX 3 4 0 -1
BITMAP
E0
20
40
E0
ENDCHAR
STARTCHAR U+1D25
ENCODING 7461
SWIDTH 666 0
DWIDTH 8 0
BBX 7 5 0 -1
BITMAP
38
38
10
AA
44
ENDCHAR
STARTCHAR U+1D4D
ENCODING 7501
SWIDTH 666 0
DWIDTH 8 0
BBX 3 5 2 0
BITMAP
60
A0
60
20
C0
ENDCHAR
STARTCHAR U+1D4E
ENCODING 7502
SWIDTH 666 0
DWIDTH 8 0
BBX 1 4 3 1
BITMAP
80
80
00
80
ENDCHAR
STARTCHAR U+1D4F
ENCODING 7503
SWIDTH 666 0
DWIDTH 8 0
BBX 3 5 2 0
BITMAP
80
80
A0
C0
A0
ENDCHAR
STARTCHAR U+1D50
ENCODING 7504
SWIDTH 666 0
DWIDTH 8 0
BBX 5 3 1 2
BITMAP
F0
A8
A8
ENDCHAR
STARTCHAR U+1D52
ENCODING 7506
SWIDTH 666 0
DWIDTH 8 0
BBX 3 5 2 0
BITMAP
40
A0
A0
A0
40
ENDCHAR
STARTCHAR U+1D55
ENCODING 7509
SWIDTH 666 0
DWIDTH 8 0
BBX 5 2 1 2
BITMAP
88
70
ENDCHAR
STARTCHAR U+1E04
ENCODING 7684
SWIDTH 416 0
DWIDTH 5 0
BBX 4 9 0 -3
BITMAP
E0
90
90
E0
90
90
E0
00
40
ENDCHAR
STARTCHAR U+1E05
ENCODING 7685
SWIDTH 333 0
DWIDTH 4 0
BBX 3 7 0 -3
BITMAP
80
80
C0
A0
C0
00
40
ENDCHAR
STARTCHAR U+1E0C
ENCODING 7692
SWIDTH 416 0
DWIDTH 5 0
BBX 4 7 0 -3
BITMAP
E0
90
90
A0
C0
00
40
ENDCHAR
STARTCHAR U+1E0D
ENCODING 7693
SWIDTH 333 0
DWIDTH 4 0
BBX 3 7 0 -3
BITMAP
20
20
60
A0
60
00
40
ENDCHAR
STARTCHAR U+1E0E
ENCODING 7694
SWIDTH 416 0
DWIDTH 5 0
BBX 4 9 0 -3
BITMAP
E0
90
90
90
90
90
E0
00
E0
ENDCHAR
STARTCHAR U+1E0F
ENCODING 7695
SWIDTH 333 0
DWIDTH 4 0
BBX 3 7 0 -3
BITMAP
20
20
60
A0
60
00
60
ENDCHAR
STARTCHAR U+1E12
ENCODING 7698
SWIDTH 416 0
DWIDTH 5 0
BBX 4 7 0 -3
BITMAP
E0
90
90
A0
C0
20
50
ENDCHAR
STARTCHAR U+1E13
ENCODING 7699
SWIDTH 333 0
DWIDTH 4 0
BBX 3 7 0 -3
BITMAP
20
20
60
A0
60
40
A0
ENDCHAR
STARTCHAR U+1E20
ENCODING 7712
SWIDTH 416 0
DWIDTH 5 0
BBX 4 7 0 -1
BITMAP
70
E0
80
B0
90
90
60
ENDCHAR
STARTCHAR U+1E21
ENCODING 7713
SWIDTH 333 0
DWIDTH 4 0
BBX 4 7 0 -2
BITMAP
E0
70
90
90
70
10
E0
ENDCHAR
STARTCHAR U+1E24
ENCODING 7716
SWIDTH 416 0
DWIDTH 5 0
BBX 4 7 0 -3
BITMAP
90
90
F0
90
90
00
40
ENDCHAR
STARTCHAR U+1E25
ENCODING 7717
SWIDTH 333 0
DWIDTH 4 0
BBX 3 8 0 -3
BITMAP
80
80
C0
A0
A0
A0
00
40
ENDCHAR
STARTCHAR U+1E2A
ENCODING 7722
SWIDTH 416 0
DWIDTH 5 0
BBX 4 9 0 -3
BITMAP
90
90
90
F0
90
90
90
90
60
ENDCHAR
STARTCHAR U+1E2B
ENCODING 7723
SWIDTH 333 0
DWIDTH 4 0
BBX 4 9 0 -3
BITMAP
80
80
E0
90
90
90
90
90
60
ENDCHAR
STARTCHAR U+1E2E
ENCODING 7726
SWIDTH 166 0
DWIDTH 2 0
BBX 3 6 -1 -1
BITMAP
20
40
A0
40
40
40
ENDCHAR
STARTCHAR U+1E2F
ENCODING 7727
SWIDTH 166 0
DWIDTH 2 0
BBX 3 7 -1 -2
BITMAP
20
40
A0
00
40
40
40
ENDCHAR
STARTCHAR U+1E34
ENCODING 7732
SWIDTH 416 0
DWIDTH 5 0
BBX 4 9 0 -3
BITMAP
90
A0
A0
C0
A0
A0
90
00
E0
ENDCHAR
STARTCHAR U+1E35
ENCODING 7733
SWIDTH 333 0
DWIDTH 4 0
BBX 4 9 0 -3
BITMAP
80
80
90
A0
C0
A0
90
00
E0
ENDCHAR
STARTCHAR U+1E36
ENCODING 7734
SWIDTH 333 0
DWIDTH 4 0
BBX 3 9 0 -3
BITMAP
80
80
80
80
80
80
E0
00
40
ENDCHAR
STARTCHAR U+1E37
ENCODING 7735
SWIDTH 166 0
DWIDTH 2 0
BBX 1 8 0 -3
BITMAP
80
80
80
80
80
80
00
80
ENDCHAR
STARTCHAR U+1E38
ENCODING 7736
SWIDTH 250 0
DWIDTH 3 0
BBX 3 8 -1 -3
BITMAP
E0
00
40
40
40
60
00
40
ENDCHAR
STARTCHAR U+1E39
ENCODING 7737
SWIDTH 166 0
DWIDTH 2 0
BBX 3 8 -1 -3
BITMAP
E0
00
40
40
40
40
00
40
ENDCHAR
STARTCHAR U+1E3A
ENCODING 7738
SWIDTH 333 0
DWIDTH 4 0
BBX 3 9 0 -3
BITMAP
80
80
80
80
80
80
E0
00
E0
ENDCHAR
STARTCHAR U+1E3B
ENCODING 7739
SWIDTH 166 0
DWIDTH 2 0
BBX 3 9 -1 -3
BITMAP
40
40
40
40
40
40
20
00
E0
ENDCHAR
STARTCHAR U+1E3C
ENCODING 7740
SWIDTH 333 0
DWIDTH 4 0
BBX 4 7 -1 -3
BITMAP
40
40
40
40
70
40
A0
ENDCHAR
STARTCHAR U+1E3D
ENCODING 7741
SWIDTH 166 0
DWIDTH 2 0
BBX 3 8 -1 -3
BITMAP
40
40
40
40
40
40
40
A0
ENDCHAR
STARTCHAR U+1E3E
ENCODING 7742
SWIDTH 500 0
DWIDTH 6 0
BBX 5 6 0 -1
BITMAP
10
A8
D8
A8
A8
88
ENDCHAR
STARTCHAR U+1E3F
ENCODING 7743
SWIDTH 500 0
DWIDTH 6 0
BBX 5 6 0 -1
BITMAP
20
F0
A8
A8
A8
A8
ENDCHAR
STARTCHAR U+1E40
ENCODING 7744
SWIDTH 500 0
DWIDTH 6 0
BBX 5 7 0 -1
BITMAP
88
F8
D8
A8
A8
88
88
ENDCHAR
STARTCHAR U+1E41
ENCODING 7745
SWIDTH 500 0
DWIDTH 6 0
BBX 5 5 0 -1
BITMAP
F0
A8
A8
A8
A8
ENDCHAR
STARTCHAR U+1E42
ENCODING 7746
SWIDTH 500 0
DWIDTH 6 0
BBX 5 8 0 -2
BITMAP
88
D8
D8
A8
A8
88
88
20
ENDCHAR
STARTCHAR U+1E43
ENCODING 7747
SWIDTH 500 0
DWIDTH 6 0
BBX 5 7 0 -3
BITMAP
F0
A8
A8
A8
A8
00
20
ENDCHAR
STARTCHAR U+1E44
ENCODING 7748
SWIDTH 416 0
DWIDTH 5 0
BBX 4 5 0 -1
BITMAP
40
00
D0
B0
90
ENDCHAR
STARTCHAR U+1E45
ENCODING 7749
SWIDTH 333 0
DWIDTH 4 0
BBX 4 5 0 -1
BITMAP
E0
90
90
90
90
ENDCHAR
STARTCHAR U+1E46
ENCODING 7750
SWIDTH 416 0
DWIDTH 5 0
BBX 4 9 0 -3
BITMAP
90
D0
D0
B0
B0
90
90
00
40
ENDCHAR
STARTCHAR U+1E47
ENCODING 7751
SWIDTH 333 0
DWIDTH 4 0
BBX 4 7 0 -3
BITMAP
E0
90
90
90
90
00
40
ENDCHAR
STARTCHAR U+1E48
ENCODING 7752
SWIDTH 416 0
DWIDTH 5 0
BBX 4 9 0 -3
BITMAP
90
D0
D0
B0
B0
90
90
00
E0
ENDCHAR
STARTCHAR U+1E49
ENCODING 7753
SWIDTH 333 0
DWIDTH 4 0
BBX 4 7 0 -3
BITMAP
E0
90
90
90
90
00
E0
ENDCHAR
STARTCHAR U+1E4A
ENCODING 7754
SWIDTH 416 0
DWIDTH 5 0
BBX 4 7 0 -3
BITMAP
90
D0
B0
90
90
60
90
ENDCHAR
STARTCHAR U+1E4B
ENCODING 7755
SWIDTH 333 0
DWIDTH 4 0
BBX 3 6 0 -3
BITMAP
C0
A0
A0
A0
40
A0
ENDCHAR
STARTCHAR U+1E4C
ENCODING 7756
SWIDTH 333 0
DWIDTH 4 0
BBX 4 6 0 -1
BITMAP
70
E0
40
A0
A0
40
ENDCHAR
STARTCHAR U+1E4D
ENCODING 7757
SWIDTH 333 0
DWIDTH 4 0
BBX 4 6 0 -1
BITMAP
70
E0
40
A0
A0
40
ENDCHAR
STARTCHAR U+1E50
ENCODING 7760
SWIDTH 333 0
DWIDTH 4 0
BBX 3 6 0 -1
BITMAP
80
E0
40
A0
A0
40
ENDCHAR
STARTCHAR U+1E51
ENCODING 7761
SWIDTH 333 0
DWIDTH 4 0
BBX 3 6 0 -1
BITMAP
40
E0
00
60
A0
C0
ENDCHAR
STARTCHAR U+1E52
ENCODING 7762
SWIDTH 333 0
DWIDTH 4 0
BBX 3 6 0 -1
BITMAP
20
E0
40
A0
A0
40
ENDCHAR
STARTCHAR U+1E53
ENCODING 7763
SWIDTH 333 0
DWIDTH 4 0
BBX 3 6 0 -1
BITMAP
20
E0
00
60
A0
C0
ENDCHAR
STARTCHAR U+1E5C
ENCODING 7772
SWIDTH 416 0
DWIDTH 5 0
BBX 4 8 0 -3
BITMAP
E0
00
E0
90
E0
90
00
40
ENDCHAR
STARTCHAR U+1E5D
ENCODING 7773
SWIDTH 166 0
DWIDTH 2 0
BBX 4 8 -1 -3
BITMAP
E0
50
60
40
40
40
00
40
ENDCHAR
STARTCHAR U+1E5E
ENCODING 7774
SWIDTH 416 0
DWIDTH 5 0
BBX 4 9 0 -3
BITMAP
E0
90
90
E0
A0
90
90
00
E0
ENDCHAR
STARTCHAR U+1E5F
ENCODING 7775
SWIDTH 250 0
DWIDTH 3 0
BBX 4 7 -1 -3
BITMAP
50
60
40
40
40
00
E0
ENDCHAR
STARTCHAR U+1E62
ENCODING 7778
SWIDTH 333 0
DWIDTH 4 0
BBX 4 7 0 -3
BITMAP
60
80
60
10
E0
00
40
ENDCHAR
STARTCHAR U+1E63
ENCODING 7779
SWIDTH 333 0
DWIDTH 4 0
BBX 4 7 0 -3
BITMAP
70
80
60
10
E0
00
40
ENDCHAR
STARTCHAR U+1E6C
ENCODING 7788
SWIDTH 333 0
DWIDTH 4 0
BBX 3 7 0 -3
BITMAP
E0
40
40
40
40
00
40
ENDCHAR
STARTCHAR U+1E6D
ENCODING 7789
SWIDTH 250 0
DWIDTH 3 0
BBX 3 8 0 -3
BITMAP
40
E0
40
40
40
20
00
80
ENDCHAR
STARTCHAR U+1E6E
ENCODING 7790
SWIDTH 333 0
DWIDTH 4 0
BBX 5 9 0 -3
BITMAP
F8
20
20
20
20
20
20
00
E0
ENDCHAR
STARTCHAR U+1E6F
ENCODING 7791
SWIDTH 250 0
DWIDTH 3 0
BBX 4 8 -1 -3
BITMAP
20
70
20
20
20
10
00
E0
ENDCHAR
STARTCHAR U+1E70
ENCODING 7792
SWIDTH 333 0
DWIDTH 4 0
BBX 3 7 0 -3
BITMAP
E0
40
40
40
40
40
A0
ENDCHAR
STARTCHAR U+1E71
ENCODING 7793
SWIDTH 250 0
DWIDTH 3 0
BBX 3 7 -1 -3
BITMAP
40
60
40
40
20
40
A0
ENDCHAR
STARTCHAR U+1E80
ENCODING 7808
SWIDTH 500 0
DWIDTH 6 0
BBX 5 8 0 -2
BITMAP
80
40
00
00
00
A8
A8
50
ENDCHAR
STARTCHAR U+1E81
ENCODING 7809
SWIDTH 500 0
DWIDTH 6 0
BBX 5 7 0 -1
BITMAP
80
40
88
A8
A8
50
50
ENDCHAR
STARTCHAR U+1E82
ENCODING 7810
SWIDTH 500 0
DWIDTH 6 0
BBX 6 8 -1 -2
BITMAP
40
80
00
00
00
54
54
28
ENDCHAR
STARTCHAR U+1E83
ENCODING 7811
SWIDTH 500 0
DWIDTH 6 0
BBX 6 7 -1 -1
BITMAP
40
80
44
54
54
28
28
ENDCHAR
STARTCHAR U+1E84
ENCODING 7812
SWIDTH 500 0
DWIDTH 6 0
BBX 6 8 -1 -2
BITMAP
A0
00
00
00
00
54
54
28
ENDCHAR
STARTCHAR U+1E85
ENCODING 7813
SWIDTH 500 0
DWIDTH 6 0
BBX 6 7 -1 -1
BITMAP
A0
00
44
54
54
28
28
ENDCHAR
STARTCHAR U+1E8E
ENCODING 7822
SWIDTH 416 0
DWIDTH 5 0
BBX 3 6 0 -2
BITMAP
40
00
A0
A0
60
C0
ENDCHAR
STARTCHAR U+1E8F
ENCODING 7823
SWIDTH 333 0
DWIDTH 4 0
BBX 3 6 0 -2
BITMAP
40
00
A0
60
20
C0
ENDCHAR
STARTCHAR U+1E92
ENCODING 7826
SWIDTH 333 0
DWIDTH 4 0
BBX 3 7 0 -3
BITMAP
E0
20
40
80
E0
00
40
ENDCHAR
STARTCHAR U+1E93
ENCODING 7827
SWIDTH 333 0
DWIDTH 4 0
BBX 3 6 0 -3
BITMAP
E0
20
40
E0
00
40
ENDCHAR
STARTCHAR U+1E94
ENCODING 7828
SWIDTH 333 0
DWIDTH 4 0
BBX 4 9 0 -3
BITMAP
F0
10
20
60
40
80
F0
00
E0
ENDCHAR
STARTCHAR U+1E95
ENCODING 7829
SWIDTH 333 0
DWIDTH 4 0
BBX 4 7 0 -3
BITMAP
F0
10
60
80
F0
00
E0
ENDCHAR
STARTCHAR U+1E96
ENCODING 7830
SWIDTH 333 0
DWIDTH 4 0
BBX 4 9 0 -3
BITMAP
80
80
E0
90
90
90
90
00
E0
ENDCHAR
STARTCHAR U+1E97
ENCODING 7831
SWIDTH 250 0
DWIDTH 3 0
BBX 3 7 -1 -2
BITMAP
A0
00
00
40
60
40
20
ENDCHAR
STARTCHAR U+1E9E
ENCODING 7838
SWIDTH 416 0
DWIDTH 5 0
BBX 4 5 0 -1
BITMAP
E0
A0
B0
90
A0
ENDCHAR
STARTCHAR U+1EA1
ENCODING 7841
SWIDTH 333 0
DWIDTH 4 0
BBX 3 5 0 -3
BITMAP
60
A0
60
00
40
ENDCHAR
STARTCHAR U+1EAC
ENCODING 7852
SWIDTH 416 0
DWIDTH 5 0
BBX 4 8 0 -3
BITMAP
20
50
20
50
F0
90
00
20
ENDCHAR
STARTCHAR U+1EAD
ENCODING 7853
SWIDTH 333 0
DWIDTH 4 0
BBX 3 8 0 -3
BITMAP
40
A0
00
60
A0
60
00
40
ENDCHAR
STARTCHAR U+1EB8
ENCODING 7864
SWIDTH 333 0
DWIDTH 4 0
BBX 3 9 0 -3
BITMAP
E0
80
80
E0
80
80
E0
00
40
ENDCHAR
STARTCHAR U+1EB9
ENCODING 7865
SWIDTH 333 0
DWIDTH 4 0
BBX 4 7 0 -3
BITMAP
60
90
F0
80
70
00
40
ENDCHAR
STARTCHAR U+1EBC
ENCODING 7868
SWIDTH 333 0
DWIDTH 4 0
BBX 4 6 0 -1
BITMAP
50
E0
80
E0
80
E0
ENDCHAR
STARTCHAR U+1EBD
ENCODING 7869
SWIDTH 333 0
DWIDTH 4 0
BBX 4 6 0 -1
BITMAP
50
E0
90
F0
80
70
ENDCHAR
STARTCHAR U+1EC6
ENCODING 7878
SWIDTH 333 0
DWIDTH 4 0
BBX 3 8 0 -3
BITMAP
40
E0
80
E0
80
E0
00
40
ENDCHAR
STARTCHAR U+1EC7
ENCODING 7879
SWIDTH 333 0
DWIDTH 4 0
BBX 3 6 0 -1
BITMAP
40
A0
60
A0
C0
60
ENDCHAR
STARTCHAR U+1ECA
ENCODING 7882
SWIDTH 166 0
DWIDTH 2 0
BBX 1 9 0 -3
BITMAP
80
80
80
80
80
80
80
00
80
ENDCHAR
STARTCHAR U+1ECB
ENCODING 7883
SWIDTH 166 0
DWIDTH 2 0
BBX 3 8 0 -3
BITMAP
80
00
80
80
80
20
00
80
ENDCHAR
STARTCHAR U+1ECC
ENCODING 7884
SWIDTH 416 0
DWIDTH 5 0
BBX 4 9 0 -3
BITMAP
60
90
90
90
90
90
60
00
40
ENDCHAR
STARTCHAR U+1ECD
ENCODING 7885
SWIDTH 333 0
DWIDTH 4 0
BBX 3 6 0 -3
BITMAP
40
A0
A0
40
00
40
ENDCHAR
STARTCHAR U+1ECF
ENCODING 7887
SWIDTH 333 0
DWIDTH 4 0
BBX 3 6 0 -2
BITMAP
80
40
00
60
A0
C0
ENDCHAR
STARTCHAR U+1ED8
ENCODING 7896
SWIDTH 333 0
DWIDTH 4 0
BBX 3 8 0 -3
BITMAP
40
A0
40
A0
A0
40
00
40
ENDCHAR
STARTCHAR U+1ED9
ENCODING 7897
SWIDTH 333 0
DWIDTH 4 0
BBX 3 8 0 -3
BITMAP
40
A0
00
60
A0
C0
00
40
ENDCHAR
STARTCHAR U+1EE4
ENCODING 7908
SWIDTH 416 0
DWIDTH 5 0
BBX 4 9 0 -3
BITMAP
90
90
90
90
90
90
60
00
40
ENDCHAR
STARTCHAR U+1EE5
ENCODING 7909
SWIDTH 333 0
DWIDTH 4 0
BBX 3 6 0 -3
BITMAP
A0
A0
A0
60
00
40
ENDCHAR
STARTCHAR U+1EF2
ENCODING 7922
SWIDTH 333 0
DWIDTH 4 0
BBX 4 8 -1 -2
BITMAP
80
40
00
00
50
50
30
60
ENDCHAR
STARTCHAR U+1EF3
ENCODING 7923
SWIDTH 333 0
DWIDTH 4 0
BBX 3 7 0 -2
BITMAP
80
40
00
A0
60
20
C0
ENDCHAR
STARTCHAR U+1EF8
ENCODING 7928
SWIDTH 333 0
DWIDTH 4 0
BBX 4 7 0 -2
BITMAP
50
A0
00
A0
A0
60
C0
ENDCHAR
STARTCHAR U+1EF9
ENCODING 7929
SWIDTH 333 0
DWIDTH 4 0
BBX 4 7 0 -2
BITMAP
50
A0
00
A0
60
20
C0
ENDCHAR
STARTCHAR U+1F74
ENCODING 8052
SWIDTH 0 0
DWIDTH 0 0
BBX 0 0 0 0
BITMAP
ENDCHAR
STARTCHAR U+1FC0
ENCODING 8128
SWIDTH 666 0
DWIDTH 8 0
BBX 5 2 1 3
BITMAP
68
90
ENDCHAR
STARTCHAR U+2003
ENCODING 8195
SWIDTH 666 0
DWIDTH 8 0
BBX 0 0 0 0
BITMAP
ENDCHAR
STARTCHAR U+2010
ENCODING 8208
SWIDTH 333 0
DWIDTH 4 0
BBX 3 1 0 2
BITMAP
E0
ENDCHAR
STARTCHAR U+2011
ENCODING 8209
SWIDTH 333 0
DWIDTH 4 0
BBX 3 1 0 2
BITMAP
E0
ENDCHAR
STARTCHAR U+2012
ENCODING 8210
SWIDTH 416 0
DWIDTH 5 0
BBX 4 1 0 2
BITMAP
F0
ENDCHAR
STARTCHAR U+2013
ENCODING 8211
SWIDTH 333 0
DWIDTH 4 0
BBX 3 1 0 2
BITMAP
E0
ENDCHAR
STARTCHAR U+2014
ENCODING 8212
SWIDTH 666 0
DWIDTH 8 0
BBX 7 1 0 2
BITMAP
FE
ENDCHAR
STARTCHAR U+2015
ENCODING 8213
SWIDTH 666 0
DWIDTH 8 0
BBX 7 1 0 2
BITMAP
FE
ENDCHAR
STARTCHAR U+2016
ENCODING 8214
SWIDTH 333 0
DWIDTH 4 0
BBX 3 7 0 -1
BITMAP
A0
A0
A0
A0
A0
A0
A0
ENDCHAR
STARTCHAR U+2017
ENCODING 8215
SWIDTH 333 0
DWIDTH 4 0
BBX 3 3 0 -1
BITMAP
E0
00
E0
ENDCHAR
STARTCHAR U+2018
ENCODING 8216
SWIDTH 250 0
DWIDTH 3 0
BBX 2 2 0 4
BITMAP
40
80
ENDCHAR
STARTCHAR U+2019
ENCODING 8217
SWIDTH 250 0
DWIDTH 3 0
BBX 2 2 0 4
BITMAP
40
80
ENDCHAR
STARTCHAR U+201A
ENCODING 8218
SWIDTH 250 0
DWIDTH 3 0
BBX 2 2 0 -2
BITMAP
40
80
ENDCHAR
STARTCHAR U+201B
ENCODING 8219
SWIDTH 250 0
DWIDTH 3 0
BBX 2 2 0 4
BITMAP
80
40
ENDCHAR
STARTCHAR U+201C
ENCODING 8220
SWIDTH 416 0
DWIDTH 5 0
BBX 4 2 0 4
BITMAP
50
A0
ENDCHAR
STARTCHAR U+201D
ENCODING 8221
SWIDTH 416 0
DWIDTH 5 0
BBX 4 2 0 4
BITMAP
50
A0
ENDCHAR
STARTCHAR U+201E
ENCODING 8222
SWIDTH 416 0
DWIDTH 5 0
BBX 4 2 0 -2
BITMAP
50
A0
ENDCHAR
STARTCHAR U+201F
ENCODING 8223
SWIDTH 416 0
DWIDTH 5 0
BBX 4 2 0 4
BITMAP
A0
50
ENDCHAR
STARTCHAR U+2020
ENCODING 8224
SWIDTH 500 0
DWIDTH 6 0
BBX 5 7 0 -1
BITMAP
20
20
F8
20
20
20
20
ENDCHAR
STARTCHAR U+2021
ENCODING 8225
SWIDTH 500 0
DWIDTH 6 0
BBX 5 7 0 -1
BITMAP
20
F8
20
20
20
F8
20
ENDCHAR
STARTCHAR U+2022
ENCODING 8226
SWIDTH 250 0
DWIDTH 3 0
BBX 2 2 0 2
BITMAP
C0
C0
ENDCHAR
STARTCHAR U+2023
ENCODING 8227
SWIDTH 250 0
DWIDTH 3 0
BBX 2 3 0 1
BITMAP
80
C0
80
ENDCHAR
STARTCHAR U+2024
ENCODING 8228
SWIDTH 166 0
DWIDTH 2 0
BBX 1 1 0 0
BITMAP
80
ENDCHAR
STARTCHAR U+2025
ENCODING 8229
SWIDTH 333 0
DWIDTH 4 0
BBX 3 1 0 2
BITMAP
A0
ENDCHAR
STARTCHAR U+2026
ENCODING 8230
SWIDTH 500 0
DWIDTH 6 0
BBX 5 1 0 2
BITMAP
A8
ENDCHAR
STARTCHAR U+2027
ENCODING 8231
SWIDTH 166 0
DWIDTH 2 0
BBX 1 1 0 2
BITMAP
80
ENDCHAR
STARTCHAR U+2030
ENCODING 8240
SWIDTH 666 0
DWIDTH 8 0
BBX 7 7 0 -1
BITMAP
50
A0
A0
40
54
AA
94
ENDCHAR
STARTCHAR U+2031
ENCODING 8241
SWIDTH 833 0
DWIDTH 10 0
BBX 9 7 0 -1
BITMAP
5000
A000
A000
4000
5500
AA80
9500
ENDCHAR
STARTCHAR U+2032
ENCODING 8242
SWIDTH 250 0
DWIDTH 3 0
BBX 2 2 0 4
BITMAP
40
80
ENDCHAR
STARTCHAR U+2033
ENCODING 8243
SWIDTH 416 0
DWIDTH 5 0
BBX 4 2 0 4
BITMAP
50
A0
ENDCHAR
STARTCHAR U+2034
ENCODING 8244
SWIDTH 583 0
DWIDTH 7 0
BBX 6 2 0 4
BITMAP
54
A8
ENDCHAR
STARTCHAR U+2035
ENCODING 8245
SWIDTH 250 0
DWIDTH 3 0
BBX 2 2 0 4
BITMAP
80
40
ENDCHAR
STARTCHAR U+2036
ENCODING 8246
SWIDTH 416 0
DWIDTH 5 0
BBX 4 2 0 4
BITMAP
A0
50
ENDCHAR
STARTCHAR U+2037
ENCODING 8247
SWIDTH 583 0
DWIDTH 7 0
BBX 6 2 0 4
BITMAP
A8
54
ENDCHAR
STARTCHAR U+2038
ENCODING 8248
SWIDTH 333 0
DWIDTH 4 0
BBX 3 2 0 -1
BITMAP
40
A0
ENDCHAR
STARTCHAR U+2039
ENCODING 8249
SWIDTH 250 0
DWIDTH 3 0
BBX 2 3 0 1
BITMAP
40
80
40
ENDCHAR
STARTCHAR U+203A
ENCODING 8250
SWIDTH 250 0
DWIDTH 3 0
BBX 2 3 0 1
BITMAP
80
40
80
ENDCHAR
STARTCHAR U+203B
ENCODING 8251
SWIDTH 666 0
DWIDTH 8 0
BBX 7 7 0 -1
BITMAP
92
44
28
92
28
44
92
ENDCHAR
STARTCHAR U+203C
ENCODING 8252
SWIDTH 333 0
DWIDTH 4 0
BBX 3 7 0 -1
BITMAP
A0
A0
A0
A0
A0
00
A0
ENDCHAR
STARTCHAR U+203D
ENCODING 8253
SWIDTH 416 0
DWIDTH 5 0
BBX 4 7 0 -1
BITMAP
E0
10
A0
40
40
00
40
ENDCHAR
STARTCHAR U+203E
ENCODING 8254
SWIDTH 666 0
DWIDTH 8 0
BBX 7 1 0 4
BITMAP
FE
ENDCHAR
STARTCHAR U+203F
ENCODING 8255
SWIDTH 666 0
DWIDTH 8 0
BBX 7 2 0 -2
BITMAP
82
7C
ENDCHAR
STARTCHAR U+2043
ENCODING 8259
SWIDTH 250 0
DWIDTH 3 0
BBX 2 1 0 2
BITMAP
C0
ENDCHAR
STARTCHAR U+2044
ENCODING 8260
SWIDTH 333 0
DWIDTH 4 0
BBX 3 7 0 -1
BITMAP
20
20
40
40
40
80
80
ENDCHAR
STARTCHAR U+2045
ENCODING 8261
SWIDTH 250 0
DWIDTH 3 0
BBX 2 7 0 -1
BITMAP
C0
80
80
C0
80
80
C0
ENDCHAR
STARTCHAR U+2046
ENCODING 8262
SWIDTH 250 0
DWIDTH 3 0
BBX 2 7 0 -1
BITMAP
C0
40
40
C0
40
40
C0
ENDCHAR
STARTCHAR U+2047
ENCODING 8263
SWIDTH 750 0
DWIDTH 9 0
BBX 8 7 0 -1
BITMAP
EE
11
22
44
44
00
44
ENDCHAR
STARTCHAR U+2048
ENCODING 8264
SWIDTH 583 0
DWIDTH 7 0
BBX 6 7 0 -1
BITMAP
E4
14
24
44
44
00
44
ENDCHAR
STARTCHAR U+2049
ENCODING 8265
SWIDTH 666 0
DWIDTH 8 0
BBX 6 7 1 -1
BITMAP
B8
84
88
90
90
00
90
ENDCHAR
STARTCHAR U+204B
ENCODING 8267
SWIDTH 500 0
DWIDTH 6 0
BBX 5 7 0 -1
BITMAP
F0
B8
B8
B0
A0
A0
A0
ENDCHAR
STARTCHAR U+2057
ENCODING 8279
SWIDTH 750 0
DWIDTH 9 0
BBX 8 2 0 4
BITMAP
55
AA
ENDCHAR
STARTCHAR U+2070
ENCODING 8304
SWIDTH 666 0
DWIDTH 8 0
BBX 3 4 2 1
BITMAP
40
A0
A0
40
ENDCHAR
STARTCHAR U+207D
ENCODING 8317
SWIDTH 666 0
DWIDTH 8 0
BBX 2 4 2 1
BITMAP
40
80
80
40
ENDCHAR
STARTCHAR U+207E
ENCODING 8318
SWIDTH 666 0
DWIDTH 8 0
BBX 2 4 2 1
BITMAP
80
40
40
80
ENDCHAR
STARTCHAR U+2080
ENCODING 8320
SWIDTH 666 0
DWIDTH 8 0
BBX 3 4 2 -2
BITMAP
40
A0
A0
40
ENDCHAR
STARTCHAR U+2083
ENCODING 8323
SWIDTH 666 0
DWIDTH 8 0
BBX 3 4 2 -2
BITMAP
E0
40
20
C0
ENDCHAR
STARTCHAR U+208D
ENCODING 8333
SWIDTH 666 0
DWIDTH 8 0
BBX 2 4 3 -2
BITMAP
40
80
80
40
ENDCHAR
STARTCHAR U+208E
ENCODING 8334
SWIDTH 666 0
DWIDTH 8 0
BBX 2 4 2 -2
BITMAP
80
40
40
80
ENDCHAR
STARTCHAR U+20A1
ENCODING 8353
SWIDTH 500 0
DWIDTH 6 0
BBX 5 7 0 -1
BITMAP
08
70
98
A0
C8
70
80
ENDCHAR
STARTCHAR U+20A4
ENCODING 8356
SWIDTH 416 0
DWIDTH 5 0
BBX 4 7 0 -1
BITMAP
20
50
40
F0
20
40
F0
ENDCHAR
STARTCHAR U+20A9
ENCODING 8361
SWIDTH 666 0
DWIDTH 8 0
BBX 7 7 0 -1
BITMAP
44
54
FE
54
FE
28
28
ENDCHAR
STARTCHAR U+20AA
ENCODING 8362
SWIDTH 583 0
DWIDTH 7 0
BBX 6 7 0 -2
BITMAP
64
94
B4
B4
B4
A4
98
ENDCHAR
STARTCHAR U+20AC
ENCODING 8364
SWIDTH 500 0
DWIDTH 6 0
BBX 5 7 0 -1
BITMAP
30
48
E0
40
E0
48
30
ENDCHAR
STARTCHAR U+20B4
ENCODING 8372
SWIDTH 500 0
DWIDTH 6 0
BBX 5 7 0 -2
BITMAP
60
10
F8
00
F8
40
30
ENDCHAR
STARTCHAR U+20B9
ENCODING 8377
SWIDTH 500 0
DWIDTH 6 0
BBX 5 7 0 -2
BITMAP
F8
10
F8
20
40
20
18
ENDCHAR
STARTCHAR U+20BD
ENCODING 8381
SWIDTH 500 0
DWIDTH 6 0
BBX 5 7 0 -2
BITMAP
30
48
48
F0
40
F0
40
ENDCHAR
STARTCHAR U+20DD
ENCODING 8413
SWIDTH 666 0
DWIDTH 8 0
BBX 7 7 0 -2
BITMAP
38
44
82
82
82
44
38
ENDCHAR
STARTCHAR U+2103
ENCODING 8451
SWIDTH 666 0
DWIDTH 8 0
BBX 7 8 0 -1
BITMAP
40
AE
50
10
10
10
10
0E
ENDCHAR
STARTCHAR U+2105
ENCODING 8453
SWIDTH 666 0
DWIDTH 8 0
BBX 7 7 0 -2
BITMAP
62
84
68
10
2C
52
8C
ENDCHAR
STARTCHAR U+2109
ENCODING 8457
SWIDTH 666 0
DWIDTH 8 0
BBX 7 8 0 -1
BITMAP
40
AE
48
08
0E
08
08
08
ENDCHAR
STARTCHAR U+2116
ENCODING 8470
SWIDTH 666 0
DWIDTH 8 0
BBX 7 7 0 -1
BITMAP
A0
A0
E8
B4
B4
B4
AA
ENDCHAR
STARTCHAR U+2121
ENCODING 8481
SWIDTH 666 0
DWIDTH 8 0
BBX 7 7 0 -1
BITMAP
FC
54
54
5C
54
54
5E
ENDCHAR
STARTCHAR U+2122
ENCODING 8482
SWIDTH 666 0
DWIDTH 8 0
BBX 7 3 0 3
BITMAP
F6
5A
52
ENDCHAR
STARTCHAR U+212B
ENCODING 8491
SWIDTH 666 0
DWIDTH 8 0
BBX 7 7 0 -2
BITMAP
10
28
10
28
44
7C
82
ENDCHAR
STARTCHAR U+2160
ENCODING 8544
SWIDTH 166 0
DWIDTH 2 0
BBX 1 7 0 -1
BITMAP
80
80
80
80
80
80
80
ENDCHAR
STARTCHAR U+2161
ENCODING 8545
SWIDTH 333 0
DWIDTH 4 0
BBX 3 7 0 -1
BITMAP
A0
A0
A0
A0
A0
A0
A0
ENDCHAR
STARTCHAR U+2162
ENCODING 8546
SWIDTH 500 0
DWIDTH 6 0
BBX 5 7 0 -1
BITMAP
A8
A8
A8
A8
A8
A8
A8
ENDCHAR
STARTCHAR U+2163
ENCODING 8547
SWIDTH 666 0
DWIDTH 8 0
BBX 7 7 0 -1
BITMAP
A2
A2
94
94
94
88
88
ENDCHAR
STARTCHAR U+2164
ENCODING 8548
SWIDTH 500 0
DWIDTH 6 0
BBX 5 7 0 -1
BITMAP
88
88
50
50
50
20
20
ENDCHAR
STARTCHAR U+2165
ENCODING 8549
SWIDTH 666 0
DWIDTH 8 0
BBX 7 7 0 -1
BITMAP
8A
8A
52
52
52
22
22
ENDCHAR
STARTCHAR U+2166
ENCODING 8550
SWIDTH 833 0
DWIDTH 10 0
BBX 9 7 0 -1
BITMAP
8A80
8A80
5280
5280
5280
2280
2280
ENDCHAR
STARTCHAR U+2167
ENCODING 8551
SWIDTH 1000 0
DWIDTH 12 0
BBX 11 7 0 -1
BITMAP
8AA0
8AA0
52A0
52A0
52A0
22A0
22A0
ENDCHAR
STARTCHAR U+2168
ENCODING 8552
SWIDTH 666 0
DWIDTH 8 0
BBX 7 7 0 -1
BITMAP
A2
94
94
88
94
94
A2
ENDCHAR
STARTCHAR U+2169
ENCODING 8553
SWIDTH 500 0
DWIDTH 6 0
BBX 5 7 0 -1
BITMAP
88
50
50
20
50
50
88
ENDCHAR
STARTCHAR U+216A
ENCODING 8554
SWIDTH 666 0
DWIDTH 8 0
BBX 7 7 0 -1
BITMAP
8A
52
52
22
52
52
8A
ENDCHAR
STARTCHAR U+216B
ENCODING 8555
SWIDTH 833 0
DWIDTH 10 0
BBX 9 7 0 -1
BITMAP
8A80
5280
5280
2280
5280
5280
8A80
ENDCHAR
STARTCHAR U+216C
ENCODING 8556
SWIDTH 333 0
DWIDTH 4 0
BBX 3 7 0 -1
BITMAP
80
80
80
80
80
80
E0
ENDCHAR
STARTCHAR U+216D
ENCODING 8557
SWIDTH 416 0
DWIDTH 5 0
BBX 4 7 0 -1
BITMAP
70
80
80
80
80
80
70
ENDCHAR
STARTCHAR U+216E
ENCODING 8558
SWIDTH 416 0
DWIDTH 5 0
BBX 4 7 0 -1
BITMAP
E0
90
90
90
90
90
E0
ENDCHAR
STARTCHAR U+216F
ENCODING 8559
SWIDTH 500 0
DWIDTH 6 0
BBX 5 7 0 -1
BITMAP
88
D8
D8
A8
A8
88
88
ENDCHAR
STARTCHAR U+2170
ENCODING 8560
SWIDTH 166 0
DWIDTH 2 0
BBX 1 7 0 -1
BITMAP
80
00
80
80
80
80
80
ENDCHAR
STARTCHAR U+2171
ENCODING 8561
SWIDTH 333 0
DWIDTH 4 0
BBX 3 7 0 -1
BITMAP
A0
00
A0
A0
A0
A0
A0
ENDCHAR
STARTCHAR U+2172
ENCODING 8562
SWIDTH 500 0
DWIDTH 6 0
BBX 5 7 0 -1
BITMAP
A8
00
A8
A8
A8
A8
A8
ENDCHAR
STARTCHAR U+2173
ENCODING 8563
SWIDTH 666 0
DWIDTH 8 0
BBX 7 7 0 -1
BITMAP
80
00
A2
A2
94
94
88
ENDCHAR
STARTCHAR U+2174
ENCODING 8564
SWIDTH 500 0
DWIDTH 6 0
BBX 5 5 0 -1
BITMAP
88
88
50
50
20
ENDCHAR
STARTCHAR U+2175
ENCODING 8565
SWIDTH 666 0
DWIDTH 8 0
BBX 7 7 0 -1
BITMAP
02
00
8A
8A
52
52
22
ENDCHAR
STARTCHAR U+2176
ENCODING 8566
SWIDTH 833 0
DWIDTH 10 0
BBX 9 7 0 -1
BITMAP
0280
0000
8A80
8A80
5280
5280
2280
ENDCHAR
STARTCHAR U+2177
ENCODING 8567
SWIDTH 1000 0
DWIDTH 12 0
BBX 11 7 0 -1
BITMAP
02A0
0000
8AA0
8AA0
52A0
52A0
22A0
ENDCHAR
STARTCHAR U+2178
ENCODING 8568
SWIDTH 666 0
DWIDTH 8 0
BBX 7 7 0 -1
BITMAP
80
00
A2
94
88
94
A2
ENDCHAR
STARTCHAR U+2179
ENCODING 8569
SWIDTH 500 0
DWIDTH 6 0
BBX 5 5 0 -1
BITMAP
88
50
20
50
88
ENDCHAR
STARTCHAR U+217A
ENCODING 8570
SWIDTH 666 0
DWIDTH 8 0
BBX 7 7 0 -1
BITMAP
02
00
8A
52
22
52
8A
ENDCHAR
STARTCHAR U+217B
ENCODING 8571
SWIDTH 833 0
DWIDTH 10 0
BBX 9 7 0 -1
BITMAP
0280
0000
8A80
5280
2280
5280
8A80
ENDCHAR
STARTCHAR U+217C
ENCODING 8572
SWIDTH 250 0
DWIDTH 3 0
BBX 2 7 0 -1
BITMAP
80
80
80
80
80
80
40
ENDCHAR
STARTCHAR U+217D
ENCODING 8573
SWIDTH 416 0
DWIDTH 5 0
BBX 4 5 0 -1
BITMAP
70
80
80
80
70
ENDCHAR
STARTCHAR U+217E
ENCODING 8574
SWIDTH 416 0
DWIDTH 5 0
BBX 4 7 0 -1
BITMAP
10
10
70
90
90
90
70
ENDCHAR
STARTCHAR U+217F
ENCODING 8575
SWIDTH 500 0
DWIDTH 6 0
BBX 5 5 0 -1
BITMAP
F0
A8
A8
A8
A8
ENDCHAR
STARTCHAR U+2181
ENCODING 8577
SWIDTH 666 0
DWIDTH 8 0
BBX 6 7 1 -2
BITMAP
F0
48
64
54
64
48
F0
ENDCHAR
STARTCHAR U+2182
ENCODING 8578
SWIDTH 666 0
DWIDTH 8 0
BBX 7 7 0 -2
BITMAP
38
54
AA
AA
AA
54
38
ENDCHAR
STARTCHAR U+2190
ENCODING 8592
SWIDTH 666 0
DWIDTH 8 0
BBX 7 5 0 0
BITMAP
20
40
FE
40
20
ENDCHAR
STARTCHAR U+2191
ENCODING 8593
SWIDTH 666 0
DWIDTH 8 0
BBX 5 7 1 -1
BITMAP
20
70
A8
20
20
20
20
ENDCHAR
STARTCHAR U+2192
ENCODING 8594
SWIDTH 666 0
DWIDTH 8 0
BBX 7 5 0 0
BITMAP
08
04
FE
04
08
ENDCHAR
STARTCHAR U+2193
ENCODING 8595
SWIDTH 666 0
DWIDTH 8 0
BBX 5 7 1 -1
BITMAP
20
20
20
20
A8
70
20
ENDCHAR
STARTCHAR U+2194
ENCODING 8596
SWIDTH 666 0
DWIDTH 8 0
BBX 7 5 0 0
BITMAP
28
44
FE
44
28
ENDCHAR
STARTCHAR U+2195
ENCODING 8597
SWIDTH 666 0
DWIDTH 8 0
BBX 5 7 1 -1
BITMAP
20
70
A8
20
A8
70
20
ENDCHAR
STARTCHAR U+2196
ENCODING 8598
SWIDTH 666 0
DWIDTH 8 0
BBX 5 5 1 0
BITMAP
E0
C0
A0
10
08
ENDCHAR
STARTCHAR U+2197
ENCODING 8599
SWIDTH 666 0
DWIDTH 8 0
BBX 5 5 1 0
BITMAP
38
18
28
40
80
ENDCHAR
STARTCHAR U+2198
ENCODING 8600
SWIDTH 666 0
DWIDTH 8 0
BBX 5 5 1 0
BITMAP
80
40
28
18
38
ENDCHAR
STARTCHAR U+2199
ENCODING 8601
SWIDTH 666 0
DWIDTH 8 0
BBX 5 5 1 0
BITMAP
08
10
A0
C0
E0
ENDCHAR
STARTCHAR U+21CE
ENCODING 8654
SWIDTH 666 0
DWIDTH 8 0
BBX 7 7 0 -2
BITMAP
02
2C
64
FE
4C
68
80
ENDCHAR
STARTCHAR U+21D2
ENCODING 8658
SWIDTH 666 0
DWIDTH 8 0
BBX 7 5 0 -1
BITMAP
08
FC
02
FC
08
ENDCHAR
STARTCHAR U+21D4
ENCODING 8660
SWIDTH 666 0
DWIDTH 8 0
BBX 7 5 0 -1
BITMAP
28
7C
82
7C
28
ENDCHAR
STARTCHAR U+2200
ENCODING 8704
SWIDTH 666 0
DWIDTH 8 0
BBX 7 7 0 -1
BITMAP
82
82
7C
44
28
28
10
ENDCHAR
STARTCHAR U+2202
ENCODING 8706
SWIDTH 666 0
DWIDTH 8 0
BBX 5 7 1 -1
BITMAP
30
48
08
78
90
90
E0
ENDCHAR
STARTCHAR U+2203
ENCODING 8707
SWIDTH 666 0
DWIDTH 8 0
BBX 7 7 0 -1
BITMAP
FE
02
02
FE
02
02
FE
ENDCHAR
STARTCHAR U+2206
ENCODING 8710
SWIDTH 666 0
DWIDTH 8 0
BBX 7 7 0 -1
BITMAP
10
28
28
44
44
82
FE
ENDCHAR
STARTCHAR U+2207
ENCODING 8711
SWIDTH 666 0
DWIDTH 8 0
BBX 7 7 0 -1
BITMAP
FE
82
44
44
28
28
10
ENDCHAR
STARTCHAR U+2208
ENCODING 8712
SWIDTH 666 0
DWIDTH 8 0
BBX 7 7 0 -1
BITMAP
3E
40
80
FE
80
40
3E
ENDCHAR
STARTCHAR U+220B
ENCODING 8715
SWIDTH 666 0
DWIDTH 8 0
BBX 7 7 0 -1
BITMAP
F8
04
02
FE
02
04
F8
ENDCHAR
STARTCHAR U+220F
ENCODING 8719
SWIDTH 666 0
DWIDTH 8 0
BBX 7 7 0 -2
BITMAP
FE
44
44
44
44
44
EE
ENDCHAR
STARTCHAR U+2211
ENCODING 8721
SWIDTH 666 0
DWIDTH 8 0
BBX 5 7 1 -1
BITMAP
F8
80
40
20
40
80
F8
ENDCHAR
STARTCHAR U+2212
ENCODING 8722
SWIDTH 333 0
DWIDTH 4 0
BBX 3 1 0 1
BITMAP
E0
ENDCHAR
STARTCHAR U+2219
ENCODING 8729
SWIDTH 666 0
DWIDTH 8 0
BBX 1 1 3 1
BITMAP
80
ENDCHAR
STARTCHAR U+221A
ENCODING 8730
SWIDTH 666 0
DWIDTH 8 0
BBX 7 7 0 -1
BITMAP
1E
10
10
20
20
A0
60
ENDCHAR
STARTCHAR U+221D
ENCODING 8733
SWIDTH 666 0
DWIDTH 8 0
BBX 7 5 0 0
BITMAP
66
98
88
98
66
ENDCHAR
STARTCHAR U+221E
ENCODING 8734
SWIDTH 666 0
DWIDTH 8 0
BBX 7 4 0 1
BITMAP
64
9A
B2
4C
ENDCHAR
STARTCHAR U+221F
ENCODING 8735
SWIDTH 666 0
DWIDTH 8 0
BBX 6 6 1 0
BITMAP
80
80
80
80
80
FC
ENDCHAR
STARTCHAR U+2220
ENCODING 8736
SWIDTH 666 0
DWIDTH 8 0
BBX 7 6 0 0
BITMAP
04
08
10
20
40
FE
ENDCHAR
STARTCHAR U+2223
ENCODING 8739
SWIDTH 666 0
DWIDTH 8 0
BBX 1 5 3 -1
BITMAP
80
80
80
80
80
ENDCHAR
STARTCHAR U+2225
ENCODING 8741
SWIDTH 666 0
DWIDTH 8 0
BBX 5 7 1 -2
BITMAP
28
28
50
50
50
A0
A0
ENDCHAR
STARTCHAR U+2227
ENCODING 8743
SWIDTH 666 0
DWIDTH 8 0
BBX 7 7 0 -1
BITMAP
10
10
28
28
44
44
82
ENDCHAR
STARTCHAR U+2228
ENCODING 8744
SWIDTH 666 0
DWIDTH 8 0
BBX 7 7 0 -1
BITMAP
82
44
44
28
28
10
10
ENDCHAR
STARTCHAR U+2229
ENCODING 8745
SWIDTH 666 0
DWIDTH 8 0
BBX 6 7 0 -1
BITMAP
84
84
84
84
84
48
30
ENDCHAR
STARTCHAR U+222A
ENCODING 8746
SWIDTH 666 0
DWIDTH 8 0
BBX 6 7 0 -1
BITMAP
30
48
84
84
84
84
84
ENDCHAR
STARTCHAR U+222B
ENCODING 8747
SWIDTH 666 0
DWIDTH 8 0
BBX 3 7 2 -1
BITMAP
40
A0
80
40
20
A0
40
ENDCHAR
STARTCHAR U+222C
ENCODING 8748
SWIDTH 666 0
DWIDTH 8 0
BBX 6 7 0 -1
BITMAP
48
B4
90
48
24
B4
48
ENDCHAR
STARTCHAR U+222E
ENCODING 8750
SWIDTH 666 0
DWIDTH 8 0
BBX 5 7 1 -2
BITMAP
30
40
70
A8
70
10
60
ENDCHAR
STARTCHAR U+2234
ENCODING 8756
SWIDTH 666 0
DWIDTH 8 0
BBX 6 6 0 0
BITMAP
30
30
00
00
CC
CC
ENDCHAR
STARTCHAR U+2235
ENCODING 8757
SWIDTH 666 0
DWIDTH 8 0
BBX 6 6 0 0
BITMAP
CC
CC
00
00
30
30
ENDCHAR
STARTCHAR U+2237
ENCODING 8759
SWIDTH 666 0
DWIDTH 8 0
BBX 3 3 2 0
BITMAP
A0
00
A0
ENDCHAR
STARTCHAR U+223C
ENCODING 8764
SWIDTH 416 0
DWIDTH 5 0
BBX 4 2 0 1
BITMAP
50
A0
ENDCHAR
STARTCHAR U+223D
ENCODING 8765
SWIDTH 666 0
DWIDTH 8 0
BBX 7 5 0 0
BITMAP
64
8A
92
A2
4C
ENDCHAR
STARTCHAR U+2248
ENCODING 8776
SWIDTH 666 0
DWIDTH 8 0
BBX 6 5 1 -1
BITMAP
64
98
00
64
98
ENDCHAR
STARTCHAR U+2252
ENCODING 8786
SWIDTH 666 0
DWIDTH 8 0
BBX 7 7 0 -1
BITMAP
40
00
FE
00
FE
00
04
ENDCHAR
STARTCHAR U+2256
ENCODING 8790
SWIDTH 666 0
DWIDTH 8 0
BBX 7 5 0 -1
BITMAP
FE
28
44
28
FE
ENDCHAR
STARTCHAR U+225D
ENCODING 8797
SWIDTH 666 0
DWIDTH 8 0
BBX 7 7 0 -2
BITMAP
46
D4
DC
00
FE
00
FE
ENDCHAR
STARTCHAR U+2260
ENCODING 8800
SWIDTH 666 0
DWIDTH 8 0
BBX 7 5 0 0
BITMAP
08
FE
10
FE
20
ENDCHAR
STARTCHAR U+2261
ENCODING 8801
SWIDTH 666 0
DWIDTH 8 0
BBX 7 5 0 0
BITMAP
FE
00
FE
00
FE
ENDCHAR
STARTCHAR U+2264
ENCODING 8804
SWIDTH 666 0
DWIDTH 8 0
BBX 7 7 0 -1
BITMAP
06
38
C0
38
06
00
FE
ENDCHAR
STARTCHAR U+2265
ENCODING 8805
SWIDTH 583 0
DWIDTH 7 0
BBX 7 7 0 -1
BITMAP
C0
38
06
38
C0
00
FE
ENDCHAR
STARTCHAR U+2266
ENCODING 8806
SWIDTH 666 0
DWIDTH 8 0
BBX 7 7 0 -1
BITMAP
1E
E0
18
06
FE
00
FE
ENDCHAR
STARTCHAR U+2267
ENCODING 8807
SWIDTH 666 0
DWIDTH 8 0
BBX 7 7 0 -1
BITMAP
F0
0E
30
C0
FE
00
FE
ENDCHAR
STARTCHAR U+226A
ENCODING 8810
SWIDTH 666 0
DWIDTH 8 0
BBX 6 7 0 -1
BITMAP
14
28
50
A0
50
28
14
ENDCHAR
STARTCHAR U+226B
ENCODING 8811
SWIDTH 666 0
DWIDTH 8 0
BBX 6 7 1 -1
BITMAP
A0
50
28
14
28
50
A0
ENDCHAR
STARTCHAR U+227C
ENCODING 8828
SWIDTH 666 0
DWIDTH 8 0
BBX 7 7 0 -2
BITMAP
06
38
C0
38
06
F0
0E
ENDCHAR
STARTCHAR U+227D
ENCODING 8829
SWIDTH 666 0
DWIDTH 8 0
BBX 7 7 0 -2
BITMAP
C0
38
06
38
C0
1E
E0
ENDCHAR
STARTCHAR U+2282
ENCODING 8834
SWIDTH 666 0
DWIDTH 8 0
BBX 7 6 0 0
BITMAP
3E
40
80
80
40
3E
ENDCHAR
STARTCHAR U+2283
ENCODING 8835
SWIDTH 666 0
DWIDTH 8 0
BBX 7 6 0 0
BITMAP
F8
04
02
02
04
F8
ENDCHAR
STARTCHAR U+2286
ENCODING 8838
SWIDTH 666 0
DWIDTH 8 0
BBX 7 7 0 -1
BITMAP
7E
80
80
80
7E
00
FE
ENDCHAR
STARTCHAR U+2287
ENCODING 8839
SWIDTH 666 0
DWIDTH 8 0
BBX 7 7 0 -1
BITMAP
FC
02
02
02
FC
00
FE
ENDCHAR
STARTCHAR U+2295
ENCODING 8853
SWIDTH 666 0
DWIDTH 8 0
BBX 5 5 1 -1
BITMAP
70
A8
F8
A8
70
ENDCHAR
STARTCHAR U+2296
ENCODING 8854
SWIDTH 666 0
DWIDTH 8 0
BBX 7 7 0 -2
BITMAP
38
44
82
FE
82
44
38
ENDCHAR
STARTCHAR U+2299
ENCODING 8857
SWIDTH 666 0
DWIDTH 8 0
BBX 7 7 0 -2
BITMAP
38
44
82
92
82
44
38
ENDCHAR
STARTCHAR U+229C
ENCODING 8860
SWIDTH 666 0
DWIDTH 8 0
BBX 7 7 0 -2
BITMAP
38
44
BA
82
BA
44
38
ENDCHAR
STARTCHAR U+22A5
ENCODING 8869
SWIDTH 666 0
DWIDTH 8 0
BBX 7 6 0 0
BITMAP
10
10
10
10
10
FE
ENDCHAR
STARTCHAR U+22B9
ENCODING 8889
SWIDTH 666 0
DWIDTH 8 0
BBX 7 7 0 -2
BITMAP
10
10
00
C6
00
10
10
ENDCHAR
STARTCHAR U+22BF
ENCODING 8895
SWIDTH 666 0
DWIDTH 8 0
BBX 6 6 0 0
BITMAP
04
0C
14
24
44
FC
ENDCHAR
STARTCHAR U+22DA
ENCODING 8922
SWIDTH 666 0
DWIDTH 8 0
BBX 7 7 0 -2
BITMAP
1E
E0
18
FE
30
0E
F0
ENDCHAR
STARTCHAR U+22DB
ENCODING 8923
SWIDTH 666 0
DWIDTH 8 0
BBX 7 7 0 -2
BITMAP
F0
0E
30
FE
18
E0
1E
ENDCHAR
STARTCHAR U+2312
ENCODING 8978
SWIDTH 666 0
DWIDTH 8 0
BBX 7 2 0 3
BITMAP
7C
82
ENDCHAR
STARTCHAR U+239B
ENCODING 9115
SWIDTH 666 0
DWIDTH 8 0
BBX 2 7 3 -2
BITMAP
40
80
80
80
80
80
80
ENDCHAR
STARTCHAR U+239D
ENCODING 9117
SWIDTH 666 0
DWIDTH 8 0
BBX 2 7 3 -2
BITMAP
80
80
80
80
80
80
40
ENDCHAR
STARTCHAR U+239E
ENCODING 9118
SWIDTH 666 0
DWIDTH 8 0
BBX 2 7 2 -2
BITMAP
80
40
40
40
40
40
40
ENDCHAR
STARTCHAR U+23A0
ENCODING 9120
SWIDTH 666 0
DWIDTH 8 0
BBX 2 7 2 -2
BITMAP
40
40
40
40
40
40
80
ENDCHAR
STARTCHAR U+23A9
ENCODING 9129
SWIDTH 666 0
DWIDTH 8 0
BBX 3 7 2 -2
BITMAP
80
80
80
80
80
40
20
ENDCHAR
STARTCHAR U+23AD
ENCODING 9133
SWIDTH 666 0
DWIDTH 8 0
BBX 3 7 2 -2
BITMAP
20
20
20
20
20
40
80
ENDCHAR
STARTCHAR U+2460
ENCODING 9312
SWIDTH 666 0
DWIDTH 8 0
BBX 7 7 0 -1
BITMAP
38
44
92
92
92
44
38
ENDCHAR
STARTCHAR U+2461
ENCODING 9313
SWIDTH 666 0
DWIDTH 8 0
BBX 7 7 0 -1
BITMAP
38
44
BA
92
BA
44
38
ENDCHAR
STARTCHAR U+2462
ENCODING 9314
SWIDTH 666 0
DWIDTH 8 0
BBX 7 7 0 -1
BITMAP
38
54
AA
92
AA
54
38
ENDCHAR
STARTCHAR U+2463
ENCODING 9315
SWIDTH 666 0
DWIDTH 8 0
BBX 7 7 0 -1
BITMAP
38
44
9A
AA
BA
4C
38
ENDCHAR
STARTCHAR U+2464
ENCODING 9316
SWIDTH 666 0
DWIDTH 8 0
BBX 7 7 0 -1
BITMAP
38
64
B2
8A
AA
54
38
ENDCHAR
STARTCHAR U+2465
ENCODING 9317
SWIDTH 666 0
DWIDTH 8 0
BBX 7 7 0 -1
BITMAP
38
54
A2
B2
AA
54
38
ENDCHAR
STARTCHAR U+2466
ENCODING 9318
SWIDTH 666 0
DWIDTH 8 0
BBX 7 7 0 -1
BITMAP
38
44
BA
8A
92
54
38
ENDCHAR
STARTCHAR U+2467
ENCODING 9319
SWIDTH 666 0
DWIDTH 8 0
BBX 7 7 0 -1
BITMAP
38
54
AA
92
AA
54
38
ENDCHAR
STARTCHAR U+2468
ENCODING 9320
SWIDTH 666 0
DWIDTH 8 0
BBX 7 7 0 -1
BITMAP
38
6C
AA
9A
8A
6C
38
ENDCHAR
STARTCHAR U+2469
ENCODING 9321
SWIDTH 666 0
DWIDTH 8 0
BBX 7 7 0 -1
BITMAP
38
64
AA
AA
AA
64
38
ENDCHAR
STARTCHAR U+246A
ENCODING 9322
SWIDTH 666 0
DWIDTH 8 0
BBX 7 7 0 -1
BITMAP
38
6C
AA
AA
AA
6C
38
ENDCHAR
STARTCHAR U+246B
ENCODING 9323
SWIDTH 666 0
DWIDTH 8 0
BBX 7 7 0 -1
BITMAP
38
6C
B6
AA
B2
6C
38
ENDCHAR
STARTCHAR U+246C
ENCODING 9324
SWIDTH 666 0
DWIDTH 8 0
BBX 7 7 0 -1
BITMAP
38
54
AA
B2
AA
54
38
ENDCHAR
STARTCHAR U+246D
ENCODING 9325
SWIDTH 666 0
DWIDTH 8 0
BBX 7 7 0 -1
BITMAP
38
44
AA
BE
AA
4C
38
ENDCHAR
STARTCHAR U+246E
ENCODING 9326
SWIDTH 666 0
DWIDTH 8 0
BBX 7 7 0 -1
BITMAP
38
44
AA
AA
A6
54
38
ENDCHAR
STARTCHAR U+246F
ENCODING 9327
SWIDTH 666 0
DWIDTH 8 0
BBX 7 7 0 -1
BITMAP
38
44
AA
AE
AA
4C
38
ENDCHAR
STARTCHAR U+2470
ENCODING 9328
SWIDTH 666 0
DWIDTH 8 0
BBX 7 7 0 -1
BITMAP
38
44
BE
AA
AA
44
38
ENDCHAR
STARTCHAR U+2471
ENCODING 9329
SWIDTH 666 0
DWIDTH 8 0
BBX 7 7 0 -1
BITMAP
38
4C
B6
AA
B6
4C
38
ENDCHAR
STARTCHAR U+2472
ENCODING 9330
SWIDTH 666 0
DWIDTH 8 0
BBX 7 7 0 -1
BITMAP
38
44
AA
AA
A6
54
38
ENDCHAR
STARTCHAR U+2473
ENCODING 9331
SWIDTH 666 0
DWIDTH 8 0
BBX 7 7 0 -1
BITMAP
38
44
AA
AA
AA
44
38
ENDCHAR
STARTCHAR U+2474
ENCODING 9332
SWIDTH 666 0
DWIDTH 8 0
BBX 7 7 0 -2
BITMAP
44
92
B2
92
92
BA
44
ENDCHAR
STARTCHAR U+2475
ENCODING 9333
SWIDTH 666 0
DWIDTH 8 0
BBX 7 7 0 -2
BITMAP
44
B2
8A
92
A2
BA
44
ENDCHAR
STARTCHAR U+2476
ENCODING 9334
SWIDTH 666 0
DWIDTH 8 0
BBX 7 7 0 -2
BITMAP
44
B2
8A
92
8A
B2
44
ENDCHAR
STARTCHAR U+2477
ENCODING 9335
SWIDTH 666 0
DWIDTH 8 0
BBX 7 7 0 -2
BITMAP
44
8A
9A
AA
BA
8A
44
ENDCHAR
STARTCHAR U+2478
ENCODING 9336
SWIDTH 666 0
DWIDTH 8 0
BBX 7 7 0 -2
BITMAP
44
BA
A2
B2
8A
B2
44
ENDCHAR
STARTCHAR U+2479
ENCODING 9337
SWIDTH 666 0
DWIDTH 8 0
BBX 7 7 0 -2
BITMAP
44
92
A2
B2
AA
92
44
ENDCHAR
STARTCHAR U+247A
ENCODING 9338
SWIDTH 666 0
DWIDTH 8 0
BBX 7 7 0 -2
BITMAP
44
BA
8A
92
92
92
44
ENDCHAR
STARTCHAR U+247B
ENCODING 9339
SWIDTH 666 0
DWIDTH 8 0
BBX 7 7 0 -2
BITMAP
44
92
AA
92
AA
92
44
ENDCHAR
STARTCHAR U+247C
ENCODING 9340
SWIDTH 666 0
DWIDTH 8 0
BBX 7 7 0 -2
BITMAP
44
92
AA
9A
8A
92
44
ENDCHAR
STARTCHAR U+247D
ENCODING 9341
SWIDTH 666 0
DWIDTH 8 0
BBX 7 7 0 -2
BITMAP
44
A2
EE
AA
AE
A2
44
ENDCHAR
STARTCHAR U+247E
ENCODING 9342
SWIDTH 666 0
DWIDTH 8 0
BBX 7 7 0 -2
BITMAP
44
A6
EE
A6
A6
A6
44
ENDCHAR
STARTCHAR U+247F
ENCODING 9343
SWIDTH 666 0
DWIDTH 8 0
BBX 7 7 0 -2
BITMAP
44
AA
E6
AE
AA
AE
44
ENDCHAR
STARTCHAR U+2480
ENCODING 9344
SWIDTH 666 0
DWIDTH 8 0
BBX 7 7 0 -2
BITMAP
44
AA
E6
AA
A6
AA
44
ENDCHAR
STARTCHAR U+2481
ENCODING 9345
SWIDTH 666 0
DWIDTH 8 0
BBX 7 7 0 -2
BITMAP
44
AA
EA
AE
A6
A6
44
ENDCHAR
STARTCHAR U+2482
ENCODING 9346
SWIDTH 666 0
DWIDTH 8 0
BBX 7 7 0 -2
BITMAP
44
AE
EA
AE
A6
AA
44
ENDCHAR
STARTCHAR U+2483
ENCODING 9347
SWIDTH 666 0
DWIDTH 8 0
BBX 7 7 0 -2
BITMAP
44
A6
EA
AE
AE
AE
44
ENDCHAR
STARTCHAR U+2484
ENCODING 9348
SWIDTH 666 0
DWIDTH 8 0
BBX 7 7 0 -2
BITMAP
44
AE
E6
AA
AA
AA
44
ENDCHAR
STARTCHAR U+2485
ENCODING 9349
SWIDTH 666 0
DWIDTH 8 0
BBX 7 7 0 -2
BITMAP
44
AE
EE
A2
AE
AE
44
ENDCHAR
STARTCHAR U+2486
ENCODING 9350
SWIDTH 666 0
DWIDTH 8 0
BBX 7 7 0 -2
BITMAP
44
AE
EE
AE
A6
AA
44
ENDCHAR
STARTCHAR U+2487
ENCODING 9351
SWIDTH 666 0
DWIDTH 8 0
BBX 7 7 0 -2
BITMAP
44
E2
AE
EA
CE
E2
44
ENDCHAR
STARTCHAR U+2488
ENCODING 9352
SWIDTH 666 0
DWIDTH 8 0
BBX 5 7 2 -2
BITMAP
40
C0
40
40
40
40
E8
ENDCHAR
STARTCHAR U+2489
ENCODING 9353
SWIDTH 666 0
DWIDTH 8 0
BBX 5 7 2 -2
BITMAP
C0
20
20
40
80
80
E8
ENDCHAR
STARTCHAR U+248A
ENCODING 9354
SWIDTH 666 0
DWIDTH 8 0
BBX 5 7 2 -2
BITMAP
C0
20
20
40
20
20
C8
ENDCHAR
STARTCHAR U+248B
ENCODING 9355
SWIDTH 666 0
DWIDTH 8 0
BBX 5 7 2 -2
BITMAP
20
60
A0
A0
A0
E0
28
ENDCHAR
STARTCHAR U+248C
ENCODING 9356
SWIDTH 666 0
DWIDTH 8 0
BBX 5 7 2 -2
BITMAP
E0
80
C0
20
20
20
C8
ENDCHAR
STARTCHAR U+248D
ENCODING 9357
SWIDTH 666 0
DWIDTH 8 0
BBX 5 7 2 -2
BITMAP
40
80
C0
A0
A0
A0
48
ENDCHAR
STARTCHAR U+248E
ENCODING 9358
SWIDTH 666 0
DWIDTH 8 0
BBX 5 7 2 -2
BITMAP
E0
20
20
40
40
40
48
ENDCHAR
STARTCHAR U+248F
ENCODING 9359
SWIDTH 666 0
DWIDTH 8 0
BBX 5 7 2 -2
BITMAP
40
A0
A0
40
A0
A0
48
ENDCHAR
STARTCHAR U+2490
ENCODING 9360
SWIDTH 666 0
DWIDTH 8 0
BBX 5 7 2 -2
BITMAP
40
A0
A0
A0
60
20
48
ENDCHAR
STARTCHAR U+2491
ENCODING 9361
SWIDTH 666 0
DWIDTH 8 0
BBX 7 7 0 -2
BITMAP
48
D4
54
54
54
54
4A
ENDCHAR
STARTCHAR U+2492
ENCODING 9362
SWIDTH 666 0
DWIDTH 8 0
BBX 7 7 0 -2
BITMAP
48
D8
48
48
48
48
4A
ENDCHAR
STARTCHAR U+2493
ENCODING 9363
SWIDTH 666 0
DWIDTH 8 0
BBX 7 7 0 -2
BITMAP
58
C4
44
48
50
50
5A
ENDCHAR
STARTCHAR U+2494
ENCODING 9364
SWIDTH 666 0
DWIDTH 8 0
BBX 7 7 0 -2
BITMAP
58
C4
44
48
44
44
5A
ENDCHAR
STARTCHAR U+2495
ENCODING 9365
SWIDTH 666 0
DWIDTH 8 0
BBX 7 7 0 -2
BITMAP
48
D8
68
68
68
78
4A
ENDCHAR
STARTCHAR U+2496
ENCODING 9366
SWIDTH 666 0
DWIDTH 8 0
BBX 7 7 0 -2
BITMAP
5C
D0
58
44
44
44
5A
ENDCHAR
STARTCHAR U+2497
ENCODING 9367
SWIDTH 666 0
DWIDTH 8 0
BBX 7 7 0 -2
BITMAP
48
D0
58
54
54
54
4A
ENDCHAR
STARTCHAR U+2498
ENCODING 9368
SWIDTH 666 0
DWIDTH 8 0
BBX 7 7 0 -2
BITMAP
5C
C4
44
48
48
48
4A
ENDCHAR
STARTCHAR U+2499
ENCODING 9369
SWIDTH 666 0
DWIDTH 8 0
BBX 7 7 0 -2
BITMAP
48
D4
54
48
54
54
4A
ENDCHAR
STARTCHAR U+249A
ENCODING 9370
SWIDTH 666 0
DWIDTH 8 0
BBX 7 7 0 -2
BITMAP
48
D4
54
54
4C
44
4A
ENDCHAR
STARTCHAR U+249B
ENCODING 9371
SWIDTH 666 0
DWIDTH 8 0
BBX 7 7 0 -2
BITMAP
C8
34
34
54
94
94
EA
ENDCHAR
STARTCHAR U+249C
ENCODING 9372
SWIDTH 666 0
DWIDTH 8 0
BBX 7 7 0 -2
BITMAP
44
82
9A
AA
AA
9A
44
ENDCHAR
STARTCHAR U+249D
ENCODING 9373
SWIDTH 666 0
DWIDTH 8 0
BBX 7 7 0 -2
BITMAP
44
A2
A2
B2
AA
B2
44
ENDCHAR
STARTCHAR U+249E
ENCODING 9374
SWIDTH 666 0
DWIDTH 8 0
BBX 7 7 0 -2
BITMAP
44
82
9A
A2
A2
9A
44
ENDCHAR
STARTCHAR U+249F
ENCODING 9375
SWIDTH 666 0
DWIDTH 8 0
BBX 7 7 0 -2
BITMAP
44
8A
8A
9A
AA
9A
44
ENDCHAR
STARTCHAR U+24A0
ENCODING 9376
SWIDTH 666 0
DWIDTH 8 0
BBX 7 7 0 -2
BITMAP
44
82
9A
BA
A2
9A
44
ENDCHAR
STARTCHAR U+24A1
ENCODING 9377
SWIDTH 666 0
DWIDTH 8 0
BBX 7 7 0 -2
BITMAP
44
9A
92
BA
92
92
44
ENDCHAR
STARTCHAR U+24A2
ENCODING 9378
SWIDTH 666 0
DWIDTH 8 0
BBX 7 7 0 -2
BITMAP
44
9A
AA
9A
8A
B2
44
ENDCHAR
STARTCHAR U+24A3
ENCODING 9379
SWIDTH 666 0
DWIDTH 8 0
BBX 7 7 0 -2
BITMAP
44
A2
A2
B2
AA
AA
44
ENDCHAR
STARTCHAR U+24A4
ENCODING 9380
SWIDTH 666 0
DWIDTH 8 0
BBX 7 7 0 -2
BITMAP
44
92
82
92
92
92
44
ENDCHAR
STARTCHAR U+24A5
ENCODING 9381
SWIDTH 666 0
DWIDTH 8 0
BBX 7 7 0 -2
BITMAP
44
92
82
92
92
B2
44
ENDCHAR
STARTCHAR U+24A6
ENCODING 9382
SWIDTH 666 0
DWIDTH 8 0
BBX 7 7 0 -2
BITMAP
44
A2
A2
AA
B2
AA
44
ENDCHAR
STARTCHAR U+24A7
ENCODING 9383
SWIDTH 666 0
DWIDTH 8 0
BBX 7 7 0 -2
BITMAP
44
B2
92
92
92
92
44
ENDCHAR
STARTCHAR U+24A8
ENCODING 9384
SWIDTH 666 0
DWIDTH 8 0
BBX 7 7 0 -2
BITMAP
44
82
B2
BA
BA
AA
44
ENDCHAR
STARTCHAR U+24A9
ENCODING 9385
SWIDTH 666 0
DWIDTH 8 0
BBX 7 7 0 -2
BITMAP
44
82
B2
AA
AA
AA
44
ENDCHAR
STARTCHAR U+24AA
ENCODING 9386
SWIDTH 666 0
DWIDTH 8 0
BBX 7 7 0 -2
BITMAP
44
82
92
AA
AA
92
44
ENDCHAR
STARTCHAR U+24AB
ENCODING 9387
SWIDTH 666 0
DWIDTH 8 0
BBX 7 7 0 -2
BITMAP
44
B2
AA
B2
A2
A2
44
ENDCHAR
STARTCHAR U+24AC
ENCODING 9388
SWIDTH 666 0
DWIDTH 8 0
BBX 7 7 0 -2
BITMAP
44
9A
AA
9A
8A
8A
44
ENDCHAR
STARTCHAR U+24AD
ENCODING 9389
SWIDTH 666 0
DWIDTH 8 0
BBX 7 7 0 -2
BITMAP
44
82
AA
B2
A2
A2
44
ENDCHAR
STARTCHAR U+24AE
ENCODING 9390
SWIDTH 666 0
DWIDTH 8 0
BBX 7 7 0 -2
BITMAP
44
82
9A
B2
9A
B2
44
ENDCHAR
STARTCHAR U+24AF
ENCODING 9391
SWIDTH 666 0
DWIDTH 8 0
BBX 7 7 0 -2
BITMAP
44
92
BA
92
92
9A
44
ENDCHAR
STARTCHAR U+24B0
ENCODING 9392
SWIDTH 666 0
DWIDTH 8 0
BBX 7 7 0 -2
BITMAP
44
82
AA
AA
AA
BA
44
ENDCHAR
STARTCHAR U+24B1
ENCODING 9393
SWIDTH 666 0
DWIDTH 8 0
BBX 7 7 0 -2
BITMAP
44
82
AA
AA
B2
A2
44
ENDCHAR
STARTCHAR U+24B2
ENCODING 9394
SWIDTH 666 0
DWIDTH 8 0
BBX 7 7 0 -2
BITMAP
44
82
AA
AA
BA
BA
44
ENDCHAR
STARTCHAR U+24B3
ENCODING 9395
SWIDTH 666 0
DWIDTH 8 0
BBX 7 7 0 -2
BITMAP
44
82
AA
92
92
AA
44
ENDCHAR
STARTCHAR U+24B4
ENCODING 9396
SWIDTH 666 0
DWIDTH 8 0
BBX 7 7 0 -2
BITMAP
44
AA
AA
9A
8A
B2
44
ENDCHAR
STARTCHAR U+24B5
ENCODING 9397
SWIDTH 666 0
DWIDTH 8 0
BBX 7 7 0 -2
BITMAP
44
BA
8A
92
A2
BA
44
ENDCHAR
STARTCHAR U+24BE
ENCODING 9406
SWIDTH 666 0
DWIDTH 8 0
BBX 7 7 0 -2
BITMAP
7C
92
92
92
92
92
7C
ENDCHAR
STARTCHAR U+24D4
ENCODING 9428
SWIDTH 666 0
DWIDTH 8 0
BBX 7 7 0 -2
BITMAP
7C
82
9A
BA
A2
9A
7C
ENDCHAR
STARTCHAR U+24DB
ENCODING 9435
SWIDTH 666 0
DWIDTH 8 0
BBX 7 7 0 -2
BITMAP
7C
92
92
92
92
92
7C
ENDCHAR
STARTCHAR U+24DE
ENCODING 9438
SWIDTH 666 0
DWIDTH 8 0
BBX 7 7 0 -2
BITMAP
38
44
92
AA
92
44
38
ENDCHAR
STARTCHAR U+24E5
ENCODING 9445
SWIDTH 666 0
DWIDTH 8 0
BBX 7 7 0 -2
BITMAP
7C
C6
AA
AA
AA
92
7C
ENDCHAR
STARTCHAR U+24EA
ENCODING 9450
SWIDTH 666 0
DWIDTH 8 0
BBX 7 7 0 -1
BITMAP
38
44
92
AA
92
44
38
ENDCHAR
STARTCHAR U+24EB
ENCODING 9451
SWIDTH 666 0
DWIDTH 8 0
BBX 7 7 0 -1
BITMAP
7C
D6
D6
D6
D6
D6
7C
ENDCHAR
STARTCHAR U+24EC
ENCODING 9452
SWIDTH 666 0
DWIDTH 8 0
BBX 7 7 0 -1
BITMAP
7C
A2
BA
A2
AE
A2
7C
ENDCHAR
STARTCHAR U+24ED
ENCODING 9453
SWIDTH 666 0
DWIDTH 8 0
BBX 7 7 0 -1
BITMAP
7C
A2
BA
A2
BA
A2
7C
ENDCHAR
STARTCHAR U+24EE
ENCODING 9454
SWIDTH 666 0
DWIDTH 8 0
BBX 7 7 0 -1
BITMAP
7C
AA
AA
A2
BA
BA
7C
ENDCHAR
STARTCHAR U+24EF
ENCODING 9455
SWIDTH 666 0
DWIDTH 8 0
BBX 7 7 0 -1
BITMAP
7C
A2
AE
A2
BA
A2
7C
ENDCHAR
STARTCHAR U+24F0
ENCODING 9456
SWIDTH 666 0
DWIDTH 8 0
BBX 7 7 0 -1
BITMAP
7C
A2
AE
A2
AA
A2
7C
ENDCHAR
STARTCHAR U+24F1
ENCODING 9457
SWIDTH 666 0
DWIDTH 8 0
BBX 7 7 0 -1
BITMAP
7C
A2
BA
B6
B6
B6
7C
ENDCHAR
STARTCHAR U+24F2
ENCODING 9458
SWIDTH 666 0
DWIDTH 8 0
BBX 7 7 0 -1
BITMAP
7C
A2
AA
A2
AA
A2
7C
ENDCHAR
STARTCHAR U+24F3
ENCODING 9459
SWIDTH 666 0
DWIDTH 8 0
BBX 7 7 0 -1
BITMAP
7C
A2
AA
A2
BA
A2
7C
ENDCHAR
STARTCHAR U+24F4
ENCODING 9460
SWIDTH 666 0
DWIDTH 8 0
BBX 7 7 0 -1
BITMAP
7C
82
EA
8A
AA
82
7C
ENDCHAR
STARTCHAR U+2500
ENCODING 9472
SWIDTH 666 0
DWIDTH 8 0
BBX 8 1 0 1
BITMAP
FF
ENDCHAR
STARTCHAR U+2502
ENCODING 9474
SWIDTH 666 0
DWIDTH 8 0
BBX 1 8 3 -3
BITMAP
80
80
80
80
80
80
80
80
ENDCHAR
STARTCHAR U+250C
ENCODING 9484
SWIDTH 666 0
DWIDTH 8 0
BBX 5 5 3 -3
BITMAP
F8
80
80
80
80
ENDCHAR
STARTCHAR U+2510
ENCODING 9488
SWIDTH 666 0
DWIDTH 8 0
BBX 4 5 0 -3
BITMAP
F0
10
10
10
10
ENDCHAR
STARTCHAR U+2514
ENCODING 9492
SWIDTH 666 0
DWIDTH 8 0
BBX 5 4 3 1
BITMAP
80
80
80
F8
ENDCHAR
STARTCHAR U+2518
ENCODING 9496
SWIDTH 666 0
DWIDTH 8 0
BBX 4 4 0 1
BITMAP
10
10
10
F0
ENDCHAR
STARTCHAR U+251C
ENCODING 9500
SWIDTH 666 0
DWIDTH 8 0
BBX 5 8 3 -3
BITMAP
80
80
80
F8
80
80
80
80
ENDCHAR
STARTCHAR U+2524
ENCODING 9508
SWIDTH 666 0
DWIDTH 8 0
BBX 4 8 0 -3
BITMAP
10
10
10
F0
10
10
10
10
ENDCHAR
STARTCHAR U+252C
ENCODING 9516
SWIDTH 666 0
DWIDTH 8 0
BBX 8 5 0 -3
BITMAP
FF
10
10
10
10
ENDCHAR
STARTCHAR U+2534
ENCODING 9524
SWIDTH 666 0
DWIDTH 8 0
BBX 8 4 0 1
BITMAP
10
10
10
FF
ENDCHAR
STARTCHAR U+253C
ENCODING 9532
SWIDTH 666 0
DWIDTH 8 0
BBX 8 8 0 -3
BITMAP
10
10
10
FF
10
10
10
10
ENDCHAR
STARTCHAR U+2550
ENCODING 9552
SWIDTH 666 0
DWIDTH 8 0
BBX 8 3 0 0
BITMAP
FF
00
FF
ENDCHAR
STARTCHAR U+2551
ENCODING 9553
SWIDTH 666 0
DWIDTH 8 0
BBX 3 8 2 -3
BITMAP
A0
A0
A0
A0
A0
A0
A0
A0
ENDCHAR
STARTCHAR U+2552
ENCODING 9554
SWIDTH 666 0
DWIDTH 8 0
BBX 5 6 3 -3
BITMAP
F8
80
F8
80
80
80
ENDCHAR
STARTCHAR U+2553
ENCODING 9555
SWIDTH 666 0
DWIDTH 8 0
BBX 5 5 3 -3
BITMAP
F8
A0
A0
A0
A0
ENDCHAR
STARTCHAR U+2554
ENCODING 9556
SWIDTH 666 0
DWIDTH 8 0
BBX 6 6 2 -3
BITMAP
FC
80
BC
A0
A0
A0
ENDCHAR
STARTCHAR U+2555
ENCODING 9557
SWIDTH 666 0
DWIDTH 8 0
BBX 4 6 0 -3
BITMAP
F0
10
F0
10
10
10
ENDCHAR
STARTCHAR U+2556
ENCODING 9558
SWIDTH 666 0
DWIDTH 8 0
BBX 5 5 0 -3
BITMAP
F8
28
28
28
28
ENDCHAR
STARTCHAR U+2557
ENCODING 9559
SWIDTH 666 0
DWIDTH 8 0
BBX 5 6 0 -3
BITMAP
F8
08
E8
28
28
28
ENDCHAR
STARTCHAR U+2558
ENCODING 9560
SWIDTH 666 0
DWIDTH 8 0
BBX 5 5 3 0
BITMAP
80
80
F8
80
F8
ENDCHAR
STARTCHAR U+2559
ENCODING 9561
SWIDTH 666 0
DWIDTH 8 0
BBX 6 4 2 1
BITMAP
A0
A0
A0
FC
ENDCHAR
STARTCHAR U+255A
ENCODING 9562
SWIDTH 666 0
DWIDTH 8 0
BBX 6 5 2 0
BITMAP
A0
A0
BC
80
FC
ENDCHAR
STARTCHAR U+255B
ENCODING 9563
SWIDTH 666 0
DWIDTH 8 0
BBX 4 5 0 0
BITMAP
10
10
F0
10
F0
ENDCHAR
STARTCHAR U+255C
ENCODING 9564
SWIDTH 666 0
DWIDTH 8 0
BBX 5 4 0 1
BITMAP
28
28
28
F8
ENDCHAR
STARTCHAR U+255D
ENCODING 9565
SWIDTH 666 0
DWIDTH 8 0
BBX 5 5 0 0
BITMAP
28
28
E8
08
F8
ENDCHAR
STARTCHAR U+255E
ENCODING 9566
SWIDTH 666 0
DWIDTH 8 0
BBX 5 8 3 -3
BITMAP
80
80
F8
80
F8
80
80
80
ENDCHAR
STARTCHAR U+255F
ENCODING 9567
SWIDTH 666 0
DWIDTH 8 0
BBX 6 8 2 -3
BITMAP
A0
A0
A0
BC
A0
A0
A0
A0
ENDCHAR
STARTCHAR U+2560
ENCODING 9568
SWIDTH 666 0
DWIDTH 8 0
BBX 6 8 2 -3
BITMAP
A0
A0
BC
80
BC
A0
A0
A0
ENDCHAR
STARTCHAR U+2561
ENCODING 9569
SWIDTH 666 0
DWIDTH 8 0
BBX 4 8 0 -3
BITMAP
10
10
F0
10
F0
10
10
10
ENDCHAR
STARTCHAR U+2562
ENCODING 9570
SWIDTH 666 0
DWIDTH 8 0
BBX 5 8 0 -3
BITMAP
28
28
28
E8
28
28
28
28
ENDCHAR
STARTCHAR U+2563
ENCODING 9571
SWIDTH 666 0
DWIDTH 8 0
BBX 5 8 0 -3
BITMAP
28
28
E8
08
E8
28
28
28
ENDCHAR
STARTCHAR U+2564
ENCODING 9572
SWIDTH 666 0
DWIDTH 8 0
BBX 8 6 0 -3
BITMAP
FF
00
FF
10
10
10
ENDCHAR
STARTCHAR U+2565
ENCODING 9573
SWIDTH 666 0
DWIDTH 8 0
BBX 8 5 0 -3
BITMAP
FF
28
28
28
28
ENDCHAR
STARTCHAR U+2566
ENCODING 9574
SWIDTH 666 0
DWIDTH 8 0
BBX 8 6 0 -3
BITMAP
FF
00
EF
28
28
28
ENDCHAR
STARTCHAR U+2567
ENCODING 9575
SWIDTH 666 0
DWIDTH 8 0
BBX 8 5 0 0
BITMAP
10
10
FF
00
FF
ENDCHAR
STARTCHAR U+2568
ENCODING 9576
SWIDTH 666 0
DWIDTH 8 0
BBX 8 4 0 1
BITMAP
28
28
28
FF
ENDCHAR
STARTCHAR U+2569
ENCODING 9577
SWIDTH 666 0
DWIDTH 8 0
BBX 8 5 0 0
BITMAP
28
28
EF
00
FF
ENDCHAR
STARTCHAR U+256A
ENCODING 9578
SWIDTH 666 0
DWIDTH 8 0
BBX 8 8 0 -3
BITMAP
10
10
FF
10
FF
10
10
10
ENDCHAR
STARTCHAR U+256B
ENCODING 9579
SWIDTH 666 0
DWIDTH 8 0
BBX 8 8 0 -3
BITMAP
28
28
28
FF
28
28
28
28
ENDCHAR
STARTCHAR U+256C
ENCODING 9580
SWIDTH 666 0
DWIDTH 8 0
BBX 8 8 0 -3
BITMAP
28
28
EF
00
EF
28
28
28
ENDCHAR
STARTCHAR U+2580
ENCODING 9600
SWIDTH 666 0
DWIDTH 8 0
BBX 7 3 0 2
BITMAP
FE
FE
FE
ENDCHAR
STARTCHAR U+2581
ENCODING 9601
SWIDTH 666 0
DWIDTH 8 0
BBX 8 1 0 -3
BITMAP
FF
ENDCHAR
STARTCHAR U+2582
ENCODING 9602
SWIDTH 666 0
DWIDTH 8 0
BBX 8 2 0 -3
BITMAP
FF
FF
ENDCHAR
STARTCHAR U+2583
ENCODING 9603
SWIDTH 666 0
DWIDTH 8 0
BBX 8 3 0 -3
BITMAP
FF
FF
FF
ENDCHAR
STARTCHAR U+2584
ENCODING 9604
SWIDTH 666 0
DWIDTH 8 0
BBX 8 4 0 -3
BITMAP
FF
FF
FF
FF
ENDCHAR
STARTCHAR U+2585
ENCODING 9605
SWIDTH 666 0
DWIDTH 8 0
BBX 8 5 0 -3
BITMAP
FF
FF
FF
FF
FF
ENDCHAR
STARTCHAR U+2586
ENCODING 9606
SWIDTH 666 0
DWIDTH 8 0
BBX 8 6 0 -3
BITMAP
FF
FF
FF
FF
FF
FF
ENDCHAR
STARTCHAR U+2587
ENCODING 9607
SWIDTH 666 0
DWIDTH 8 0
BBX 8 7 0 -3
BITMAP
FF
FF
FF
FF
FF
FF
FF
ENDCHAR
STARTCHAR U+2588
ENCODING 9608
SWIDTH 666 0
DWIDTH 8 0
BBX 8 8 0 -3
BITMAP
FF
FF
FF
FF
FF
FF
FF
FF
ENDCHAR
STARTCHAR U+2589
ENCODING 9609
SWIDTH 666 0
DWIDTH 8 0
BBX 7 8 0 -3
BITMAP
FE
FE
FE
FE
FE
FE
FE
FE
ENDCHAR
STARTCHAR U+258A
ENCODING 9610
SWIDTH 666 0
DWIDTH 8 0
BBX 6 8 0 -3
BITMAP
FC
FC
FC
FC
FC
FC
FC
FC
ENDCHAR
STARTCHAR U+258B
ENCODING 9611
SWIDTH 666 0
DWIDTH 8 0
BBX 5 8 0 -3
BITMAP
F8
F8
F8
F8
F8
F8
F8
F8
ENDCHAR
STARTCHAR U+258C
ENCODING 9612
SWIDTH 666 0
DWIDTH 8 0
BBX 4 8 0 -3
BITMAP
F0
F0
F0
F0
F0
F0
F0
F0
ENDCHAR
STARTCHAR U+258D
ENCODING 9613
SWIDTH 666 0
DWIDTH 8 0
BBX 3 8 0 -3
BITMAP
E0
E0
E0
E0
E0
E0
E0
E0
ENDCHAR
STARTCHAR U+258E
ENCODING 9614
SWIDTH 666 0
DWIDTH 8 0
BBX 2 8 0 -3
BITMAP
C0
C0
C0
C0
C0
C0
C0
C0
ENDCHAR
STARTCHAR U+258F
ENCODING 9615
SWIDTH 666 0
DWIDTH 8 0
BBX 1 8 0 -3
BITMAP
80
80
80
80
80
80
80
80
ENDCHAR
STARTCHAR U+2590
ENCODING 9616
SWIDTH 666 0
DWIDTH 8 0
BBX 4 7 3 -2
BITMAP
F0
F0
F0
F0
F0
F0
F0
ENDCHAR
STARTCHAR U+2591
ENCODING 9617
SWIDTH 666 0
DWIDTH 8 0
BBX 7 7 0 -2
BITMAP
AA
00
AA
00
AA
00
AA
ENDCHAR
STARTCHAR U+2592
ENCODING 9618
SWIDTH 666 0
DWIDTH 8 0
BBX 7 7 0 -2
BITMAP
54
AA
54
AA
54
AA
54
ENDCHAR
STARTCHAR U+2593
ENCODING 9619
SWIDTH 666 0
DWIDTH 8 0
BBX 7 7 0 -2
BITMAP
54
FE
54
FE
54
FE
54
ENDCHAR
STARTCHAR U+2594
ENCODING 9620
SWIDTH 666 0
DWIDTH 8 0
BBX 8 1 0 4
BITMAP
FF
ENDCHAR
STARTCHAR U+2595
ENCODING 9621
SWIDTH 666 0
DWIDTH 8 0
BBX 1 8 7 -3
BITMAP
80
80
80
80
80
80
80
80
ENDCHAR
STARTCHAR U+25A0
ENCODING 9632
SWIDTH 666 0
DWIDTH 8 0
BBX 7 7 0 -1
BITMAP
FE
FE
FE
FE
FE
FE
FE
ENDCHAR
STARTCHAR U+25A1
ENCODING 9633
SWIDTH 666 0
DWIDTH 8 0
BBX 7 7 0 -1
BITMAP
FE
82
82
82
82
82
FE
ENDCHAR
STARTCHAR U+25A2
ENCODING 9634
SWIDTH 666 0
DWIDTH 8 0
BBX 7 7 0 -1
BITMAP
7C
82
82
82
82
82
7C
ENDCHAR
STARTCHAR U+25A3
ENCODING 9635
SWIDTH 666 0
DWIDTH 8 0
BBX 7 7 0 -1
BITMAP
FE
82
BA
BA
BA
82
FE
ENDCHAR
STARTCHAR U+25A4
ENCODING 9636
SWIDTH 666 0
DWIDTH 8 0
BBX 7 7 0 -1
BITMAP
FE
82
FE
82
FE
82
FE
ENDCHAR
STARTCHAR U+25A5
ENCODING 9637
SWIDTH 666 0
DWIDTH 8 0
BBX 7 7 0 -1
BITMAP
FE
AA
AA
AA
AA
AA
FE
ENDCHAR
STARTCHAR U+25A6
ENCODING 9638
SWIDTH 666 0
DWIDTH 8 0
BBX 7 7 0 -1
BITMAP
FE
AA
FE
AA
FE
AA
FE
ENDCHAR
STARTCHAR U+25A7
ENCODING 9639
SWIDTH 666 0
DWIDTH 8 0
BBX 7 7 0 -1
BITMAP
FE
CA
A6
92
CA
A6
FE
ENDCHAR
STARTCHAR U+25A8
ENCODING 9640
SWIDTH 666 0
DWIDTH 8 0
BBX 7 7 0 -1
BITMAP
FE
A6
CA
92
A6
CA
FE
ENDCHAR
STARTCHAR U+25A9
ENCODING 9641
SWIDTH 666 0
DWIDTH 8 0
BBX 7 7 0 -1
BITMAP
FE
D6
AA
D6
AA
D6
FE
ENDCHAR
STARTCHAR U+25AA
ENCODING 9642
SWIDTH 666 0
DWIDTH 8 0
BBX 3 3 2 1
BITMAP
E0
E0
E0
ENDCHAR
STARTCHAR U+25AB
ENCODING 9643
SWIDTH 666 0
DWIDTH 8 0
BBX 3 3 2 1
BITMAP
E0
A0
E0
ENDCHAR
STARTCHAR U+25AC
ENCODING 9644
SWIDTH 666 0
DWIDTH 8 0
BBX 7 3 0 0
BITMAP
FE
FE
FE
ENDCHAR
STARTCHAR U+25B0
ENCODING 9648
SWIDTH 666 0
DWIDTH 8 0
BBX 7 5 0 -1
BITMAP
3E
3E
7C
F8
F8
ENDCHAR
STARTCHAR U+25B2
ENCODING 9650
SWIDTH 666 0
DWIDTH 8 0
BBX 7 7 0 -1
BITMAP
10
38
38
7C
7C
FE
FE
ENDCHAR
STARTCHAR U+25B3
ENCODING 9651
SWIDTH 666 0
DWIDTH 8 0
BBX 7 7 0 -1
BITMAP
10
28
28
44
44
82
FE
ENDCHAR
STARTCHAR U+25B6
ENCODING 9654
SWIDTH 666 0
DWIDTH 8 0
BBX 7 7 0 -1
BITMAP
C0
F0
FC
FE
FC
F0
C0
ENDCHAR
STARTCHAR U+25B7
ENCODING 9655
SWIDTH 666 0
DWIDTH 8 0
BBX 7 7 0 -1
BITMAP
C0
B0
8C
82
8C
B0
C0
ENDCHAR
STARTCHAR U+25BA
ENCODING 9658
SWIDTH 666 0
DWIDTH 8 0
BBX 7 5 0 -1
BITMAP
C0
F8
FE
F8
C0
ENDCHAR
STARTCHAR U+25BB
ENCODING 9659
SWIDTH 666 0
DWIDTH 8 0
BBX 8 5 0 -1
BITMAP
E0
9C
83
9C
E0
ENDCHAR
STARTCHAR U+25BC
ENCODING 9660
SWIDTH 666 0
DWIDTH 8 0
BBX 7 7 0 -1
BITMAP
FE
FE
7C
7C
38
38
10
ENDCHAR
STARTCHAR U+25BD
ENCODING 9661
SWIDTH 666 0
DWIDTH 8 0
BBX 7 7 0 -1
BITMAP
FE
82
44
44
28
28
10
ENDCHAR
STARTCHAR U+25C0
ENCODING 9664
SWIDTH 666 0
DWIDTH 8 0
BBX 7 7 0 -1
BITMAP
06
1E
7E
FE
7E
1E
06
ENDCHAR
STARTCHAR U+25C1
ENCODING 9665
SWIDTH 666 0
DWIDTH 8 0
BBX 7 7 0 -1
BITMAP
06
1A
62
82
62
1A
06
ENDCHAR
STARTCHAR U+25C4
ENCODING 9668
SWIDTH 666 0
DWIDTH 8 0
BBX 7 5 0 -1
BITMAP
06
3E
FE
3E
06
ENDCHAR
STARTCHAR U+25C6
ENCODING 9670
SWIDTH 666 0
DWIDTH 8 0
BBX 7 7 0 -1
BITMAP
10
38
7C
FE
7C
38
10
ENDCHAR
STARTCHAR U+25C7
ENCODING 9671
SWIDTH 666 0
DWIDTH 8 0
BBX 7 7 0 -1
BITMAP
10
28
44
82
44
28
10
ENDCHAR
STARTCHAR U+25C8
ENCODING 9672
SWIDTH 666 0
DWIDTH 8 0
BBX 7 7 0 -1
BITMAP
10
28
54
BA
54
28
10
ENDCHAR
STARTCHAR U+25C9
ENCODING 9673
SWIDTH 666 0
DWIDTH 8 0
BBX 7 7 0 -1
BITMAP
38
44
BA
BA
BA
44
38
ENDCHAR
STARTCHAR U+25CA
ENCODING 9674
SWIDTH 666 0
DWIDTH 8 0
BBX 7 7 0 -2
BITMAP
10
28
44
82
44
28
10
ENDCHAR
STARTCHAR U+25CB
ENCODING 9675
SWIDTH 666 0
DWIDTH 8 0
BBX 7 7 0 -1
BITMAP
38
44
82
82
82
44
38
ENDCHAR
STARTCHAR U+25CC
ENCODING 9676
SWIDTH 666 0
DWIDTH 8 0
BBX 7 7 0 -1
BITMAP
10
44
00
82
00
44
10
ENDCHAR
STARTCHAR U+25CD
ENCODING 9677
SWIDTH 666 0
DWIDTH 8 0
BBX 7 7 0 -1
BITMAP
38
6C
AA
AA
AA
6C
38
ENDCHAR
STARTCHAR U+25CE
ENCODING 9678
SWIDTH 666 0
DWIDTH 8 0
BBX 7 7 0 -1
BITMAP
38
44
92
AA
92
44
38
ENDCHAR
STARTCHAR U+25CF
ENCODING 9679
SWIDTH 666 0
DWIDTH 8 0
BBX 7 7 0 -1
BITMAP
38
7C
FE
FE
FE
7C
38
ENDCHAR
STARTCHAR U+25D0
ENCODING 9680
SWIDTH 666 0
DWIDTH 8 0
BBX 7 7 0 -1
BITMAP
38
74
F2
F2
F2
74
38
ENDCHAR
STARTCHAR U+25D1
ENCODING 9681
SWIDTH 666 0
DWIDTH 8 0
BBX 7 7 0 -1
BITMAP
38
5C
9E
9E
9E
5C
38
ENDCHAR
STARTCHAR U+25D2
ENCODING 9682
SWIDTH 666 0
DWIDTH 8 0
BBX 7 7 0 -1
BITMAP
38
44
82
FE
FE
7C
38
ENDCHAR
STARTCHAR U+25D3
ENCODING 9683
SWIDTH 666 0
DWIDTH 8 0
BBX 7 7 0 -1
BITMAP
38
7C
FE
FE
82
44
38
ENDCHAR
STARTCHAR U+25D4
ENCODING 9684
SWIDTH 666 0
DWIDTH 8 0
BBX 7 7 0 -1
BITMAP
38
5C
9E
9E
82
44
38
ENDCHAR
STARTCHAR U+25D5
ENCODING 9685
SWIDTH 666 0
DWIDTH 8 0
BBX 7 7 0 -1
BITMAP
38
5C
9E
FE
FE
7C
38
ENDCHAR
STARTCHAR U+25D6
ENCODING 9686
SWIDTH 666 0
DWIDTH 8 0
BBX 4 7 0 -1
BITMAP
30
70
F0
F0
F0
70
30
ENDCHAR
STARTCHAR U+25D7
ENCODING 9687
SWIDTH 666 0
DWIDTH 8 0
BBX 4 7 3 -1
BITMAP
C0
E0
F0
F0
F0
E0
C0
ENDCHAR
STARTCHAR U+25D8
ENCODING 9688
SWIDTH 666 0
DWIDTH 8 0
BBX 7 7 0 -1
BITMAP
FE
C6
82
82
82
C6
FE
ENDCHAR
STARTCHAR U+25D9
ENCODING 9689
SWIDTH 666 0
DWIDTH 8 0
BBX 7 7 0 -1
BITMAP
FE
C6
BA
BA
BA
C6
FE
ENDCHAR
STARTCHAR U+25DA
ENCODING 9690
SWIDTH 666 0
DWIDTH 8 0
BBX 7 4 0 2
BITMAP
FE
C6
BA
BA
ENDCHAR
STARTCHAR U+25DB
ENCODING 9691
SWIDTH 666 0
DWIDTH 8 0
BBX 7 4 0 -1
BITMAP
BA
BA
C6
FE
ENDCHAR
STARTCHAR U+25DC
ENCODING 9692
SWIDTH 666 0
DWIDTH 8 0
BBX 4 4 0 2
BITMAP
30
40
80
80
ENDCHAR
STARTCHAR U+25DD
ENCODING 9693
SWIDTH 666 0
DWIDTH 8 0
BBX 4 4 3 2
BITMAP
C0
20
10
10
ENDCHAR
STARTCHAR U+25DE
ENCODING 9694
SWIDTH 666 0
DWIDTH 8 0
BBX 4 4 3 -1
BITMAP
10
10
20
C0
ENDCHAR
STARTCHAR U+25DF
ENCODING 9695
SWIDTH 666 0
DWIDTH 8 0
BBX 4 4 0 -1
BITMAP
80
80
40
30
ENDCHAR
STARTCHAR U+25E0
ENCODING 9696
SWIDTH 666 0
DWIDTH 8 0
BBX 7 4 0 2
BITMAP
38
44
82
82
ENDCHAR
STARTCHAR U+25E1
ENCODING 9697
SWIDTH 666 0
DWIDTH 8 0
BBX 7 4 0 -1
BITMAP
82
82
44
38
ENDCHAR
STARTCHAR U+25E2
ENCODING 9698
SWIDTH 666 0
DWIDTH 8 0
BBX 7 7 0 -1
BITMAP
02
06
0E
1E
3E
7E
FE
ENDCHAR
STARTCHAR U+25E3
ENCODING 9699
SWIDTH 666 0
DWIDTH 8 0
BBX 7 7 0 -1
BITMAP
80
C0
E0
F0
F8
FC
FE
ENDCHAR
STARTCHAR U+25E4
ENCODING 9700
SWIDTH 666 0
DWIDTH 8 0
BBX 7 7 0 -1
BITMAP
FE
FC
F8
F0
E0
C0
80
ENDCHAR
STARTCHAR U+25E5
ENCODING 9701
SWIDTH 666 0
DWIDTH 8 0
BBX 7 7 0 -1
BITMAP
FE
7E
3E
1E
0E
06
02
ENDCHAR
STARTCHAR U+25E6
ENCODING 9702
SWIDTH 416 0
DWIDTH 5 0
BBX 4 4 0 1
BITMAP
60
90
90
60
ENDCHAR
STARTCHAR U+25E7
ENCODING 9703
SWIDTH 666 0
DWIDTH 8 0
BBX 7 7 0 -1
BITMAP
FE
F2
F2
F2
F2
F2
FE
ENDCHAR
STARTCHAR U+25E8
ENCODING 9704
SWIDTH 666 0
DWIDTH 8 0
BBX 7 7 0 -1
BITMAP
FE
9E
9E
9E
9E
9E
FE
ENDCHAR
STARTCHAR U+25E9
ENCODING 9705
SWIDTH 666 0
DWIDTH 8 0
BBX 7 7 0 -1
BITMAP
FE
FE
FA
F2
E2
C2
FE
ENDCHAR
STARTCHAR U+25EA
ENCODING 9706
SWIDTH 666 0
DWIDTH 8 0
BBX 7 7 0 -1
BITMAP
FE
86
8E
9E
BE
FE
FE
ENDCHAR
STARTCHAR U+25EB
ENCODING 9707
SWIDTH 666 0
DWIDTH 8 0
BBX 7 7 0 -1
BITMAP
FE
92
92
92
92
92
FE
ENDCHAR
STARTCHAR U+25EC
ENCODING 9708
SWIDTH 666 0
DWIDTH 8 0
BBX 7 7 0 -1
BITMAP
10
28
28
44
54
82
FE
ENDCHAR
STARTCHAR U+25ED
ENCODING 9709
SWIDTH 666 0
DWIDTH 8 0
BBX 7 7 0 -1
BITMAP
10
38
38
74
74
F2
FE
ENDCHAR
STARTCHAR U+25EE
ENCODING 9710
SWIDTH 666 0
DWIDTH 8 0
BBX 7 7 0 -1
BITMAP
10
38
38
5C
5C
9E
FE
ENDCHAR
STARTCHAR U+25EF
ENCODING 9711
SWIDTH 666 0
DWIDTH 8 0
BBX 7 7 0 -1
BITMAP
38
44
82
82
82
44
38
ENDCHAR
STARTCHAR U+25F0
ENCODING 9712
SWIDTH 666 0
DWIDTH 8 0
BBX 7 7 0 -1
BITMAP
FE
92
92
F2
82
82
FE
ENDCHAR
STARTCHAR U+25F1
ENCODING 9713
SWIDTH 666 0
DWIDTH 8 0
BBX 7 7 0 -1
BITMAP
FE
82
82
F2
92
92
FE
ENDCHAR
STARTCHAR U+25F2
ENCODING 9714
SWIDTH 666 0
DWIDTH 8 0
BBX 7 7 0 -1
BITMAP
FE
82
82
9E
92
92
FE
ENDCHAR
STARTCHAR U+25F3
ENCODING 9715
SWIDTH 666 0
DWIDTH 8 0
BBX 7 7 0 -1
BITMAP
FE
92
92
9E
82
82
FE
ENDCHAR
STARTCHAR U+25F4
ENCODING 9716
SWIDTH 666 0
DWIDTH 8 0
BBX 7 7 0 -1
BITMAP
38
54
92
F2
82
44
38
ENDCHAR
STARTCHAR U+25F5
ENCODING 9717
SWIDTH 666 0
DWIDTH 8 0
BBX 7 7 0 -1
BITMAP
38
44
82
F2
92
54
38
ENDCHAR
STARTCHAR U+25F6
ENCODING 9718
SWIDTH 666 0
DWIDTH 8 0
BBX 7 7 0 -1
BITMAP
38
44
82
9E
92
54
38
ENDCHAR
STARTCHAR U+25F7
ENCODING 9719
SWIDTH 666 0
DWIDTH 8 0
BBX 7 7 0 -1
BITMAP
38
54
92
9E
82
44
38
ENDCHAR
STARTCHAR U+25F8
ENCODING 9720
SWIDTH 666 0
DWIDTH 8 0
BBX 7 7 0 -1
BITMAP
FE
84
88
90
A0
C0
80
ENDCHAR
STARTCHAR U+25F9
ENCODING 9721
SWIDTH 666 0
DWIDTH 8 0
BBX 7 7 0 -1
BITMAP
FE
42
22
12
0A
06
02
ENDCHAR
STARTCHAR U+25FA
ENCODING 9722
SWIDTH 666 0
DWIDTH 8 0
BBX 7 7 0 -1
BITMAP
80
C0
A0
90
88
84
FE
ENDCHAR
STARTCHAR U+25FB
ENCODING 9723
SWIDTH 666 0
DWIDTH 8 0
BBX 5 5 1 0
BITMAP
F8
88
88
88
F8
ENDCHAR
STARTCHAR U+25FC
ENCODING 9724
SWIDTH 666 0
DWIDTH 8 0
BBX 5 5 1 0
BITMAP
F8
F8
F8
F8
F8
ENDCHAR
STARTCHAR U+25FD
ENCODING 9725
SWIDTH 666 0
DWIDTH 8 0
BBX 3 3 2 1
BITMAP
E0
A0
E0
ENDCHAR
STARTCHAR U+25FE
ENCODING 9726
SWIDTH 666 0
DWIDTH 8 0
BBX 3 3 2 1
BITMAP
E0
E0
E0
ENDCHAR
STARTCHAR U+25FF
ENCODING 9727
SWIDTH 666 0
DWIDTH 8 0
BBX 7 7 0 -1
BITMAP
02
06
0A
12
22
42
FE
ENDCHAR
STARTCHAR U+2600
ENCODING 9728
SWIDTH 666 0
DWIDTH 8 0
BBX 7 7 0 -1
BITMAP
10
44
38
BA
38
44
10
ENDCHAR
STARTCHAR U+2601
ENCODING 9729
SWIDTH 666 0
DWIDTH 8 0
BBX 7 6 0 0
BITMAP
30
4C
82
82
92
6C
ENDCHAR
STARTCHAR U+2602
ENCODING 9730
SWIDTH 666 0
DWIDTH 8 0
BBX 7 7 0 -1
BITMAP
10
7C
FE
10
10
14
08
ENDCHAR
STARTCHAR U+2603
ENCODING 9731
SWIDTH 666 0
DWIDTH 8 0
BBX 7 7 0 -1
BITMAP
38
44
6C
82
82
44
38
ENDCHAR
STARTCHAR U+2604
ENCODING 9732
SWIDTH 666 0
DWIDTH 8 0
BBX 7 7 0 -2
BITMAP
10
24
48
12
44
A8
40
ENDCHAR
STARTCHAR U+2605
ENCODING 9733
SWIDTH 666 0
DWIDTH 8 0
BBX 7 7 0 -1
BITMAP
10
10
FE
7C
38
28
44
ENDCHAR
STARTCHAR U+2606
ENCODING 9734
SWIDTH 666 0
DWIDTH 8 0
BBX 7 7 0 -1
BITMAP
10
10
EE
44
38
28
44
ENDCHAR
STARTCHAR U+2607
ENCODING 9735
SWIDTH 666 0
DWIDTH 8 0
BBX 4 7 2 -2
BITMAP
10
20
40
90
50
30
F0
ENDCHAR
STARTCHAR U+2608
ENCODING 9736
SWIDTH 666 0
DWIDTH 8 0
BBX 7 7 0 -2
BITMAP
FE
84
88
92
8A
86
9E
ENDCHAR
STARTCHAR U+2609
ENCODING 9737
SWIDTH 666 0
DWIDTH 8 0
BBX 5 5 1 -1
BITMAP
70
88
A8
88
70
ENDCHAR
STARTCHAR U+260A
ENCODING 9738
SWIDTH 666 0
DWIDTH 8 0
BBX 7 7 0 -2
BITMAP
7C
82
44
44
44
AA
44
ENDCHAR
STARTCHAR U+260B
ENCODING 9739
SWIDTH 666 0
DWIDTH 8 0
BBX 7 7 0 -2
BITMAP
44
AA
44
44
44
82
7C
ENDCHAR
STARTCHAR U+260C
ENCODING 9740
SWIDTH 666 0
DWIDTH 8 0
BBX 7 7 0 -2
BITMAP
02
04
08
70
90
90
60
ENDCHAR
STARTCHAR U+260D
ENCODING 9741
SWIDTH 666 0
DWIDTH 8 0
BBX 7 7 0 -2
BITMAP
0C
12
12
7C
90
90
60
ENDCHAR
STARTCHAR U+260E
ENCODING 9742
SWIDTH 666 0
DWIDTH 8 0
BBX 5 7 1 -2
BITMAP
70
88
00
70
F8
D8
F8
ENDCHAR
STARTCHAR U+260F
ENCODING 9743
SWIDTH 666 0
DWIDTH 8 0
BBX 5 7 1 -2
BITMAP
70
88
00
70
88
A8
F8
ENDCHAR
STARTCHAR U+2610
ENCODING 9744
SWIDTH 666 0
DWIDTH 8 0
BBX 7 7 0 -1
BITMAP
FE
82
82
82
82
82
FE
ENDCHAR
STARTCHAR U+2611
ENCODING 9745
SWIDTH 666 0
DWIDTH 8 0
BBX 7 7 0 -1
BITMAP
FE
82
86
AA
92
82
FE
ENDCHAR
STARTCHAR U+2612
ENCODING 9746
SWIDTH 666 0
DWIDTH 8 0
BBX 7 7 0 -1
BITMAP
FE
82
AA
92
AA
82
FE
ENDCHAR
STARTCHAR U+261C
ENCODING 9756
SWIDTH 666 0
DWIDTH 8 0
BBX 7 5 0 -1
BITMAP
7E
82
7A
32
3E
ENDCHAR
STARTCHAR U+261E
ENCODING 9758
SWIDTH 666 0
DWIDTH 8 0
BBX 7 5 0 -1
BITMAP
FC
82
BC
98
F8
ENDCHAR
STARTCHAR U+262D
ENCODING 9773
SWIDTH 666 0
DWIDTH 8 0
BBX 7 7 0 -2
BITMAP
20
74
E2
52
0C
4C
B2
ENDCHAR
STARTCHAR U+262E
ENCODING 9774
SWIDTH 666 0
DWIDTH 8 0
BBX 7 7 0 -1
BITMAP
38
54
92
92
BA
54
38
ENDCHAR
STARTCHAR U+262F
ENCODING 9775
SWIDTH 666 0
DWIDTH 8 0
BBX 7 7 0 -2
BITMAP
7C
82
A2
D2
F6
FE
7C
ENDCHAR
STARTCHAR U+2630
ENCODING 9776
SWIDTH 666 0
DWIDTH 8 0
BBX 7 5 0 0
BITMAP
FE
00
FE
00
FE
ENDCHAR
STARTCHAR U+2631
ENCODING 9777
SWIDTH 666 0
DWIDTH 8 0
BBX 7 5 0 0
BITMAP
EE
00
FE
00
FE
ENDCHAR
STARTCHAR U+2632
ENCODING 9778
SWIDTH 666 0
DWIDTH 8 0
BBX 7 5 0 0
BITMAP
FE
00
EE
00
FE
ENDCHAR
STARTCHAR U+2633
ENCODING 9779
SWIDTH 666 0
DWIDTH 8 0
BBX 7 5 0 0
BITMAP
EE
00
EE
00
FE
ENDCHAR
STARTCHAR U+2634
ENCODING 9780
SWIDTH 666 0
DWIDTH 8 0
BBX 7 5 0 0
BITMAP
FE
00
FE
00
EE
ENDCHAR
STARTCHAR U+2635
ENCODING 9781
SWIDTH 666 0
DWIDTH 8 0
BBX 7 5 0 0
BITMAP
EE
00
FE
00
EE
ENDCHAR
STARTCHAR U+2636
ENCODING 9782
SWIDTH 666 0
DWIDTH 8 0
BBX 7 5 0 0
BITMAP
FE
00
EE
00
EE
ENDCHAR
STARTCHAR U+2637
ENCODING 9783
SWIDTH 666 0
DWIDTH 8 0
BBX 7 5 0 0
BITMAP
EE
00
EE
00
EE
ENDCHAR
STARTCHAR U+2639
ENCODING 9785
SWIDTH 666 0
DWIDTH 8 0
BBX 5 5 1 0
BITMAP
50
50
00
70
88
ENDCHAR
STARTCHAR U+263A
ENCODING 9786
SWIDTH 666 0
DWIDTH 8 0
BBX 5 5 1 0
BITMAP
50
50
00
88
70
ENDCHAR
STARTCHAR U+263B
ENCODING 9787
SWIDTH 666 0
DWIDTH 8 0
BBX 7 7 0 -1
BITMAP
FE
D6
D6
FE
BA
C6
FE
ENDCHAR
STARTCHAR U+263C
ENCODING 9788
SWIDTH 666 0
DWIDTH 8 0
BBX 7 7 0 -1
BITMAP
10
44
38
AA
38
44
10
ENDCHAR
STARTCHAR U+263D
ENCODING 9789
SWIDTH 666 0
DWIDTH 8 0
BBX 4 7 2 -2
BITMAP
C0
A0
E0
50
E0
A0
C0
ENDCHAR
STARTCHAR U+263E
ENCODING 9790
SWIDTH 666 0
DWIDTH 8 0
BBX 4 7 1 -2
BITMAP
30
50
70
A0
70
50
30
ENDCHAR
STARTCHAR U+2640
ENCODING 9792
SWIDTH 666 0
DWIDTH 8 0
BBX 5 7 1 -1
BITMAP
70
88
88
70
20
F8
20
ENDCHAR
STARTCHAR U+2641
ENCODING 9793
SWIDTH 666 0
DWIDTH 8 0
BBX 5 7 1 -1
BITMAP
20
F8
20
70
88
88
70
ENDCHAR
STARTCHAR U+2642
ENCODING 9794
SWIDTH 666 0
DWIDTH 8 0
BBX 5 7 1 -1
BITMAP
20
70
A8
70
88
88
70
ENDCHAR
STARTCHAR U+2660
ENCODING 9824
SWIDTH 666 0
DWIDTH 8 0
BBX 7 7 0 -1
BITMAP
10
38
7C
FE
FE
38
7C
ENDCHAR
STARTCHAR U+2661
ENCODING 9825
SWIDTH 666 0
DWIDTH 8 0
BBX 7 7 0 -1
BITMAP
6C
92
82
82
44
28
10
ENDCHAR
STARTCHAR U+2662
ENCODING 9826
SWIDTH 666 0
DWIDTH 8 0
BBX 7 7 0 -1
BITMAP
10
28
44
82
44
28
10
ENDCHAR
STARTCHAR U+2663
ENCODING 9827
SWIDTH 666 0
DWIDTH 8 0
BBX 7 7 0 -1
BITMAP
38
38
D6
FE
D6
38
7C
ENDCHAR
STARTCHAR U+2664
ENCODING 9828
SWIDTH 666 0
DWIDTH 8 0
BBX 7 7 0 -1
BITMAP
10
28
44
82
EE
28
7C
ENDCHAR
STARTCHAR U+2665
ENCODING 9829
SWIDTH 666 0
DWIDTH 8 0
BBX 7 7 0 -1
BITMAP
6C
FE
FE
FE
7C
38
10
ENDCHAR
STARTCHAR U+2666
ENCODING 9830
SWIDTH 666 0
DWIDTH 8 0
BBX 7 7 0 -1
BITMAP
10
38
7C
FE
7C
38
10
ENDCHAR
STARTCHAR U+2667
ENCODING 9831
SWIDTH 666 0
DWIDTH 8 0
BBX 7 7 0 -1
BITMAP
38
28
D6
BA
D6
28
7C
ENDCHAR
STARTCHAR U+2668
ENCODING 9832
SWIDTH 666 0
DWIDTH 8 0
BBX 7 7 0 -2
BITMAP
28
50
50
28
AA
82
7C
ENDCHAR
STARTCHAR U+2669
ENCODING 9833
SWIDTH 666 0
DWIDTH 8 0
BBX 3 7 2 -1
BITMAP
20
20
20
20
20
E0
C0
ENDCHAR
STARTCHAR U+266A
ENCODING 9834
SWIDTH 666 0
DWIDTH 8 0
BBX 5 7 1 -1
BITMAP
20
30
28
28
60
E0
C0
ENDCHAR
STARTCHAR U+266B
ENCODING 9835
SWIDTH 666 0
DWIDTH 8 0
BBX 7 7 0 -1
BITMAP
3E
22
22
22
66
EE
CC
ENDCHAR
STARTCHAR U+266C
ENCODING 9836
SWIDTH 666 0
DWIDTH 8 0
BBX 7 7 0 -1
BITMAP
3E
22
3E
22
66
EE
CC
ENDCHAR
STARTCHAR U+266D
ENCODING 9837
SWIDTH 666 0
DWIDTH 8 0
BBX 4 7 2 -1
BITMAP
80
80
A0
D0
90
A0
C0
ENDCHAR
STARTCHAR U+266E
ENCODING 9838
SWIDTH 666 0
DWIDTH 8 0
BBX 3 7 2 -1
BITMAP
80
A0
E0
A0
E0
A0
20
ENDCHAR
STARTCHAR U+266F
ENCODING 9839
SWIDTH 666 0
DWIDTH 8 0
BBX 5 7 1 -1
BITMAP
10
58
70
D8
70
D0
40
ENDCHAR
STARTCHAR U+2680
ENCODING 9856
SWIDTH 666 0
DWIDTH 8 0
BBX 7 7 0 -1
BITMAP
FE
FE
FE
EE
FE
FE
FE
ENDCHAR
STARTCHAR U+2681
ENCODING 9857
SWIDTH 666 0
DWIDTH 8 0
BBX 7 7 0 -1
BITMAP
FE
FA
FE
FE
FE
BE
FE
ENDCHAR
STARTCHAR U+2682
ENCODING 9858
SWIDTH 666 0
DWIDTH 8 0
BBX 7 7 0 -1
BITMAP
FE
FA
FE
EE
FE
BE
FE
ENDCHAR
STARTCHAR U+2683
ENCODING 9859
SWIDTH 666 0
DWIDTH 8 0
BBX 7 7 0 -1
BITMAP
FE
BA
FE
FE
FE
BA
FE
ENDCHAR
STARTCHAR U+2684
ENCODING 9860
SWIDTH 666 0
DWIDTH 8 0
BBX 7 7 0 -1
BITMAP
FE
BA
FE
EE
FE
BA
FE
ENDCHAR
STARTCHAR U+2685
ENCODING 9861
SWIDTH 666 0
DWIDTH 8 0
BBX 7 7 0 -1
BITMAP
FE
BA
FE
BA
FE
BA
FE
ENDCHAR
STARTCHAR U+2686
ENCODING 9862
SWIDTH 666 0
DWIDTH 8 0
BBX 7 7 0 -1
BITMAP
38
44
82
8A
82
44
38
ENDCHAR
STARTCHAR U+2687
ENCODING 9863
SWIDTH 666 0
DWIDTH 8 0
BBX 7 7 0 -1
BITMAP
38
44
82
AA
82
44
38
ENDCHAR
STARTCHAR U+2688
ENCODING 9864
SWIDTH 666 0
DWIDTH 8 0
BBX 7 7 0 -1
BITMAP
38
7C
FE
F6
FE
7C
38
ENDCHAR
STARTCHAR U+2689
ENCODING 9865
SWIDTH 666 0
DWIDTH 8 0
BBX 7 7 0 -1
BITMAP
38
7C
FE
D6
FE
7C
38
ENDCHAR
STARTCHAR U+26A0
ENCODING 9888
SWIDTH 666 0
DWIDTH 8 0
BBX 7 7 0 -1
BITMAP
FE
EE
EE
EE
FE
EE
FE
ENDCHAR
STARTCHAR U+26C4
ENCODING 9924
SWIDTH 666 0
DWIDTH 8 0
BBX 7 7 0 -1
BITMAP
38
44
6C
82
82
44
38
ENDCHAR
STARTCHAR U+26D4
ENCODING 9940
SWIDTH 666 0
DWIDTH 8 0
BBX 7 7 0 -1
BITMAP
38
7C
FE
82
FE
7C
38
ENDCHAR
STARTCHAR U+2702
ENCODING 9986
SWIDTH 666 0
DWIDTH 8 0
BBX 7 7 0 -2
BITMAP
42
A4
68
10
68
A4
42
ENDCHAR
STARTCHAR U+2706
ENCODING 9990
SWIDTH 666 0
DWIDTH 8 0
BBX 5 8 1 -1
BITMAP
08
F8
88
88
88
F8
F8
F8
ENDCHAR
STARTCHAR U+2708
ENCODING 9992
SWIDTH 666 0
DWIDTH 8 0
BBX 7 7 0 -2
BITMAP
40
30
9C
FE
9C
30
40
ENDCHAR
STARTCHAR U+2709
ENCODING 9993
SWIDTH 666 0
DWIDTH 8 0
BBX 7 7 0 -1
BITMAP
FE
82
C6
AA
92
82
FE
ENDCHAR
STARTCHAR U+2713
ENCODING 10003
SWIDTH 666 0
DWIDTH 8 0
BBX 7 6 0 -2
BITMAP
02
02
04
88
50
20
ENDCHAR
STARTCHAR U+2715
ENCODING 10005
SWIDTH 666 0
DWIDTH 8 0
BBX 7 7 0 -2
BITMAP
82
44
28
10
28
44
82
ENDCHAR
STARTCHAR U+2716
ENCODING 10006
SWIDTH 666 0
DWIDTH 8 0
BBX 5 5 1 -1
BITMAP
88
50
20
50
88
ENDCHAR
STARTCHAR U+2717
ENCODING 10007
SWIDTH 666 0
DWIDTH 8 0
BBX 7 7 0 -2
BITMAP
04
44
28
10
28
46
80
ENDCHAR
STARTCHAR U+271A
ENCODING 10010
SWIDTH 666 0
DWIDTH 8 0
BBX 5 5 1 -1
BITMAP
20
20
F8
20
20
ENDCHAR
STARTCHAR U+2721
ENCODING 10017
SWIDTH 666 0
DWIDTH 8 0
BBX 7 7 0 -2
BITMAP
10
FE
AA
54
AA
FE
10
ENDCHAR
STARTCHAR U+2726
ENCODING 10022
SWIDTH 666 0
DWIDTH 8 0
BBX 7 7 0 -2
BITMAP
10
10
38
FE
38
10
10
ENDCHAR
STARTCHAR U+2727
ENCODING 10023
SWIDTH 666 0
DWIDTH 8 0
BBX 7 7 0 -2
BITMAP
10
28
6C
82
6C
28
10
ENDCHAR
STARTCHAR U+2728
ENCODING 10024
SWIDTH 666 0
DWIDTH 8 0
BBX 7 7 0 -2
BITMAP
04
4A
44
A0
48
54
08
ENDCHAR
STARTCHAR U+272A
ENCODING 10026
SWIDTH 666 0
DWIDTH 8 0
BBX 7 7 0 -2
BITMAP
7C
EE
82
C6
EE
92
7C
ENDCHAR
STARTCHAR U+273D
ENCODING 10045
SWIDTH 666 0
DWIDTH 8 0
BBX 7 7 0 -2
BITMAP
92
54
38
10
38
54
92
ENDCHAR
STARTCHAR U+273F
ENCODING 10047
SWIDTH 666 0
DWIDTH 8 0
BBX 7 7 0 -2
BITMAP
38
BA
D6
D6
28
EE
C6
ENDCHAR
STARTCHAR U+2740
ENCODING 10048
SWIDTH 666 0
DWIDTH 8 0
BBX 7 7 0 -2
BITMAP
10
6C
AA
54
6C
BA
44
ENDCHAR
STARTCHAR U+2742
ENCODING 10050
SWIDTH 666 0
DWIDTH 8 0
BBX 7 7 0 -2
BITMAP
6C
BA
EE
44
EE
BA
6C
ENDCHAR
STARTCHAR U+2744
ENCODING 10052
SWIDTH 666 0
DWIDTH 8 0
BBX 7 7 0 -2
BITMAP
54
38
10
10
AA
44
AA
ENDCHAR
STARTCHAR U+2753
ENCODING 10067
SWIDTH 666 0
DWIDTH 8 0
BBX 7 7 0 -1
BITMAP
FE
CE
F6
EE
FE
EE
FE
ENDCHAR
STARTCHAR U+2756
ENCODING 10070
SWIDTH 666 0
DWIDTH 8 0
BBX 7 7 0 -2
BITMAP
10
38
54
EE
54
38
10
ENDCHAR
STARTCHAR U+2757
ENCODING 10071
SWIDTH 666 0
DWIDTH 8 0
BBX 7 7 0 -1
BITMAP
FE
EE
EE
EE
FE
EE
FE
ENDCHAR
STARTCHAR U+2776
ENCODING 10102
SWIDTH 666 0
DWIDTH 8 0
BBX 7 7 0 -1
BITMAP
7C
EE
EE
EE
EE
EE
7C
ENDCHAR
STARTCHAR U+2777
ENCODING 10103
SWIDTH 666 0
DWIDTH 8 0
BBX 7 7 0 -1
BITMAP
7C
C6
F6
C6
DE
C6
7C
ENDCHAR
STARTCHAR U+2778
ENCODING 10104
SWIDTH 666 0
DWIDTH 8 0
BBX 7 7 0 -1
BITMAP
7C
C6
F6
C6
F6
C6
7C
ENDCHAR
STARTCHAR U+2779
ENCODING 10105
SWIDTH 666 0
DWIDTH 8 0
BBX 7 7 0 -1
BITMAP
7C
D6
D6
C6
F6
F6
7C
ENDCHAR
STARTCHAR U+277A
ENCODING 10106
SWIDTH 666 0
DWIDTH 8 0
BBX 7 7 0 -1
BITMAP
7C
C6
DE
C6
F6
C6
7C
ENDCHAR
STARTCHAR U+277B
ENCODING 10107
SWIDTH 666 0
DWIDTH 8 0
BBX 7 7 0 -1
BITMAP
7C
C6
DE
C6
D6
C6
7C
ENDCHAR
STARTCHAR U+277C
ENCODING 10108
SWIDTH 666 0
DWIDTH 8 0
BBX 7 7 0 -1
BITMAP
7C
C6
F6
EE
EE
EE
7C
ENDCHAR
STARTCHAR U+277D
ENCODING 10109
SWIDTH 666 0
DWIDTH 8 0
BBX 7 7 0 -1
BITMAP
7C
C6
D6
C6
D6
C6
7C
ENDCHAR
STARTCHAR U+277E
ENCODING 10110
SWIDTH 666 0
DWIDTH 8 0
BBX 7 7 0 -1
BITMAP
7C
C6
D6
C6
F6
C6
7C
ENDCHAR
STARTCHAR U+277F
ENCODING 10111
SWIDTH 666 0
DWIDTH 8 0
BBX 7 7 0 -1
BITMAP
7C
A2
AA
AA
AA
A2
7C
ENDCHAR
STARTCHAR U+2780
ENCODING 10112
SWIDTH 666 0
DWIDTH 8 0
BBX 7 7 0 -1
BITMAP
38
44
92
92
92
44
38
ENDCHAR
STARTCHAR U+2781
ENCODING 10113
SWIDTH 666 0
DWIDTH 8 0
BBX 7 7 0 -1
BITMAP
38
44
BA
92
BA
44
38
ENDCHAR
STARTCHAR U+2782
ENCODING 10114
SWIDTH 666 0
DWIDTH 8 0
BBX 7 7 0 -1
BITMAP
38
54
AA
92
AA
54
38
ENDCHAR
STARTCHAR U+2783
ENCODING 10115
SWIDTH 666 0
DWIDTH 8 0
BBX 7 7 0 -1
BITMAP
38
44
9A
AA
BA
4C
38
ENDCHAR
STARTCHAR U+2784
ENCODING 10116
SWIDTH 666 0
DWIDTH 8 0
BBX 7 7 0 -1
BITMAP
38
64
B2
8A
AA
54
38
ENDCHAR
STARTCHAR U+2785
ENCODING 10117
SWIDTH 666 0
DWIDTH 8 0
BBX 7 7 0 -1
BITMAP
38
54
A2
B2
AA
54
38
ENDCHAR
STARTCHAR U+2786
ENCODING 10118
SWIDTH 666 0
DWIDTH 8 0
BBX 7 7 0 -1
BITMAP
38
44
BA
8A
92
54
38
ENDCHAR
STARTCHAR U+2787
ENCODING 10119
SWIDTH 666 0
DWIDTH 8 0
BBX 7 7 0 -1
BITMAP
38
54
AA
92
AA
54
38
ENDCHAR
STARTCHAR U+2788
ENCODING 10120
SWIDTH 666 0
DWIDTH 8 0
BBX 7 7 0 -1
BITMAP
38
6C
AA
9A
8A
6C
38
ENDCHAR
STARTCHAR U+2789
ENCODING 10121
SWIDTH 666 0
DWIDTH 8 0
BBX 7 7 0 -1
BITMAP
38
64
AA
AA
AA
64
38
ENDCHAR
STARTCHAR U+278A
ENCODING 10122
SWIDTH 666 0
DWIDTH 8 0
BBX 7 7 0 -1
BITMAP
7C
EE
EE
EE
EE
EE
7C
ENDCHAR
STARTCHAR U+278B
ENCODING 10123
SWIDTH 666 0
DWIDTH 8 0
BBX 7 7 0 -1
BITMAP
7C
C6
F6
C6
DE
C6
7C
ENDCHAR
STARTCHAR U+278C
ENCODING 10124
SWIDTH 666 0
DWIDTH 8 0
BBX 7 7 0 -1
BITMAP
7C
C6
F6
C6
F6
C6
7C
ENDCHAR
STARTCHAR U+278D
ENCODING 10125
SWIDTH 666 0
DWIDTH 8 0
BBX 7 7 0 -1
BITMAP
7C
D6
D6
C6
F6
F6
7C
ENDCHAR
STARTCHAR U+278E
ENCODING 10126
SWIDTH 666 0
DWIDTH 8 0
BBX 7 7 0 -1
BITMAP
7C
C6
DE
C6
F6
C6
7C
ENDCHAR
STARTCHAR U+278F
ENCODING 10127
SWIDTH 666 0
DWIDTH 8 0
BBX 7 7 0 -1
BITMAP
7C
C6
DE
C6
D6
C6
7C
ENDCHAR
STARTCHAR U+2790
ENCODING 10128
SWIDTH 666 0
DWIDTH 8 0
BBX 7 7 0 -1
BITMAP
7C
C6
F6
EE
EE
EE
7C
ENDCHAR
STARTCHAR U+2791
ENCODING 10129
SWIDTH 666 0
DWIDTH 8 0
BBX 7 7 0 -1
BITMAP
7C
C6
D6
C6
D6
C6
7C
ENDCHAR
STARTCHAR U+2792
ENCODING 10130
SWIDTH 666 0
DWIDTH 8 0
BBX 7 7 0 -1
BITMAP
7C
C6
D6
C6
F6
C6
7C
ENDCHAR
STARTCHAR U+2793
ENCODING 10131
SWIDTH 666 0
DWIDTH 8 0
BBX 7 7 0 -1
BITMAP
7C
A2
AA
AA
AA
A2
7C
ENDCHAR
STARTCHAR U+29F8
ENCODING 10744
SWIDTH 666 0
DWIDTH 8 0
BBX 3 7 2 -2
BITMAP
20
20
40
40
40
80
80
ENDCHAR
STARTCHAR U+29F9
ENCODING 10745
SWIDTH 666 0
DWIDTH 8 0
BBX 3 7 2 -2
BITMAP
80
80
40
40
40
20
20
ENDCHAR
STARTCHAR U+2C64
ENCODING 11364
SWIDTH 416 0
DWIDTH 5 0
BBX 4 6 0 -2
BITMAP
E0
90
E0
A0
90
40
ENDCHAR
STARTCHAR U+2C6D
ENCODING 11373
SWIDTH 416 0
DWIDTH 5 0
BBX 4 5 0 -1
BITMAP
70
90
90
90
70
ENDCHAR
STARTCHAR U+2C72
ENCODING 11378
SWIDTH 416 0
DWIDTH 5 0
BBX 6 6 0 -1
BITMAP
04
88
A8
A8
50
50
ENDCHAR
STARTCHAR U+2C73
ENCODING 11379
SWIDTH 500 0
DWIDTH 6 0
BBX 6 5 0 -1
BITMAP
04
88
A8
F0
A0
ENDCHAR
STARTCHAR U+2E81
ENCODING 11905
SWIDTH 666 0
DWIDTH 8 0
BBX 7 7 0 -2
BITMAP
7E
40
40
40
40
40
80
ENDCHAR
STARTCHAR U+2E84
ENCODING 11908
SWIDTH 666 0
DWIDTH 8 0
BBX 7 7 0 -2
BITMAP
F8
08
08
08
08
0A
04
ENDCHAR
STARTCHAR U+2E88
ENCODING 11912
SWIDTH 666 0
DWIDTH 8 0
BBX 6 3 0 2
BITMAP
20
7C
88
ENDCHAR
STARTCHAR U+2E8B
ENCODING 11915
SWIDTH 666 0
DWIDTH 8 0
BBX 7 5 0 -2
BITMAP
F8
88
9A
82
FE
ENDCHAR
STARTCHAR U+2E8C
ENCODING 11916
SWIDTH 666 0
DWIDTH 8 0
BBX 7 3 0 2
BITMAP
10
92
54
ENDCHAR
STARTCHAR U+2E97
ENCODING 11927
SWIDTH 666 0
DWIDTH 8 0
BBX 7 5 0 -2
BITMAP
20
20
AA
AA
60
ENDCHAR
STARTCHAR U+2EA7
ENCODING 11943
SWIDTH 666 0
DWIDTH 8 0
BBX 7 5 0 0
BITMAP
50
7E
90
10
FE
ENDCHAR
STARTCHAR U+2EAA
ENCODING 11946
SWIDTH 666 0
DWIDTH 8 0
BBX 4 7 0 -2
BITMAP
F0
10
A0
B0
A0
A0
F0
ENDCHAR
STARTCHAR U+2EAE
ENCODING 11950
SWIDTH 666 0
DWIDTH 8 0
BBX 7 3 0 2
BITMAP
48
6E
B4
ENDCHAR
STARTCHAR U+2EB3
ENCODING 11955
SWIDTH 666 0
DWIDTH 8 0
BBX 7 4 0 1
BITMAP
FE
AA
28
CE
ENDCHAR
STARTCHAR U+2EB6
ENCODING 11958
SWIDTH 666 0
DWIDTH 8 0
BBX 7 7 0 -2
BITMAP
44
FE
10
FE
20
FE
40
ENDCHAR
STARTCHAR U+2EB7
ENCODING 11959
SWIDTH 666 0
DWIDTH 8 0
BBX 7 6 0 -1
BITMAP
28
FE
10
FE
10
FE
ENDCHAR
STARTCHAR U+2EBB
ENCODING 11963
SWIDTH 666 0
DWIDTH 8 0
BBX 7 6 0 -1
BITMAP
10
7C
16
7C
10
FE
ENDCHAR
STARTCHAR U+2ECA
ENCODING 11978
SWIDTH 666 0
DWIDTH 8 0
BBX 4 7 0 -2
BITMAP
F0
90
F0
20
B0
A0
F0
ENDCHAR
STARTCHAR U+2ECC
ENCODING 11980
SWIDTH 666 0
DWIDTH 8 0
BBX 7 7 0 -2
BITMAP
80
40
00
C0
40
40
BE
ENDCHAR
STARTCHAR U+2ECD
ENCODING 11981
SWIDTH 666 0
DWIDTH 8 0
BBX 7 7 0 -2
BITMAP
80
00
80
00
C0
40
BE
ENDCHAR
STARTCHAR U+2ECE
ENCODING 11982
SWIDTH 666 0
DWIDTH 8 0
BBX 7 7 0 -2
BITMAP
80
00
C0
40
80
40
BE
ENDCHAR
STARTCHAR U+2FA1
ENCODING 12193
SWIDTH 666 0
DWIDTH 8 0
BBX 7 7 0 -2
BITMAP
02
FC
7C
10
5C
50
BE
ENDCHAR
STARTCHAR U+3000
ENCODING 12288
SWIDTH 666 0
DWIDTH 8 0
BBX 0 0 0 0
BITMAP
ENDCHAR
STARTCHAR U+3001
ENCODING 12289
SWIDTH 666 0
DWIDTH 8 0
BBX 2 3 0 -1
BITMAP
80
40
40
ENDCHAR
STARTCHAR U+3002
ENCODING 12290
SWIDTH 666 0
DWIDTH 8 0
BBX 3 3 0 -1
BITMAP
40
A0
40
ENDCHAR
STARTCHAR U+3003
ENCODING 12291
SWIDTH 416 0
DWIDTH 5 0
BBX 4 4 0 0
BITMAP
50
50
A0
A0
ENDCHAR
STARTCHAR U+3004
ENCODING 12292
SWIDTH 666 0
DWIDTH 8 0
BBX 7 7 0 -2
BITMAP
44
96
96
BA
D2
A2
64
ENDCHAR
STARTCHAR U+3005
ENCODING 12293
SWIDTH 666 0
DWIDTH 8 0
BBX 7 7 0 -1
BITMAP
20
3E
42
84
28
18
04
ENDCHAR
STARTCHAR U+3006
ENCODING 12294
SWIDTH 666 0
DWIDTH 8 0
BBX 7 7 0 -1
BITMAP
02
04
28
50
A8
C0
80
ENDCHAR
STARTCHAR U+3007
ENCODING 12295
SWIDTH 666 0
DWIDTH 8 0
BBX 7 7 0 -1
BITMAP
38
44
82
82
82
44
38
ENDCHAR
STARTCHAR U+3008
ENCODING 12296
SWIDTH 416 0
DWIDTH 5 0
BBX 4 7 0 -1
BITMAP
10
20
40
80
40
20
10
ENDCHAR
STARTCHAR U+3009
ENCODING 12297
SWIDTH 416 0
DWIDTH 5 0
BBX 4 7 0 -1
BITMAP
80
40
20
10
20
40
80
ENDCHAR
STARTCHAR U+300A
ENCODING 12298
SWIDTH 583 0
DWIDTH 7 0
BBX 6 7 0 -1
BITMAP
14
28
50
A0
50
28
14
ENDCHAR
STARTCHAR U+300B
ENCODING 12299
SWIDTH 583 0
DWIDTH 7 0
BBX 6 7 0 -1
BITMAP
A0
50
28
14
28
50
A0
ENDCHAR
STARTCHAR U+300C
ENCODING 12300
SWIDTH 333 0
DWIDTH 4 0
BBX 3 4 0 2
BITMAP
E0
80
80
80
ENDCHAR
STARTCHAR U+300D
ENCODING 12301
SWIDTH 333 0
DWIDTH 4 0
BBX 3 4 0 -1
BITMAP
20
20
20
E0
ENDCHAR
STARTCHAR U+300E
ENCODING 12302
SWIDTH 416 0
DWIDTH 5 0
BBX 4 5 0 1
BITMAP
F0
90
B0
A0
E0
ENDCHAR
STARTCHAR U+300F
ENCODING 12303
SWIDTH 416 0
DWIDTH 5 0
BBX 4 5 0 -1
BITMAP
70
50
D0
90
F0
ENDCHAR
STARTCHAR U+3010
ENCODING 12304
SWIDTH 333 0
DWIDTH 4 0
BBX 3 7 0 -1
BITMAP
E0
C0
80
80
80
C0
E0
ENDCHAR
STARTCHAR U+3011
ENCODING 12305
SWIDTH 333 0
DWIDTH 4 0
BBX 3 7 0 -1
BITMAP
E0
60
20
20
20
60
E0
ENDCHAR
STARTCHAR U+3012
ENCODING 12306
SWIDTH 666 0
DWIDTH 8 0
BBX 7 7 0 -1
BITMAP
FE
00
FE
10
10
10
10
ENDCHAR
STARTCHAR U+3013
ENCODING 12307
SWIDTH 666 0
DWIDTH 8 0
BBX 7 5 0 0
BITMAP
FE
FE
00
FE
FE
ENDCHAR
STARTCHAR U+3014
ENCODING 12308
SWIDTH 333 0
DWIDTH 4 0
BBX 3 9 0 -2
BITMAP
20
C0
80
80
80
80
80
C0
20
ENDCHAR
STARTCHAR U+3015
ENCODING 12309
SWIDTH 333 0
DWIDTH 4 0
BBX 3 9 0 -2
BITMAP
80
60
20
20
20
20
20
60
80
ENDCHAR
STARTCHAR U+3016
ENCODING 12310
SWIDTH 666 0
DWIDTH 8 0
BBX 4 6 2 -2
BITMAP
F0
A0
C0
C0
A0
F0
ENDCHAR
STARTCHAR U+3017
ENCODING 12311
SWIDTH 666 0
DWIDTH 8 0
BBX 4 6 1 -2
BITMAP
F0
50
30
30
50
F0
ENDCHAR
STARTCHAR U+301C
ENCODING 12316
SWIDTH 666 0
DWIDTH 8 0
BBX 7 3 0 1
BITMAP
60
92
0C
ENDCHAR
STARTCHAR U+301D
ENCODING 12317
SWIDTH 666 0
DWIDTH 8 0
BBX 4 3 3 2
BITMAP
A0
A0
50
ENDCHAR
STARTCHAR U+301E
ENCODING 12318
SWIDTH 666 0
DWIDTH 8 0
BBX 5 2 0 3
BITMAP
48
90
ENDCHAR
STARTCHAR U+301F
ENCODING 12319
SWIDTH 666 0
DWIDTH 8 0
BBX 4 3 0 -2
BITMAP
A0
50
50
ENDCHAR
STARTCHAR U+3020
ENCODING 12320
SWIDTH 666 0
DWIDTH 8 0
BBX 7 7 0 -2
BITMAP
FE
00
FE
54
10
82
7C
ENDCHAR
STARTCHAR U+3021
ENCODING 12321
SWIDTH 666 0
DWIDTH 8 0
BBX 1 7 3 -2
BITMAP
80
80
80
80
80
80
80
ENDCHAR
STARTCHAR U+3022
ENCODING 12322
SWIDTH 666 0
DWIDTH 8 0
BBX 5 7 1 -2
BITMAP
08
88
88
88
88
88
08
ENDCHAR
STARTCHAR U+3023
ENCODING 12323
SWIDTH 666 0
DWIDTH 8 0
BBX 5 7 1 -2
BITMAP
88
A8
A8
A8
A8
A8
88
ENDCHAR
STARTCHAR U+3024
ENCODING 12324
SWIDTH 666 0
DWIDTH 8 0
BBX 7 7 0 -2
BITMAP
02
64
14
08
14
22
C2
ENDCHAR
STARTCHAR U+3025
ENCODING 12325
SWIDTH 666 0
DWIDTH 8 0
BBX 6 7 1 -2
BITMAP
4C
90
A0
50
88
88
70
ENDCHAR
STARTCHAR U+3026
ENCODING 12326
SWIDTH 666 0
DWIDTH 8 0
BBX 7 2 0 1
BITMAP
10
FE
ENDCHAR
STARTCHAR U+3027
ENCODING 12327
SWIDTH 666 0
DWIDTH 8 0
BBX 7 5 0 -1
BITMAP
10
FE
00
00
FE
ENDCHAR
STARTCHAR U+3028
ENCODING 12328
SWIDTH 666 0
DWIDTH 8 0
BBX 7 6 0 -1
BITMAP
10
FE
00
FE
00
FE
ENDCHAR
STARTCHAR U+3029
ENCODING 12329
SWIDTH 666 0
DWIDTH 8 0
BBX 6 7 1 -2
BITMAP
40
7C
88
28
10
28
C8
ENDCHAR
STARTCHAR U+3041
ENCODING 12353
SWIDTH 666 0
DWIDTH 8 0
BBX 6 6 0 -1
BITMAP
78
20
78
AC
B4
68
ENDCHAR
STARTCHAR U+3042
ENCODING 12354
SWIDTH 666 0
DWIDTH 8 0
BBX 7 7 0 -1
BITMAP
20
FC
20
7C
AA
B2
64
ENDCHAR
STARTCHAR U+3043
ENCODING 12355
SWIDTH 666 0
DWIDTH 8 0
BBX 5 5 1 -1
BITMAP
90
88
88
A8
40
ENDCHAR
STARTCHAR U+3044
ENCODING 12356
SWIDTH 666 0
DWIDTH 8 0
BBX 7 6 0 -1
BITMAP
84
84
82
82
A2
40
ENDCHAR
STARTCHAR U+3045
ENCODING 12357
SWIDTH 666 0
DWIDTH 8 0
BBX 5 6 1 -1
BITMAP
70
00
F0
08
08
70
ENDCHAR
STARTCHAR U+3046
ENCODING 12358
SWIDTH 666 0
DWIDTH 8 0
BBX 6 7 0 -1
BITMAP
78
00
F8
04
04
08
70
ENDCHAR
STARTCHAR U+3047
ENCODING 12359
SWIDTH 666 0
DWIDTH 8 0
BBX 6 6 0 -1
BITMAP
30
00
78
30
50
8C
ENDCHAR
STARTCHAR U+3048
ENCODING 12360
SWIDTH 666 0
DWIDTH 8 0
BBX 7 7 0 -1
BITMAP
78
00
FC
08
30
50
8E
ENDCHAR
STARTCHAR U+3049
ENCODING 12361
SWIDTH 666 0
DWIDTH 8 0
BBX 7 6 0 -1
BITMAP
20
F4
22
78
A4
68
ENDCHAR
STARTCHAR U+304A
ENCODING 12362
SWIDTH 666 0
DWIDTH 8 0
BBX 7 7 0 -1
BITMAP
24
FA
20
7C
A2
A2
6C
ENDCHAR
STARTCHAR U+304B
ENCODING 12363
SWIDTH 666 0
DWIDTH 8 0
BBX 7 7 0 -1
BITMAP
44
F2
4A
48
48
88
B0
ENDCHAR
STARTCHAR U+304C
ENCODING 12364
SWIDTH 666 0
DWIDTH 8 0
BBX 7 7 0 -1
BITMAP
46
F4
4A
48
48
88
B0
ENDCHAR
STARTCHAR U+304D
ENCODING 12365
SWIDTH 666 0
DWIDTH 8 0
BBX 7 7 0 -1
BITMAP
7C
10
FE
08
74
80
78
ENDCHAR
STARTCHAR U+304E
ENCODING 12366
SWIDTH 666 0
DWIDTH 8 0
BBX 7 7 0 -1
BITMAP
7A
14
FC
08
74
80
78
ENDCHAR
STARTCHAR U+304F
ENCODING 12367
SWIDTH 666 0
DWIDTH 8 0
BBX 5 7 1 -1
BITMAP
08
10
60
80
60
10
08
ENDCHAR
STARTCHAR U+3050
ENCODING 12368
SWIDTH 666 0
DWIDTH 8 0
BBX 7 7 0 -1
BITMAP
08
10
62
84
60
10
08
ENDCHAR
STARTCHAR U+3051
ENCODING 12369
SWIDTH 666 0
DWIDTH 8 0
BBX 7 7 0 -1
BITMAP
84
BE
84
84
84
84
98
ENDCHAR
STARTCHAR U+3052
ENCODING 12370
SWIDTH 666 0
DWIDTH 8 0
BBX 7 7 0 -1
BITMAP
8A
BE
88
88
88
88
B0
ENDCHAR
STARTCHAR U+3053
ENCODING 12371
SWIDTH 666 0
DWIDTH 8 0
BBX 6 7 0 -1
BITMAP
78
00
00
00
80
80
7C
ENDCHAR
STARTCHAR U+3054
ENCODING 12372
SWIDTH 666 0
DWIDTH 8 0
BBX 7 7 0 -1
BITMAP
78
02
04
00
80
80
7C
ENDCHAR
STARTCHAR U+3055
ENCODING 12373
SWIDTH 666 0
DWIDTH 8 0
BBX 7 7 0 -1
BITMAP
10
FE
08
78
84
80
78
ENDCHAR
STARTCHAR U+3056
ENCODING 12374
SWIDTH 666 0
DWIDTH 8 0
BBX 7 7 0 -1
BITMAP
12
FE
08
78
84
80
78
ENDCHAR
STARTCHAR U+3057
ENCODING 12375
SWIDTH 666 0
DWIDTH 8 0
BBX 6 7 0 -1
BITMAP
80
80
80
84
84
88
70
ENDCHAR
STARTCHAR U+3058
ENCODING 12376
SWIDTH 666 0
DWIDTH 8 0
BBX 6 7 0 -1
BITMAP
94
94
80
80
84
88
70
ENDCHAR
STARTCHAR U+3059
ENCODING 12377
SWIDTH 666 0
DWIDTH 8 0
BBX 7 7 0 -1
BITMAP
08
FE
18
28
28
18
30
ENDCHAR
STARTCHAR U+305A
ENCODING 12378
SWIDTH 666 0
DWIDTH 8 0
BBX 7 7 0 -1
BITMAP
0A
FE
18
28
28
18
30
ENDCHAR
STARTCHAR U+305B
ENCODING 12379
SWIDTH 666 0
DWIDTH 8 0
BBX 7 7 0 -1
BITMAP
48
FE
48
48
58
40
3C
ENDCHAR
STARTCHAR U+305C
ENCODING 12380
SWIDTH 666 0
DWIDTH 8 0
BBX 7 7 0 -1
BITMAP
4A
FE
48
58
40
40
3C
ENDCHAR
STARTCHAR U+305D
ENCODING 12381
SWIDTH 666 0
DWIDTH 8 0
BBX 6 7 0 -1
BITMAP
78
10
20
FC
20
40
38
ENDCHAR
STARTCHAR U+305E
ENCODING 12382
SWIDTH 666 0
DWIDTH 8 0
BBX 7 7 0 -1
BITMAP
78
16
20
FC
20
40
38
ENDCHAR
STARTCHAR U+305F
ENCODING 12383
SWIDTH 666 0
DWIDTH 8 0
BBX 6 7 0 -1
BITMAP
40
FC
40
5C
80
A0
9C
ENDCHAR
STARTCHAR U+3060
ENCODING 12384
SWIDTH 666 0
DWIDTH 8 0
BBX 7 7 0 -1
BITMAP
4A
FA
40
5C
80
A0
9C
ENDCHAR
STARTCHAR U+3061
ENCODING 12385
SWIDTH 666 0
DWIDTH 8 0
BBX 7 7 0 -1
BITMAP
20
FC
20
3C
42
02
3C
ENDCHAR
STARTCHAR U+3062
ENCODING 12386
SWIDTH 666 0
DWIDTH 8 0
BBX 7 7 0 -1
BITMAP
24
FA
20
3C
42
02
3C
ENDCHAR
STARTCHAR U+3063
ENCODING 12387
SWIDTH 666 0
DWIDTH 8 0
BBX 6 5 0 -1
BITMAP
78
84
04
04
38
ENDCHAR
STARTCHAR U+3064
ENCODING 12388
SWIDTH 666 0
DWIDTH 8 0
BBX 7 6 0 -1
BITMAP
38
C4
02
02
04
38
ENDCHAR
STARTCHAR U+3065
ENCODING 12389
SWIDTH 666 0
DWIDTH 8 0
BBX 7 6 0 -1
BITMAP
3A
C4
02
02
04
38
ENDCHAR
STARTCHAR U+3066
ENCODING 12390
SWIDTH 666 0
DWIDTH 8 0
BBX 7 7 0 -1
BITMAP
FE
08
10
20
20
20
1C
ENDCHAR
STARTCHAR U+3067
ENCODING 12391
SWIDTH 666 0
DWIDTH 8 0
BBX 7 7 0 -1
BITMAP
FE
10
24
4A
40
20
1C
ENDCHAR
STARTCHAR U+3068
ENCODING 12392
SWIDTH 666 0
DWIDTH 8 0
BBX 6 7 0 -1
BITMAP
40
4C
30
40
80
80
7C
ENDCHAR
STARTCHAR U+3069
ENCODING 12393
SWIDTH 666 0
DWIDTH 8 0
BBX 7 7 0 -1
BITMAP
8A
4A
30
40
80
80
7C
ENDCHAR
STARTCHAR U+306A
ENCODING 12394
SWIDTH 666 0
DWIDTH 8 0
BBX 7 7 0 -1
BITMAP
44
F2
44
44
9C
A6
18
ENDCHAR
STARTCHAR U+306B
ENCODING 12395
SWIDTH 666 0
DWIDTH 8 0
BBX 7 6 0 -1
BITMAP
9E
80
80
90
90
8E
ENDCHAR
STARTCHAR U+306C
ENCODING 12396
SWIDTH 666 0
DWIDTH 8 0
BBX 7 7 0 -1
BITMAP
48
7C
CA
B2
96
AA
4C
ENDCHAR
STARTCHAR U+306D
ENCODING 12397
SWIDTH 666 0
DWIDTH 8 0
BBX 7 7 0 -1
BITMAP
40
5C
E2
42
CE
52
4C
ENDCHAR
STARTCHAR U+306E
ENCODING 12398
SWIDTH 666 0
DWIDTH 8 0
BBX 7 7 0 -1
BITMAP
38
54
92
92
92
A2
4C
ENDCHAR
STARTCHAR U+306F
ENCODING 12399
SWIDTH 666 0
DWIDTH 8 0
BBX 7 7 0 -1
BITMAP
84
BE
84
84
9C
A6
98
ENDCHAR
STARTCHAR U+3070
ENCODING 12400
SWIDTH 666 0
DWIDTH 8 0
BBX 7 7 0 -1
BITMAP
8A
BE
88
88
9C
AA
98
ENDCHAR
STARTCHAR U+3071
ENCODING 12401
SWIDTH 666 0
DWIDTH 8 0
BBX 7 7 0 -1
BITMAP
8E
BA
8C
88
9C
AA
98
ENDCHAR
STARTCHAR U+3072
ENCODING 12402
SWIDTH 666 0
DWIDTH 8 0
BBX 7 7 0 -1
BITMAP
E8
48
86
84
84
88
70
ENDCHAR
STARTCHAR U+3073
ENCODING 12403
SWIDTH 666 0
DWIDTH 8 0
BBX 7 7 0 -1
BITMAP
E6
48
84
86
84
88
70
ENDCHAR
STARTCHAR U+3074
ENCODING 12404
SWIDTH 666 0
DWIDTH 8 0
BBX 7 7 0 -1
BITMAP
E4
4A
84
86
84
88
70
ENDCHAR
STARTCHAR U+3075
ENCODING 12405
SWIDTH 666 0
DWIDTH 8 0
BBX 7 7 0 -1
BITMAP
78
10
20
94
8A
8A
30
ENDCHAR
STARTCHAR U+3076
ENCODING 12406
SWIDTH 666 0
DWIDTH 8 0
BBX 7 7 0 -1
BITMAP
7A
14
20
94
8A
8A
30
ENDCHAR
STARTCHAR U+3077
ENCODING 12407
SWIDTH 666 0
DWIDTH 8 0
BBX 7 7 0 -1
BITMAP
74
2A
24
92
8A
8A
30
ENDCHAR
STARTCHAR U+3078
ENCODING 12408
SWIDTH 666 0
DWIDTH 8 0
BBX 7 6 0 -1
BITMAP
20
50
88
88
04
02
ENDCHAR
STARTCHAR U+3079
ENCODING 12409
SWIDTH 666 0
DWIDTH 8 0
BBX 7 7 0 -1
BITMAP
0A
20
50
88
88
04
02
ENDCHAR
STARTCHAR U+307A
ENCODING 12410
SWIDTH 666 0
DWIDTH 8 0
BBX 7 7 0 -1
BITMAP
04
2A
54
88
88
04
02
ENDCHAR
STARTCHAR U+307B
ENCODING 12411
SWIDTH 666 0
DWIDTH 8 0
BBX 7 7 0 -1
BITMAP
BE
84
BE
84
9C
A6
98
ENDCHAR
STARTCHAR U+307C
ENCODING 12412
SWIDTH 666 0
DWIDTH 8 0
BBX 7 7 0 -1
BITMAP
BC
8A
BC
88
9C
AA
98
ENDCHAR
STARTCHAR U+307D
ENCODING 12413
SWIDTH 666 0
DWIDTH 8 0
BBX 7 7 0 -1
BITMAP
BE
8A
BC
88
9C
AA
98
ENDCHAR
STARTCHAR U+307E
ENCODING 12414
SWIDTH 666 0
DWIDTH 8 0
BBX 6 7 0 -1
BITMAP
FC
10
FC
10
78
94
70
ENDCHAR
STARTCHAR U+307F
ENCODING 12415
SWIDTH 666 0
DWIDTH 8 0
BBX 7 7 0 -1
BITMAP
70
14
74
AC
A6
C8
10
ENDCHAR
STARTCHAR U+3080
ENCODING 12416
SWIDTH 666 0
DWIDTH 8 0
BBX 7 7 0 -1
BITMAP
20
F4
22
60
A2
A2
7C
ENDCHAR
STARTCHAR U+3081
ENCODING 12417
SWIDTH 666 0
DWIDTH 8 0
BBX 7 7 0 -1
BITMAP
48
7C
4A
AA
AA
B2
64
ENDCHAR
STARTCHAR U+3082
ENCODING 12418
SWIDTH 666 0
DWIDTH 8 0
BBX 6 7 0 -1
BITMAP
40
F0
40
F4
44
44
38
ENDCHAR
STARTCHAR U+3083
ENCODING 12419
SWIDTH 666 0
DWIDTH 8 0
BBX 6 6 0 -1
BITMAP
48
7C
C4
28
20
20
ENDCHAR
STARTCHAR U+3084
ENCODING 12420
SWIDTH 666 0
DWIDTH 8 0
BBX 7 7 0 -1
BITMAP
90
5C
E2
42
4C
20
20
ENDCHAR
STARTCHAR U+3085
ENCODING 12421
SWIDTH 666 0
DWIDTH 8 0
BBX 6 6 0 -1
BITMAP
10
B8
D4
94
98
20
ENDCHAR
STARTCHAR U+3086
ENCODING 12422
SWIDTH 666 0
DWIDTH 8 0
BBX 7 7 0 -1
BITMAP
10
BC
D2
92
B2
9C
20
ENDCHAR
STARTCHAR U+3087
ENCODING 12423
SWIDTH 666 0
DWIDTH 8 0
BBX 6 6 0 -1
BITMAP
10
1C
10
78
94
70
ENDCHAR
STARTCHAR U+3088
ENCODING 12424
SWIDTH 666 0
DWIDTH 8 0
BBX 6 7 0 -1
BITMAP
10
1C
10
10
78
94
70
ENDCHAR
STARTCHAR U+3089
ENCODING 12425
SWIDTH 666 0
DWIDTH 8 0
BBX 7 7 0 -1
BITMAP
38
80
BC
C2
82
02
3C
ENDCHAR
STARTCHAR U+308A
ENCODING 12426
SWIDTH 666 0
DWIDTH 8 0
BBX 6 7 0 -1
BITMAP
98
A4
C4
84
84
08
30
ENDCHAR
STARTCHAR U+308B
ENCODING 12427
SWIDTH 666 0
DWIDTH 8 0
BBX 7 7 0 -1
BITMAP
7C
10
7C
82
32
4A
3C
ENDCHAR
STARTCHAR U+308C
ENCODING 12428
SWIDTH 666 0
DWIDTH 8 0
BBX 7 7 0 -1
BITMAP
58
E4
44
44
C4
46
44
ENDCHAR
STARTCHAR U+308D
ENCODING 12429
SWIDTH 666 0
DWIDTH 8 0
BBX 7 7 0 -1
BITMAP
7C
10
3C
42
82
02
3C
ENDCHAR
STARTCHAR U+308E
ENCODING 12430
SWIDTH 666 0
DWIDTH 8 0
BBX 6 6 0 -1
BITMAP
40
D8
64
C4
44
58
ENDCHAR
STARTCHAR U+308F
ENCODING 12431
SWIDTH 666 0
DWIDTH 8 0
BBX 7 7 0 -1
BITMAP
40
5C
E2
42
C2
42
4C
ENDCHAR
STARTCHAR U+3090
ENCODING 12432
SWIDTH 666 0
DWIDTH 8 0
BBX 7 7 0 -1
BITMAP
70
10
7C
A2
AA
D4
0A
ENDCHAR
STARTCHAR U+3091
ENCODING 12433
SWIDTH 666 0
DWIDTH 8 0
BBX 7 7 0 -1
BITMAP
7C
08
3C
52
3C
6C
92
ENDCHAR
STARTCHAR U+3092
ENCODING 12434
SWIDTH 666 0
DWIDTH 8 0
BBX 7 7 0 -1
BITMAP
10
FE
28
5E
94
20
1E
ENDCHAR
STARTCHAR U+3093
ENCODING 12435
SWIDTH 666 0
DWIDTH 8 0
BBX 7 7 0 -1
BITMAP
20
20
40
60
52
92
8C
ENDCHAR
STARTCHAR U+3094
ENCODING 12436
SWIDTH 666 0
DWIDTH 8 0
BBX 7 7 0 -1
BITMAP
7A
02
F8
04
04
08
70
ENDCHAR
STARTCHAR U+3095
ENCODING 12437
SWIDTH 666 0
DWIDTH 8 0
BBX 6 6 0 -1
BITMAP
48
F4
48
48
88
90
ENDCHAR
STARTCHAR U+3096
ENCODING 12438
SWIDTH 666 0
DWIDTH 8 0
BBX 6 6 0 -1
BITMAP
88
BC
88
88
88
B0
ENDCHAR
STARTCHAR U+3099
ENCODING 12441
SWIDTH 666 0
DWIDTH 8 0
BBX 3 2 4 4
BITMAP
A0
A0
ENDCHAR
STARTCHAR U+309A
ENCODING 12442
SWIDTH 666 0
DWIDTH 8 0
BBX 3 3 4 3
BITMAP
40
A0
40
ENDCHAR
STARTCHAR U+309B
ENCODING 12443
SWIDTH 666 0
DWIDTH 8 0
BBX 4 3 0 3
BITMAP
20
90
40
ENDCHAR
STARTCHAR U+309C
ENCODING 12444
SWIDTH 666 0
DWIDTH 8 0
BBX 3 3 0 3
BITMAP
40
A0
40
ENDCHAR
STARTCHAR U+309D
ENCODING 12445
SWIDTH 666 0
DWIDTH 8 0
BBX 4 5 1 0
BITMAP
80
40
20
70
10
ENDCHAR
STARTCHAR U+309E
ENCODING 12446
SWIDTH 666 0
DWIDTH 8 0
BBX 5 6 1 0
BITMAP
08
90
40
20
70
10
ENDCHAR
STARTCHAR U+30A0
ENCODING 12448
SWIDTH 666 0
DWIDTH 8 0
BBX 5 3 1 1
BITMAP
F8
00
F8
ENDCHAR
STARTCHAR U+30A1
ENCODING 12449
SWIDTH 666 0
DWIDTH 8 0
BBX 6 6 0 -1
BITMAP
FC
04
24
28
20
40
ENDCHAR
STARTCHAR U+30A2
ENCODING 12450
SWIDTH 666 0
DWIDTH 8 0
BBX 7 7 0 -1
BITMAP
FE
02
12
14
10
10
60
ENDCHAR
STARTCHAR U+30A3
ENCODING 12451
SWIDTH 666 0
DWIDTH 8 0
BBX 5 6 1 -1
BITMAP
08
30
E0
20
20
20
ENDCHAR
STARTCHAR U+30A4
ENCODING 12452
SWIDTH 666 0
DWIDTH 8 0
BBX 6 7 0 -1
BITMAP
04
08
30
D0
10
10
10
ENDCHAR
STARTCHAR U+30A5
ENCODING 12453
SWIDTH 666 0
DWIDTH 8 0
BBX 5 6 1 -1
BITMAP
20
F8
88
08
10
60
ENDCHAR
STARTCHAR U+30A6
ENCODING 12454
SWIDTH 666 0
DWIDTH 8 0
BBX 6 7 0 -1
BITMAP
20
FC
84
84
04
08
30
ENDCHAR
STARTCHAR U+30A7
ENCODING 12455
SWIDTH 666 0
DWIDTH 8 0
BBX 5 5 1 -1
BITMAP
F8
20
20
20
F8
ENDCHAR
STARTCHAR U+30A8
ENCODING 12456
SWIDTH 666 0
DWIDTH 8 0
BBX 7 6 0 -1
BITMAP
7C
10
10
10
10
FE
ENDCHAR
STARTCHAR U+30A9
ENCODING 12457
SWIDTH 666 0
DWIDTH 8 0
BBX 5 6 1 -1
BITMAP
10
F8
30
50
90
30
ENDCHAR
STARTCHAR U+30AA
ENCODING 12458
SWIDTH 666 0
DWIDTH 8 0
BBX 7 7 0 -1
BITMAP
08
FE
18
28
48
88
18
ENDCHAR
STARTCHAR U+30AB
ENCODING 12459
SWIDTH 666 0
DWIDTH 8 0
BBX 6 7 0 -1
BITMAP
20
FC
24
24
24
44
98
ENDCHAR
STARTCHAR U+30AC
ENCODING 12460
SWIDTH 666 0
DWIDTH 8 0
BBX 7 7 0 -1
BITMAP
2A
FC
24
24
24
44
98
ENDCHAR
STARTCHAR U+30AD
ENCODING 12461
SWIDTH 666 0
DWIDTH 8 0
BBX 7 7 0 -1
BITMAP
20
2C
F0
1E
F0
08
08
ENDCHAR
STARTCHAR U+30AE
ENCODING 12462
SWIDTH 666 0
DWIDTH 8 0
BBX 7 7 0 -1
BITMAP
2A
2C
F0
1E
F0
08
08
ENDCHAR
STARTCHAR U+30AF
ENCODING 12463
SWIDTH 666 0
DWIDTH 8 0
BBX 6 7 0 -1
BITMAP
20
3C
44
84
08
10
60
ENDCHAR
STARTCHAR U+30B0
ENCODING 12464
SWIDTH 666 0
DWIDTH 8 0
BBX 7 7 0 -1
BITMAP
22
3E
44
84
08
10
60
ENDCHAR
STARTCHAR U+30B1
ENCODING 12465
SWIDTH 666 0
DWIDTH 8 0
BBX 7 7 0 -1
BITMAP
40
7E
48
88
08
10
60
ENDCHAR
STARTCHAR U+30B2
ENCODING 12466
SWIDTH 666 0
DWIDTH 8 0
BBX 7 7 0 -1
BITMAP
42
7E
48
88
08
10
60
ENDCHAR
STARTCHAR U+30B3
ENCODING 12467
SWIDTH 666 0
DWIDTH 8 0
BBX 6 6 0 -1
BITMAP
FC
04
04
04
04
FC
ENDCHAR
STARTCHAR U+30B4
ENCODING 12468
SWIDTH 666 0
DWIDTH 8 0
BBX 7 7 0 -1
BITMAP
02
FE
04
04
04
04
FC
ENDCHAR
STARTCHAR U+30B5
ENCODING 12469
SWIDTH 666 0
DWIDTH 8 0
BBX 7 7 0 -1
BITMAP
48
FE
48
48
08
08
30
ENDCHAR
STARTCHAR U+30B6
ENCODING 12470
SWIDTH 666 0
DWIDTH 8 0
BBX 7 7 0 -1
BITMAP
4A
FE
48
48
08
08
30
ENDCHAR
STARTCHAR U+30B7
ENCODING 12471
SWIDTH 666 0
DWIDTH 8 0
BBX 7 7 0 -1
BITMAP
40
20
82
42
04
18
E0
ENDCHAR
STARTCHAR U+30B8
ENCODING 12472
SWIDTH 666 0
DWIDTH 8 0
BBX 7 7 0 -1
BITMAP
4A
20
82
42
04
18
E0
ENDCHAR
STARTCHAR U+30B9
ENCODING 12473
SWIDTH 666 0
DWIDTH 8 0
BBX 7 7 0 -1
BITMAP
FC
04
08
10
28
44
82
ENDCHAR
STARTCHAR U+30BA
ENCODING 12474
SWIDTH 666 0
DWIDTH 8 0
BBX 7 7 0 -1
BITMAP
FA
0A
08
10
28
44
82
ENDCHAR
STARTCHAR U+30BB
ENCODING 12475
SWIDTH 666 0
DWIDTH 8 0
BBX 7 7 0 -1
BITMAP
40
5E
E2
44
40
40
3E
ENDCHAR
STARTCHAR U+30BC
ENCODING 12476
SWIDTH 666 0
DWIDTH 8 0
BBX 7 7 0 -1
BITMAP
4A
40
FE
44
48
40
3E
ENDCHAR
STARTCHAR U+30BD
ENCODING 12477
SWIDTH 666 0
DWIDTH 8 0
BBX 6 7 0 -1
BITMAP
84
44
44
04
08
10
60
ENDCHAR
STARTCHAR U+30BE
ENCODING 12478
SWIDTH 666 0
DWIDTH 8 0
BBX 7 7 0 -1
BITMAP
8A
44
44
04
08
10
60
ENDCHAR
STARTCHAR U+30BF
ENCODING 12479
SWIDTH 666 0
DWIDTH 8 0
BBX 6 7 0 -1
BITMAP
20
3C
44
A4
14
08
F0
ENDCHAR
STARTCHAR U+30C0
ENCODING 12480
SWIDTH 666 0
DWIDTH 8 0
BBX 7 7 0 -1
BITMAP
22
3E
44
A4
14
08
F0
ENDCHAR
STARTCHAR U+30C1
ENCODING 12481
SWIDTH 666 0
DWIDTH 8 0
BBX 7 7 0 -1
BITMAP
04
78
10
FE
10
10
60
ENDCHAR
STARTCHAR U+30C2
ENCODING 12482
SWIDTH 666 0
DWIDTH 8 0
BBX 7 7 0 -1
BITMAP
04
7A
10
FE
10
10
60
ENDCHAR
STARTCHAR U+30C3
ENCODING 12483
SWIDTH 666 0
DWIDTH 8 0
BBX 6 6 0 -1
BITMAP
A4
54
54
04
08
70
ENDCHAR
STARTCHAR U+30C4
ENCODING 12484
SWIDTH 666 0
DWIDTH 8 0
BBX 6 7 0 -1
BITMAP
A4
54
54
04
08
10
60
ENDCHAR
STARTCHAR U+30C5
ENCODING 12485
SWIDTH 666 0
DWIDTH 8 0
BBX 7 7 0 -1
BITMAP
A4
52
54
04
08
10
60
ENDCHAR
STARTCHAR U+30C6
ENCODING 12486
SWIDTH 666 0
DWIDTH 8 0
BBX 7 7 0 -1
BITMAP
7C
00
FE
10
10
10
60
ENDCHAR
STARTCHAR U+30C7
ENCODING 12487
SWIDTH 666 0
DWIDTH 8 0
BBX 7 7 0 -1
BITMAP
7A
02
FC
10
10
10
60
ENDCHAR
STARTCHAR U+30C8
ENCODING 12488
SWIDTH 666 0
DWIDTH 8 0
BBX 4 7 2 -1
BITMAP
80
80
C0
A0
90
80
80
ENDCHAR
STARTCHAR U+30C9
ENCODING 12489
SWIDTH 666 0
DWIDTH 8 0
BBX 6 7 1 -1
BITMAP
94
80
C0
A0
90
80
80
ENDCHAR
STARTCHAR U+30CA
ENCODING 12490
SWIDTH 666 0
DWIDTH 8 0
BBX 7 7 0 -1
BITMAP
10
10
FE
10
10
10
60
ENDCHAR
STARTCHAR U+30CB
ENCODING 12491
SWIDTH 666 0
DWIDTH 8 0
BBX 7 5 0 0
BITMAP
7C
00
00
00
FE
ENDCHAR
STARTCHAR U+30CC
ENCODING 12492
SWIDTH 666 0
DWIDTH 8 0
BBX 6 7 0 -1
BITMAP
FC
04
04
68
10
28
C4
ENDCHAR
STARTCHAR U+30CD
ENCODING 12493
SWIDTH 666 0
DWIDTH 8 0
BBX 7 7 0 -1
BITMAP
10
7C
08
38
D6
10
10
ENDCHAR
STARTCHAR U+30CE
ENCODING 12494
SWIDTH 666 0
DWIDTH 8 0
BBX 5 7 0 -1
BITMAP
08
08
10
10
20
40
80
ENDCHAR
STARTCHAR U+30CF
ENCODING 12495
SWIDTH 666 0
DWIDTH 8 0
BBX 7 7 0 -1
BITMAP
28
28
28
28
44
44
82
ENDCHAR
STARTCHAR U+30D0
ENCODING 12496
SWIDTH 666 0
DWIDTH 8 0
BBX 7 7 0 -1
BITMAP
2A
2A
28
28
44
44
82
ENDCHAR
STARTCHAR U+30D1
ENCODING 12497
SWIDTH 666 0
DWIDTH 8 0
BBX 7 7 0 -1
BITMAP
2C
2A
2C
28
44
44
82
ENDCHAR
STARTCHAR U+30D2
ENCODING 12498
SWIDTH 666 0
DWIDTH 8 0
BBX 6 7 0 -1
BITMAP
80
8C
F0
80
80
80
7C
ENDCHAR
STARTCHAR U+30D3
ENCODING 12499
SWIDTH 666 0
DWIDTH 8 0
BBX 7 7 0 -1
BITMAP
8A
80
F8
80
80
80
7C
ENDCHAR
STARTCHAR U+30D4
ENCODING 12500
SWIDTH 666 0
DWIDTH 8 0
BBX 7 7 0 -1
BITMAP
84
8A
F4
80
80
80
7C
ENDCHAR
STARTCHAR U+30D5
ENCODING 12501
SWIDTH 666 0
DWIDTH 8 0
BBX 6 6 0 -1
BITMAP
FC
04
04
08
10
60
ENDCHAR
STARTCHAR U+30D6
ENCODING 12502
SWIDTH 666 0
DWIDTH 8 0
BBX 7 7 0 -1
BITMAP
02
FE
04
04
08
10
60
ENDCHAR
STARTCHAR U+30D7
ENCODING 12503
SWIDTH 666 0
DWIDTH 8 0
BBX 7 7 0 -1
BITMAP
06
FA
0C
08
08
10
60
ENDCHAR
STARTCHAR U+30D8
ENCODING 12504
SWIDTH 666 0
DWIDTH 8 0
BBX 7 5 0 0
BITMAP
20
50
88
84
02
ENDCHAR
STARTCHAR U+30D9
ENCODING 12505
SWIDTH 666 0
DWIDTH 8 0
BBX 7 6 0 0
BITMAP
0A
20
50
88
84
02
ENDCHAR
STARTCHAR U+30DA
ENCODING 12506
SWIDTH 666 0
DWIDTH 8 0
BBX 7 6 0 0
BITMAP
04
2A
54
88
84
02
ENDCHAR
STARTCHAR U+30DB
ENCODING 12507
SWIDTH 666 0
DWIDTH 8 0
BBX 7 7 0 -1
BITMAP
10
FE
10
54
54
92
10
ENDCHAR
STARTCHAR U+30DC
ENCODING 12508
SWIDTH 666 0
DWIDTH 8 0
BBX 7 7 0 -1
BITMAP
12
FE
10
54
54
92
10
ENDCHAR
STARTCHAR U+30DD
ENCODING 12509
SWIDTH 666 0
DWIDTH 8 0
BBX 7 7 0 -1
BITMAP
16
FA
10
54
54
92
10
ENDCHAR
STARTCHAR U+30DE
ENCODING 12510
SWIDTH 666 0
DWIDTH 8 0
BBX 7 7 0 -1
BITMAP
FE
02
02
04
68
10
08
ENDCHAR
STARTCHAR U+30DF
ENCODING 12511
SWIDTH 666 0
DWIDTH 8 0
BBX 6 7 0 -1
BITMAP
F0
0C
E0
1C
00
F0
0C
ENDCHAR
STARTCHAR U+30E0
ENCODING 12512
SWIDTH 666 0
DWIDTH 8 0
BBX 7 7 0 -1
BITMAP
10
10
20
24
44
42
FE
ENDCHAR
STARTCHAR U+30E1
ENCODING 12513
SWIDTH 666 0
DWIDTH 8 0
BBX 6 7 0 -1
BITMAP
04
04
64
18
18
24
C0
ENDCHAR
STARTCHAR U+30E2
ENCODING 12514
SWIDTH 666 0
DWIDTH 8 0
BBX 7 7 0 -1
BITMAP
FC
20
20
FE
20
20
1C
ENDCHAR
STARTCHAR U+30E3
ENCODING 12515
SWIDTH 666 0
DWIDTH 8 0
BBX 6 6 0 -1
BITMAP
40
FC
44
28
20
20
ENDCHAR
STARTCHAR U+30E4
ENCODING 12516
SWIDTH 666 0
DWIDTH 8 0
BBX 7 7 0 -1
BITMAP
40
FE
22
22
24
10
10
ENDCHAR
STARTCHAR U+30E5
ENCODING 12517
SWIDTH 666 0
DWIDTH 8 0
BBX 6 5 0 -1
BITMAP
78
08
08
10
FC
ENDCHAR
STARTCHAR U+30E6
ENCODING 12518
SWIDTH 666 0
DWIDTH 8 0
BBX 7 7 0 -1
BITMAP
7C
04
04
04
08
08
FE
ENDCHAR
STARTCHAR U+30E7
ENCODING 12519
SWIDTH 666 0
DWIDTH 8 0
BBX 5 5 1 -1
BITMAP
F8
08
F8
08
F8
ENDCHAR
STARTCHAR U+30E8
ENCODING 12520
SWIDTH 666 0
DWIDTH 8 0
BBX 6 7 0 -1
BITMAP
FC
04
04
FC
04
04
FC
ENDCHAR
STARTCHAR U+30E9
ENCODING 12521
SWIDTH 666 0
DWIDTH 8 0
BBX 7 7 0 -1
BITMAP
7C
00
FE
02
02
0C
70
ENDCHAR
STARTCHAR U+30EA
ENCODING 12522
SWIDTH 666 0
DWIDTH 8 0
BBX 6 7 0 -1
BITMAP
84
84
84
84
04
08
30
ENDCHAR
STARTCHAR U+30EB
ENCODING 12523
SWIDTH 666 0
DWIDTH 8 0
BBX 7 7 0 -1
BITMAP
50
50
50
52
52
54
98
ENDCHAR
STARTCHAR U+30EC
ENCODING 12524
SWIDTH 666 0
DWIDTH 8 0
BBX 6 7 0 -1
BITMAP
80
80
84
84
88
90
E0
ENDCHAR
STARTCHAR U+30ED
ENCODING 12525
SWIDTH 666 0
DWIDTH 8 0
BBX 6 7 0 -1
BITMAP
FC
84
84
84
84
84
FC
ENDCHAR
STARTCHAR U+30EE
ENCODING 12526
SWIDTH 666 0
DWIDTH 8 0
BBX 5 5 1 -1
BITMAP
F8
88
88
10
60
ENDCHAR
STARTCHAR U+30EF
ENCODING 12527
SWIDTH 666 0
DWIDTH 8 0
BBX 6 7 0 -1
BITMAP
FC
84
84
04
04
08
70
ENDCHAR
STARTCHAR U+30F0
ENCODING 12528
SWIDTH 666 0
DWIDTH 8 0
BBX 7 7 0 -1
BITMAP
08
FE
48
48
FE
08
08
ENDCHAR
STARTCHAR U+30F1
ENCODING 12529
SWIDTH 666 0
DWIDTH 8 0
BBX 7 7 0 -1
BITMAP
7C
04
18
10
10
10
FE
ENDCHAR
STARTCHAR U+30F2
ENCODING 12530
SWIDTH 666 0
DWIDTH 8 0
BBX 6 7 0 -1
BITMAP
FC
04
FC
04
04
08
70
ENDCHAR
STARTCHAR U+30F3
ENCODING 12531
SWIDTH 666 0
DWIDTH 8 0
BBX 7 7 0 -1
BITMAP
C0
22
02
02
04
08
F0
ENDCHAR
STARTCHAR U+30F4
ENCODING 12532
SWIDTH 666 0
DWIDTH 8 0
BBX 7 7 0 -1
BITMAP
22
FE
84
84
04
08
70
ENDCHAR
STARTCHAR U+30F5
ENCODING 12533
SWIDTH 666 0
DWIDTH 8 0
BBX 6 6 0 -1
BITMAP
20
FC
24
24
44
98
ENDCHAR
STARTCHAR U+30F6
ENCODING 12534
SWIDTH 666 0
DWIDTH 8 0
BBX 7 6 0 -1
BITMAP
40
7E
48
88
08
30
ENDCHAR
STARTCHAR U+30F7
ENCODING 12535
SWIDTH 666 0
DWIDTH 8 0
BBX 7 7 0 -1
BITMAP
0A
FC
84
84
04
08
70
ENDCHAR
STARTCHAR U+30F8
ENCODING 12536
SWIDTH 666 0
DWIDTH 8 0
BBX 7 7 0 -1
BITMAP
0A
FE
48
48
FE
08
08
ENDCHAR
STARTCHAR U+30F9
ENCODING 12537
SWIDTH 666 0
DWIDTH 8 0
BBX 7 7 0 -1
BITMAP
0A
7C
04
18
10
10
FE
ENDCHAR
STARTCHAR U+30FA
ENCODING 12538
SWIDTH 666 0
DWIDTH 8 0
BBX 7 7 0 -1
BITMAP
0A
FC
04
FC
04
08
70
ENDCHAR
STARTCHAR U+30FB
ENCODING 12539
SWIDTH 666 0
DWIDTH 8 0
BBX 2 2 2 2
BITMAP
C0
C0
ENDCHAR
STARTCHAR U+30FC
ENCODING 12540
SWIDTH 666 0
DWIDTH 8 0
BBX 6 1 0 2
BITMAP
FC
ENDCHAR
STARTCHAR U+30FD
ENCODING 12541
SWIDTH 666 0
DWIDTH 8 0
BBX 4 4 1 1
BITMAP
80
40
20
10
ENDCHAR
STARTCHAR U+30FE
ENCODING 12542
SWIDTH 666 0
DWIDTH 8 0
BBX 5 5 1 1
BITMAP
08
90
40
20
10
ENDCHAR
STARTCHAR U+3105
ENCODING 12549
SWIDTH 666 0
DWIDTH 8 0
BBX 5 7 1 -2
BITMAP
20
40
F8
08
08
08
30
ENDCHAR
STARTCHAR U+3106
ENCODING 12550
SWIDTH 666 0
DWIDTH 8 0
BBX 5 7 1 -2
BITMAP
40
F8
08
50
20
50
88
ENDCHAR
STARTCHAR U+3107
ENCODING 12551
SWIDTH 666 0
DWIDTH 8 0
BBX 5 7 1 -2
BITMAP
F8
88
88
88
88
88
88
ENDCHAR
STARTCHAR U+3108
ENCODING 12552
SWIDTH 666 0
DWIDTH 8 0
BBX 5 7 1 -2
BITMAP
F8
80
80
80
80
80
F8
ENDCHAR
STARTCHAR U+3109
ENCODING 12553
SWIDTH 666 0
DWIDTH 8 0
BBX 5 7 1 -2
BITMAP
80
F8
48
48
48
48
90
ENDCHAR
STARTCHAR U+310A
ENCODING 12554
SWIDTH 666 0
DWIDTH 8 0
BBX 5 7 1 -2
BITMAP
20
F8
40
40
90
90
E8
ENDCHAR
STARTCHAR U+310B
ENCODING 12555
SWIDTH 666 0
DWIDTH 8 0
BBX 5 7 1 -2
BITMAP
F0
10
20
78
08
08
30
ENDCHAR
STARTCHAR U+310C
ENCODING 12556
SWIDTH 666 0
DWIDTH 8 0
BBX 5 7 1 -2
BITMAP
A0
F8
28
28
48
48
90
ENDCHAR
STARTCHAR U+310D
ENCODING 12557
SWIDTH 666 0
DWIDTH 8 0
BBX 5 7 1 -2
BITMAP
28
50
50
A0
50
50
28
ENDCHAR
STARTCHAR U+310E
ENCODING 12558
SWIDTH 666 0
DWIDTH 8 0
BBX 5 7 1 -2
BITMAP
F8
20
40
78
08
08
30
ENDCHAR
STARTCHAR U+310F
ENCODING 12559
SWIDTH 666 0
DWIDTH 8 0
BBX 5 7 1 -2
BITMAP
78
40
40
40
40
40
80
ENDCHAR
STARTCHAR U+3110
ENCODING 12560
SWIDTH 666 0
DWIDTH 8 0
BBX 5 7 1 -2
BITMAP
08
88
88
98
E8
08
08
ENDCHAR
STARTCHAR U+3111
ENCODING 12561
SWIDTH 666 0
DWIDTH 8 0
BBX 5 7 1 -2
BITMAP
08
30
40
80
40
30
08
ENDCHAR
STARTCHAR U+3112
ENCODING 12562
SWIDTH 666 0
DWIDTH 8 0
BBX 5 7 1 -2
BITMAP
F8
20
20
20
20
20
20
ENDCHAR
STARTCHAR U+3113
ENCODING 12563
SWIDTH 666 0
DWIDTH 8 0
BBX 5 7 1 -2
BITMAP
20
A8
A8
F8
20
20
F8
ENDCHAR
STARTCHAR U+3114
ENCODING 12564
SWIDTH 666 0
DWIDTH 8 0
BBX 4 7 2 -2
BITMAP
10
20
D0
20
E0
20
20
ENDCHAR
STARTCHAR U+3115
ENCODING 12565
SWIDTH 666 0
DWIDTH 8 0
BBX 5 7 1 -2
BITMAP
F8
08
08
78
40
40
80
ENDCHAR
STARTCHAR U+3116
ENCODING 12566
SWIDTH 666 0
DWIDTH 8 0
BBX 5 7 1 -2
BITMAP
F8
88
C8
A8
98
88
F8
ENDCHAR
STARTCHAR U+3117
ENCODING 12567
SWIDTH 666 0
DWIDTH 8 0
BBX 5 7 1 -2
BITMAP
F8
48
48
58
40
40
40
ENDCHAR
STARTCHAR U+3118
ENCODING 12568
SWIDTH 666 0
DWIDTH 8 0
BBX 5 7 1 -2
BITMAP
20
F8
40
70
10
10
20
ENDCHAR
STARTCHAR U+3119
ENCODING 12569
SWIDTH 666 0
DWIDTH 8 0
BBX 5 7 1 -2
BITMAP
20
20
40
40
90
90
E8
ENDCHAR
STARTCHAR U+311A
ENCODING 12570
SWIDTH 666 0
DWIDTH 8 0
BBX 5 7 1 -2
BITMAP
88
50
20
20
20
20
20
ENDCHAR
STARTCHAR U+311B
ENCODING 12571
SWIDTH 666 0
DWIDTH 8 0
BBX 5 7 1 -2
BITMAP
F8
20
20
60
80
88
70
ENDCHAR
STARTCHAR U+311C
ENCODING 12572
SWIDTH 666 0
DWIDTH 8 0
BBX 5 7 1 -2
BITMAP
20
F8
20
60
80
88
70
ENDCHAR
STARTCHAR U+311D
ENCODING 12573
SWIDTH 666 0
DWIDTH 8 0
BBX 5 7 1 -2
BITMAP
50
F8
50
50
40
40
38
ENDCHAR
STARTCHAR U+311E
ENCODING 12574
SWIDTH 666 0
DWIDTH 8 0
BBX 5 7 1 -2
BITMAP
F8
A0
F8
28
28
48
90
ENDCHAR
STARTCHAR U+311F
ENCODING 12575
SWIDTH 666 0
DWIDTH 8 0
BBX 5 7 1 -2
BITMAP
60
A0
20
20
20
10
08
ENDCHAR
STARTCHAR U+3120
ENCODING 12576
SWIDTH 666 0
DWIDTH 8 0
BBX 5 7 1 -2
BITMAP
40
90
D0
20
40
90
E8
ENDCHAR
STARTCHAR U+3121
ENCODING 12577
SWIDTH 666 0
DWIDTH 8 0
BBX 6 7 1 -2
BITMAP
7C
04
44
28
10
28
C4
ENDCHAR
STARTCHAR U+3122
ENCODING 12578
SWIDTH 666 0
DWIDTH 8 0
BBX 5 7 1 -2
BITMAP
F0
50
50
78
08
08
10
ENDCHAR
STARTCHAR U+3123
ENCODING 12579
SWIDTH 666 0
DWIDTH 8 0
BBX 5 7 1 -2
BITMAP
40
40
80
F8
08
08
10
ENDCHAR
STARTCHAR U+3124
ENCODING 12580
SWIDTH 666 0
DWIDTH 8 0
BBX 5 7 1 -2
BITMAP
20
F8
20
20
50
50
98
ENDCHAR
STARTCHAR U+3125
ENCODING 12581
SWIDTH 666 0
DWIDTH 8 0
BBX 5 7 1 -2
BITMAP
20
20
20
40
80
80
F8
ENDCHAR
STARTCHAR U+3126
ENCODING 12582
SWIDTH 666 0
DWIDTH 8 0
BBX 5 7 1 -2
BITMAP
50
50
50
50
50
50
98
ENDCHAR
STARTCHAR U+3127
ENCODING 12583
SWIDTH 666 0
DWIDTH 8 0
BBX 5 1 1 2
BITMAP
F8
ENDCHAR
STARTCHAR U+3128
ENCODING 12584
SWIDTH 666 0
DWIDTH 8 0
BBX 6 7 0 -2
BITMAP
04
04
48
28
10
28
C4
ENDCHAR
STARTCHAR U+3129
ENCODING 12585
SWIDTH 666 0
DWIDTH 8 0
BBX 5 7 1 -2
BITMAP
88
88
88
88
88
88
F8
ENDCHAR
STARTCHAR U+312A
ENCODING 12586
SWIDTH 666 0
DWIDTH 8 0
BBX 5 7 1 -2
BITMAP
F8
40
78
48
48
48
90
ENDCHAR
STARTCHAR U+312B
ENCODING 12587
SWIDTH 666 0
DWIDTH 8 0
BBX 5 7 1 -2
BITMAP
F8
50
50
50
50
50
98
ENDCHAR
STARTCHAR U+312C
ENCODING 12588
SWIDTH 666 0
DWIDTH 8 0
BBX 5 7 1 -2
BITMAP
20
78
40
40
40
40
80
ENDCHAR
STARTCHAR U+312D
ENCODING 12589
SWIDTH 666 0
DWIDTH 8 0
BBX 5 7 1 -2
BITMAP
F8
20
F8
A8
A8
A8
20
ENDCHAR
STARTCHAR U+312E
ENCODING 12590
SWIDTH 666 0
DWIDTH 8 0
BBX 5 7 1 -2
BITMAP
20
00
F8
20
60
88
70
ENDCHAR
STARTCHAR U+312F
ENCODING 12591
SWIDTH 666 0
DWIDTH 8 0
BBX 5 7 1 -2
BITMAP
F0
10
20
78
48
48
50
ENDCHAR
STARTCHAR U+3131
ENCODING 12593
SWIDTH 666 0
DWIDTH 8 0
BBX 5 5 1 0
BITMAP
F8
08
08
08
08
ENDCHAR
STARTCHAR U+3132
ENCODING 12594
SWIDTH 666 0
DWIDTH 8 0
BBX 5 5 1 0
BITMAP
F8
28
28
28
28
ENDCHAR
STARTCHAR U+3133
ENCODING 12595
SWIDTH 666 0
DWIDTH 8 0
BBX 5 5 1 0
BITMAP
F8
08
08
08
08
ENDCHAR
STARTCHAR U+3134
ENCODING 12596
SWIDTH 666 0
DWIDTH 8 0
BBX 5 5 1 0
BITMAP
80
80
80
80
F8
ENDCHAR
STARTCHAR U+3135
ENCODING 12597
SWIDTH 666 0
DWIDTH 8 0
BBX 7 5 0 0
BITMAP
8E
84
84
8A
EA
ENDCHAR
STARTCHAR U+3136
ENCODING 12598
SWIDTH 666 0
DWIDTH 8 0
BBX 7 6 0 0
BITMAP
04
8E
84
8A
8A
E4
ENDCHAR
STARTCHAR U+3137
ENCODING 12599
SWIDTH 666 0
DWIDTH 8 0
BBX 5 5 1 0
BITMAP
F8
80
80
80
F8
ENDCHAR
STARTCHAR U+3138
ENCODING 12600
SWIDTH 666 0
DWIDTH 8 0
BBX 5 5 1 0
BITMAP
F8
A0
A0
A0
F8
ENDCHAR
STARTCHAR U+3139
ENCODING 12601
SWIDTH 666 0
DWIDTH 8 0
BBX 5 5 1 0
BITMAP
F8
08
F8
80
F8
ENDCHAR
STARTCHAR U+313A
ENCODING 12602
SWIDTH 666 0
DWIDTH 8 0
BBX 7 5 0 0
BITMAP
EE
22
E2
82
E2
ENDCHAR
STARTCHAR U+313B
ENCODING 12603
SWIDTH 666 0
DWIDTH 8 0
BBX 7 5 0 0
BITMAP
EE
2A
EA
8A
EE
ENDCHAR
STARTCHAR U+313C
ENCODING 12604
SWIDTH 666 0
DWIDTH 8 0
BBX 7 5 0 0
BITMAP
EA
2A
EE
8A
EE
ENDCHAR
STARTCHAR U+313D
ENCODING 12605
SWIDTH 666 0
DWIDTH 8 0
BBX 7 5 0 0
BITMAP
E4
24
EA
8A
EA
ENDCHAR
STARTCHAR U+313E
ENCODING 12606
SWIDTH 666 0
DWIDTH 8 0
BBX 7 5 0 0
BITMAP
EE
28
EE
88
EE
ENDCHAR
STARTCHAR U+313F
ENCODING 12607
SWIDTH 666 0
DWIDTH 8 0
BBX 7 5 0 0
BITMAP
FE
20
EC
8C
FE
ENDCHAR
STARTCHAR U+3140
ENCODING 12608
SWIDTH 666 0
DWIDTH 8 0
BBX 7 6 0 0
BITMAP
04
EE
24
EA
8A
E4
ENDCHAR
STARTCHAR U+3141
ENCODING 12609
SWIDTH 666 0
DWIDTH 8 0
BBX 5 5 1 0
BITMAP
F8
88
88
88
F8
ENDCHAR
STARTCHAR U+3142
ENCODING 12610
SWIDTH 666 0
DWIDTH 8 0
BBX 5 5 1 0
BITMAP
88
88
F8
88
F8
ENDCHAR
STARTCHAR U+3143
ENCODING 12611
SWIDTH 666 0
DWIDTH 8 0
BBX 7 5 0 0
BITMAP
AA
AA
EE
AA
EE
ENDCHAR
STARTCHAR U+3144
ENCODING 12612
SWIDTH 666 0
DWIDTH 8 0
BBX 7 5 0 0
BITMAP
A4
A4
EA
AA
EA
ENDCHAR
STARTCHAR U+3145
ENCODING 12613
SWIDTH 666 0
DWIDTH 8 0
BBX 5 5 1 0
BITMAP
20
20
50
50
88
ENDCHAR
STARTCHAR U+3146
ENCODING 12614
SWIDTH 666 0
DWIDTH 8 0
BBX 7 5 0 0
BITMAP
28
28
54
54
92
ENDCHAR
STARTCHAR U+3147
ENCODING 12615
SWIDTH 666 0
DWIDTH 8 0
BBX 5 5 1 0
BITMAP
70
88
88
88
70
ENDCHAR
STARTCHAR U+3148
ENCODING 12616
SWIDTH 666 0
DWIDTH 8 0
BBX 5 5 1 0
BITMAP
F8
20
50
50
88
ENDCHAR
STARTCHAR U+3149
ENCODING 12617
SWIDTH 666 0
DWIDTH 8 0
BBX 7 5 0 0
BITMAP
FE
28
54
54
92
ENDCHAR
STARTCHAR U+314A
ENCODING 12618
SWIDTH 666 0
DWIDTH 8 0
BBX 5 6 1 0
BITMAP
20
F8
20
50
50
88
ENDCHAR
STARTCHAR U+314B
ENCODING 12619
SWIDTH 666 0
DWIDTH 8 0
BBX 5 5 1 0
BITMAP
F8
08
F8
08
08
ENDCHAR
STARTCHAR U+314C
ENCODING 12620
SWIDTH 666 0
DWIDTH 8 0
BBX 5 5 1 0
BITMAP
F8
80
F8
80
F8
ENDCHAR
STARTCHAR U+314D
ENCODING 12621
SWIDTH 666 0
DWIDTH 8 0
BBX 5 5 1 0
BITMAP
F8
50
50
50
F8
ENDCHAR
STARTCHAR U+314E
ENCODING 12622
SWIDTH 666 0
DWIDTH 8 0
BBX 5 6 1 0
BITMAP
20
F8
70
88
88
70
ENDCHAR
STARTCHAR U+314F
ENCODING 12623
SWIDTH 666 0
DWIDTH 8 0
BBX 3 7 2 -1
BITMAP
80
80
80
E0
80
80
80
ENDCHAR
STARTCHAR U+3150
ENCODING 12624
SWIDTH 666 0
DWIDTH 8 0
BBX 3 7 2 -1
BITMAP
A0
A0
A0
E0
A0
A0
A0
ENDCHAR
STARTCHAR U+3151
ENCODING 12625
SWIDTH 666 0
DWIDTH 8 0
BBX 3 7 2 -1
BITMAP
80
80
E0
80
E0
80
80
ENDCHAR
STARTCHAR U+3152
ENCODING 12626
SWIDTH 666 0
DWIDTH 8 0
BBX 3 7 2 -1
BITMAP
A0
A0
E0
A0
E0
A0
A0
ENDCHAR
STARTCHAR U+3153
ENCODING 12627
SWIDTH 666 0
DWIDTH 8 0
BBX 3 7 2 -1
BITMAP
20
20
20
E0
20
20
20
ENDCHAR
STARTCHAR U+3154
ENCODING 12628
SWIDTH 666 0
DWIDTH 8 0
BBX 5 7 1 -1
BITMAP
28
28
28
E8
28
28
28
ENDCHAR
STARTCHAR U+3155
ENCODING 12629
SWIDTH 666 0
DWIDTH 8 0
BBX 3 7 2 -1
BITMAP
20
20
E0
20
E0
20
20
ENDCHAR
STARTCHAR U+3156
ENCODING 12630
SWIDTH 666 0
DWIDTH 8 0
BBX 5 7 1 -1
BITMAP
28
28
E8
28
E8
28
28
ENDCHAR
STARTCHAR U+3157
ENCODING 12631
SWIDTH 666 0
DWIDTH 8 0
BBX 7 3 0 1
BITMAP
10
10
FE
ENDCHAR
STARTCHAR U+3158
ENCODING 12632
SWIDTH 666 0
DWIDTH 8 0
BBX 7 7 0 -1
BITMAP
04
04
04
46
44
F4
04
ENDCHAR
STARTCHAR U+3159
ENCODING 12633
SWIDTH 666 0
DWIDTH 8 0
BBX 7 7 0 -1
BITMAP
0A
0A
0A
4E
4A
FA
0A
ENDCHAR
STARTCHAR U+315A
ENCODING 12634
SWIDTH 666 0
DWIDTH 8 0
BBX 6 7 0 -1
BITMAP
04
04
04
44
44
F4
04
ENDCHAR
STARTCHAR U+315B
ENCODING 12635
SWIDTH 666 0
DWIDTH 8 0
BBX 7 3 0 1
BITMAP
28
28
FE
ENDCHAR
STARTCHAR U+315C
ENCODING 12636
SWIDTH 666 0
DWIDTH 8 0
BBX 7 3 0 1
BITMAP
FE
10
10
ENDCHAR
STARTCHAR U+315D
ENCODING 12637
SWIDTH 666 0
DWIDTH 8 0
BBX 6 7 0 -1
BITMAP
04
04
04
F4
4C
44
44
ENDCHAR
STARTCHAR U+315E
ENCODING 12638
SWIDTH 666 0
DWIDTH 8 0
BBX 7 7 0 -1
BITMAP
0A
0A
0A
EA
5A
4A
4A
ENDCHAR
STARTCHAR U+315F
ENCODING 12639
SWIDTH 666 0
DWIDTH 8 0
BBX 6 7 0 -1
BITMAP
04
04
04
F4
44
44
44
ENDCHAR
STARTCHAR U+3160
ENCODING 12640
SWIDTH 666 0
DWIDTH 8 0
BBX 7 3 0 1
BITMAP
FE
28
28
ENDCHAR
STARTCHAR U+3161
ENCODING 12641
SWIDTH 666 0
DWIDTH 8 0
BBX 7 1 0 2
BITMAP
FE
ENDCHAR
STARTCHAR U+3162
ENCODING 12642
SWIDTH 666 0
DWIDTH 8 0
BBX 6 7 0 -1
BITMAP
04
04
04
04
04
F4
04
ENDCHAR
STARTCHAR U+3163
ENCODING 12643
SWIDTH 666 0
DWIDTH 8 0
BBX 1 7 3 -1
BITMAP
80
80
80
80
80
80
80
ENDCHAR
STARTCHAR U+3180
ENCODING 12672
SWIDTH 666 0
DWIDTH 8 0
BBX 7 3 0 0
BITMAP
44
AA
44
ENDCHAR
STARTCHAR U+3186
ENCODING 12678
SWIDTH 666 0
DWIDTH 8 0
BBX 7 5 0 -1
BITMAP
FE
00
38
44
38
ENDCHAR
STARTCHAR U+31A0
ENCODING 12704
SWIDTH 666 0
DWIDTH 8 0
BBX 5 7 1 -2
BITMAP
20
40
F8
08
18
28
10
ENDCHAR
STARTCHAR U+31A1
ENCODING 12705
SWIDTH 666 0
DWIDTH 8 0
BBX 5 7 1 -2
BITMAP
F8
48
48
58
40
A0
40
ENDCHAR
STARTCHAR U+31A2
ENCODING 12706
SWIDTH 666 0
DWIDTH 8 0
BBX 5 7 1 -2
BITMAP
10
90
B0
D0
10
28
10
ENDCHAR
STARTCHAR U+31A3
ENCODING 12707
SWIDTH 666 0
DWIDTH 8 0
BBX 5 7 1 -2
BITMAP
28
50
50
A0
50
68
30
ENDCHAR
STARTCHAR U+31A4
ENCODING 12708
SWIDTH 666 0
DWIDTH 8 0
BBX 5 7 1 -2
BITMAP
40
F8
48
50
40
40
38
ENDCHAR
STARTCHAR U+31A5
ENCODING 12709
SWIDTH 666 0
DWIDTH 8 0
BBX 5 7 1 -2
BITMAP
40
F8
48
40
50
68
38
ENDCHAR
STARTCHAR U+31A6
ENCODING 12710
SWIDTH 666 0
DWIDTH 8 0
BBX 5 7 1 -2
BITMAP
F8
20
40
80
80
48
30
ENDCHAR
STARTCHAR U+31A7
ENCODING 12711
SWIDTH 666 0
DWIDTH 8 0
BBX 5 7 1 -2
BITMAP
F8
20
60
80
90
A8
70
ENDCHAR
STARTCHAR U+31A8
ENCODING 12712
SWIDTH 666 0
DWIDTH 8 0
BBX 5 6 1 -1
BITMAP
08
88
50
38
50
88
ENDCHAR
STARTCHAR U+31A9
ENCODING 12713
SWIDTH 666 0
DWIDTH 8 0
BBX 5 7 1 -2
BITMAP
88
50
20
20
60
A0
60
ENDCHAR
STARTCHAR U+31AA
ENCODING 12714
SWIDTH 666 0
DWIDTH 8 0
BBX 5 4 1 0
BITMAP
10
28
F8
10
ENDCHAR
STARTCHAR U+31AB
ENCODING 12715
SWIDTH 666 0
DWIDTH 8 0
BBX 5 7 1 -2
BITMAP
88
88
50
50
28
50
88
ENDCHAR
STARTCHAR U+31AC
ENCODING 12716
SWIDTH 666 0
DWIDTH 8 0
BBX 5 7 1 -2
BITMAP
F8
68
68
68
68
48
58
ENDCHAR
STARTCHAR U+31AD
ENCODING 12717
SWIDTH 666 0
DWIDTH 8 0
BBX 5 7 1 -2
BITMAP
F8
70
70
70
70
78
A0
ENDCHAR
STARTCHAR U+31AE
ENCODING 12718
SWIDTH 666 0
DWIDTH 8 0
BBX 5 7 1 -2
BITMAP
F8
A0
F8
28
68
A8
50
ENDCHAR
STARTCHAR U+31AF
ENCODING 12719
SWIDTH 666 0
DWIDTH 8 0
BBX 5 7 1 -2
BITMAP
40
88
50
20
50
A8
F0
ENDCHAR
STARTCHAR U+31B0
ENCODING 12720
SWIDTH 666 0
DWIDTH 8 0
BBX 5 7 1 -2
BITMAP
88
50
F8
A8
A8
A8
A8
ENDCHAR
STARTCHAR U+31B1
ENCODING 12721
SWIDTH 666 0
DWIDTH 8 0
BBX 5 7 1 -2
BITMAP
F8
20
F8
A8
C8
B8
88
ENDCHAR
STARTCHAR U+31B2
ENCODING 12722
SWIDTH 666 0
DWIDTH 8 0
BBX 5 7 1 -2
BITMAP
F8
20
20
20
20
20
F8
ENDCHAR
STARTCHAR U+31B3
ENCODING 12723
SWIDTH 666 0
DWIDTH 8 0
BBX 3 7 1 -2
BITMAP
20
20
20
20
60
A0
60
ENDCHAR
STARTCHAR U+31B4
ENCODING 12724
SWIDTH 666 0
DWIDTH 8 0
BBX 3 4 1 -2
BITMAP
80
E0
20
40
ENDCHAR
STARTCHAR U+31B5
ENCODING 12725
SWIDTH 666 0
DWIDTH 8 0
BBX 3 4 1 -2
BITMAP
80
E0
60
A0
ENDCHAR
STARTCHAR U+31B6
ENCODING 12726
SWIDTH 666 0
DWIDTH 8 0
BBX 3 4 1 -2
BITMAP
E0
40
20
40
ENDCHAR
STARTCHAR U+31B7
ENCODING 12727
SWIDTH 666 0
DWIDTH 8 0
BBX 3 4 1 -2
BITMAP
60
40
40
80
ENDCHAR
STARTCHAR U+31B8
ENCODING 12728
SWIDTH 666 0
DWIDTH 8 0
BBX 5 7 1 -2
BITMAP
F8
08
10
20
40
80
F8
ENDCHAR
STARTCHAR U+31B9
ENCODING 12729
SWIDTH 666 0
DWIDTH 8 0
BBX 5 5 1 0
BITMAP
80
80
80
80
F8
ENDCHAR
STARTCHAR U+31BA
ENCODING 12730
SWIDTH 666 0
DWIDTH 8 0
BBX 5 5 1 -1
BITMAP
20
20
F8
20
20
ENDCHAR
STARTCHAR U+31BB
ENCODING 12731
SWIDTH 666 0
DWIDTH 8 0
BBX 4 3 1 -2
BITMAP
50
A0
50
ENDCHAR
STARTCHAR U+31BC
ENCODING 12732
SWIDTH 666 0
DWIDTH 8 0
BBX 5 7 1 -2
BITMAP
20
40
88
50
20
50
88
ENDCHAR
STARTCHAR U+31BD
ENCODING 12733
SWIDTH 666 0
DWIDTH 8 0
BBX 5 7 1 -2
BITMAP
F8
40
88
50
20
50
88
ENDCHAR
STARTCHAR U+31BE
ENCODING 12734
SWIDTH 666 0
DWIDTH 8 0
BBX 5 7 1 -2
BITMAP
88
88
50
F8
50
20
20
ENDCHAR
STARTCHAR U+31BF
ENCODING 12735
SWIDTH 666 0
DWIDTH 8 0
BBX 5 7 1 -2
BITMAP
10
50
50
48
48
48
88
ENDCHAR
STARTCHAR U+3220
ENCODING 12832
SWIDTH 666 0
DWIDTH 8 0
BBX 7 7 0 -2
BITMAP
44
82
82
BA
82
82
44
ENDCHAR
STARTCHAR U+3221
ENCODING 12833
SWIDTH 666 0
DWIDTH 8 0
BBX 7 7 0 -2
BITMAP
44
82
BA
82
BA
82
44
ENDCHAR
STARTCHAR U+3222
ENCODING 12834
SWIDTH 666 0
DWIDTH 8 0
BBX 7 7 0 -2
BITMAP
44
BA
82
BA
82
BA
44
ENDCHAR
STARTCHAR U+3223
ENCODING 12835
SWIDTH 666 0
DWIDTH 8 0
BBX 7 7 0 -2
BITMAP
44
BA
BA
BA
AA
BA
44
ENDCHAR
STARTCHAR U+3224
ENCODING 12836
SWIDTH 666 0
DWIDTH 8 0
BBX 7 7 0 -2
BITMAP
44
BA
92
BA
9A
BA
44
ENDCHAR
STARTCHAR U+3225
ENCODING 12837
SWIDTH 666 0
DWIDTH 8 0
BBX 7 7 0 -2
BITMAP
44
92
BA
82
AA
AA
44
ENDCHAR
STARTCHAR U+3226
ENCODING 12838
SWIDTH 666 0
DWIDTH 8 0
BBX 7 7 0 -2
BITMAP
44
92
9A
B2
92
9A
44
ENDCHAR
STARTCHAR U+3227
ENCODING 12839
SWIDTH 666 0
DWIDTH 8 0
BBX 7 7 0 -2
BITMAP
44
9A
8A
AA
AA
AA
44
ENDCHAR
STARTCHAR U+3228
ENCODING 12840
SWIDTH 666 0
DWIDTH 8 0
BBX 7 7 0 -2
BITMAP
44
92
B2
92
92
AA
44
ENDCHAR
STARTCHAR U+3229
ENCODING 12841
SWIDTH 666 0
DWIDTH 8 0
BBX 7 7 0 -2
BITMAP
44
92
92
BA
92
92
44
ENDCHAR
STARTCHAR U+3231
ENCODING 12849
SWIDTH 666 0
DWIDTH 8 0
BBX 7 7 0 -1
BITMAP
44
AA
FE
AA
BE
AA
44
ENDCHAR
STARTCHAR U+3232
ENCODING 12850
SWIDTH 666 0
DWIDTH 8 0
BBX 7 7 0 -1
BITMAP
64
FA
A2
FA
AA
BA
6C
ENDCHAR
STARTCHAR U+3239
ENCODING 12857
SWIDTH 666 0
DWIDTH 8 0
BBX 7 7 0 -1
BITMAP
44
AA
FE
AA
AA
AA
44
ENDCHAR
STARTCHAR U+3268
ENCODING 12904
SWIDTH 666 0
DWIDTH 8 0
BBX 7 7 0 -2
BITMAP
38
44
BA
92
AA
44
38
ENDCHAR
STARTCHAR U+3280
ENCODING 12928
SWIDTH 666 0
DWIDTH 8 0
BBX 7 7 0 -2
BITMAP
7C
82
82
BA
82
82
7C
ENDCHAR
STARTCHAR U+3281
ENCODING 12929
SWIDTH 666 0
DWIDTH 8 0
BBX 7 7 0 -2
BITMAP
7C
82
BA
82
BA
82
7C
ENDCHAR
STARTCHAR U+3282
ENCODING 12930
SWIDTH 666 0
DWIDTH 8 0
BBX 7 7 0 -2
BITMAP
7C
BA
82
BA
82
BA
7C
ENDCHAR
STARTCHAR U+3283
ENCODING 12931
SWIDTH 666 0
DWIDTH 8 0
BBX 7 7 0 -2
BITMAP
7C
BA
BA
BA
AA
BA
7C
ENDCHAR
STARTCHAR U+3284
ENCODING 12932
SWIDTH 666 0
DWIDTH 8 0
BBX 7 7 0 -2
BITMAP
7C
BA
92
BA
9A
BA
7C
ENDCHAR
STARTCHAR U+3285
ENCODING 12933
SWIDTH 666 0
DWIDTH 8 0
BBX 7 7 0 -2
BITMAP
7C
92
BA
82
AA
AA
7C
ENDCHAR
STARTCHAR U+3286
ENCODING 12934
SWIDTH 666 0
DWIDTH 8 0
BBX 7 7 0 -2
BITMAP
7C
92
9A
B2
92
9A
7C
ENDCHAR
STARTCHAR U+3287
ENCODING 12935
SWIDTH 666 0
DWIDTH 8 0
BBX 7 7 0 -2
BITMAP
7C
9A
8A
AA
AA
AA
7C
ENDCHAR
STARTCHAR U+3288
ENCODING 12936
SWIDTH 666 0
DWIDTH 8 0
BBX 7 7 0 -2
BITMAP
7C
92
B2
92
92
AA
7C
ENDCHAR
STARTCHAR U+3289
ENCODING 12937
SWIDTH 666 0
DWIDTH 8 0
BBX 7 7 0 -2
BITMAP
7C
92
92
BA
92
92
7C
ENDCHAR
STARTCHAR U+32A4
ENCODING 12964
SWIDTH 666 0
DWIDTH 8 0
BBX 7 7 0 -1
BITMAP
38
54
9A
92
BA
44
38
ENDCHAR
STARTCHAR U+32A5
ENCODING 12965
SWIDTH 666 0
DWIDTH 8 0
BBX 7 7 0 -1
BITMAP
38
54
BA
AA
BA
54
38
ENDCHAR
STARTCHAR U+32A6
ENCODING 12966
SWIDTH 666 0
DWIDTH 8 0
BBX 7 7 0 -1
BITMAP
38
44
BA
92
9A
54
38
ENDCHAR
STARTCHAR U+32A7
ENCODING 12967
SWIDTH 666 0
DWIDTH 8 0
BBX 7 7 0 -1
BITMAP
38
54
A2
DE
8A
5C
38
ENDCHAR
STARTCHAR U+32A8
ENCODING 12968
SWIDTH 666 0
DWIDTH 8 0
BBX 7 7 0 -1
BITMAP
38
54
BA
A2
DE
54
38
ENDCHAR
STARTCHAR U+32FF
ENCODING 13055
SWIDTH 666 0
DWIDTH 8 0
BBX 7 7 0 -2
BITMAP
4C
A6
EE
06
EE
6C
44
ENDCHAR
STARTCHAR U+3303
ENCODING 13059
SWIDTH 666 0
DWIDTH 8 0
BBX 7 7 0 -1
BITMAP
F0
50
46
80
20
A8
B0
ENDCHAR
STARTCHAR U+330D
ENCODING 13069
SWIDTH 666 0
DWIDTH 8 0
BBX 7 7 0 -1
BITMAP
EE
AA
0E
A0
AE
20
40
ENDCHAR
STARTCHAR U+3314
ENCODING 13076
SWIDTH 666 0
DWIDTH 8 0
BBX 7 7 0 -1
BITMAP
40
E0
40
F0
4E
0A
0E
ENDCHAR
STARTCHAR U+3318
ENCODING 13080
SWIDTH 666 0
DWIDTH 8 0
BBX 7 7 0 -1
BITMAP
EE
A0
2E
42
44
90
F0
ENDCHAR
STARTCHAR U+3322
ENCODING 13090
SWIDTH 666 0
DWIDTH 8 0
BBX 7 7 0 -1
BITMAP
EA
82
EC
40
E0
40
80
ENDCHAR
STARTCHAR U+3323
ENCODING 13091
SWIDTH 666 0
DWIDTH 8 0
BBX 7 7 0 -1
BITMAP
EA
82
6C
80
C0
A0
80
ENDCHAR
STARTCHAR U+3326
ENCODING 13094
SWIDTH 666 0
DWIDTH 8 0
BBX 7 7 0 -1
BITMAP
A0
80
C0
B4
14
14
26
ENDCHAR
STARTCHAR U+3327
ENCODING 13095
SWIDTH 666 0
DWIDTH 8 0
BBX 6 7 1 -1
BITMAP
80
C0
A0
80
34
04
38
ENDCHAR
STARTCHAR U+332B
ENCODING 13099
SWIDTH 666 0
DWIDTH 8 0
BBX 7 7 0 -1
BITMAP
58
56
88
04
EC
96
E4
ENDCHAR
STARTCHAR U+3336
ENCODING 13110
SWIDTH 666 0
DWIDTH 8 0
BBX 7 7 0 -1
BITMAP
4E
AA
12
E4
A4
6C
D6
ENDCHAR
STARTCHAR U+333B
ENCODING 13115
SWIDTH 666 0
DWIDTH 8 0
BBX 7 7 0 -1
BITMAP
50
A6
10
00
B0
20
C0
ENDCHAR
STARTCHAR U+3349
ENCODING 13129
SWIDTH 666 0
DWIDTH 8 0
BBX 7 7 0 -1
BITMAP
C0
20
C0
2A
CA
22
0C
ENDCHAR
STARTCHAR U+334A
ENCODING 13130
SWIDTH 666 0
DWIDTH 8 0
BBX 7 7 0 -1
BITMAP
CA
2A
C2
24
AA
BA
AA
ENDCHAR
STARTCHAR U+334D
ENCODING 13133
SWIDTH 666 0
DWIDTH 8 0
BBX 7 7 0 -1
BITMAP
A0
4E
A0
00
94
D4
A6
ENDCHAR
STARTCHAR U+3351
ENCODING 13137
SWIDTH 666 0
DWIDTH 8 0
BBX 7 7 0 -1
BITMAP
AA
A2
2C
40
94
D4
A6
ENDCHAR
STARTCHAR U+3357
ENCODING 13143
SWIDTH 666 0
DWIDTH 8 0
BBX 7 7 0 -1
BITMAP
EA
A2
24
40
80
C0
A0
ENDCHAR
STARTCHAR U+337B
ENCODING 13179
SWIDTH 666 0
DWIDTH 8 0
BBX 7 7 0 -1
BITMAP
E4
5E
F4
5C
F6
54
6A
ENDCHAR
STARTCHAR U+337C
ENCODING 13180
SWIDTH 666 0
DWIDTH 8 0
BBX 7 7 0 -1
BITMAP
F0
AE
BA
9A
EA
AE
F0
ENDCHAR
STARTCHAR U+337D
ENCODING 13181
SWIDTH 666 0
DWIDTH 8 0
BBX 7 7 0 -1
BITMAP
5E
E4
44
56
54
B4
BE
ENDCHAR
STARTCHAR U+337E
ENCODING 13182
SWIDTH 666 0
DWIDTH 8 0
BBX 7 7 0 -1
BITMAP
F8
AA
FE
A8
FE
2A
4E
ENDCHAR
STARTCHAR U+338E
ENCODING 13198
SWIDTH 666 0
DWIDTH 8 0
BBX 7 6 0 -1
BITMAP
C4
AA
AA
A6
A2
AE
ENDCHAR
STARTCHAR U+338F
ENCODING 13199
SWIDTH 666 0
DWIDTH 8 0
BBX 7 7 0 -1
BITMAP
A0
A6
CA
8A
C6
A2
AE
ENDCHAR
STARTCHAR U+339C
ENCODING 13212
SWIDTH 666 0
DWIDTH 8 0
BBX 7 6 0 -1
BITMAP
D4
AA
AA
AA
AA
AA
ENDCHAR
STARTCHAR U+339D
ENCODING 13213
SWIDTH 666 0
DWIDTH 8 0
BBX 7 6 0 -1
BITMAP
7C
AA
8A
8A
AA
6A
ENDCHAR
STARTCHAR U+339E
ENCODING 13214
SWIDTH 666 0
DWIDTH 8 0
BBX 7 7 0 -1
BITMAP
A0
A0
DC
8A
CA
AA
AA
ENDCHAR
STARTCHAR U+33A1
ENCODING 13217
SWIDTH 666 0
DWIDTH 8 0
BBX 7 8 0 -1
BITMAP
0E
04
DE
A8
A8
A8
A8
A8
ENDCHAR
STARTCHAR U+33C4
ENCODING 13252
SWIDTH 666 0
DWIDTH 8 0
BBX 7 6 0 -1
BITMAP
44
AA
88
88
AA
44
ENDCHAR
STARTCHAR U+33CD
ENCODING 13261
SWIDTH 666 0
DWIDTH 8 0
BBX 7 7 0 -1
BITMAP
AA
AA
CC
88
CC
AA
BA
ENDCHAR
STARTCHAR U+33CE
ENCODING 13262
SWIDTH 666 0
DWIDTH 8 0
BBX 7 7 0 -2
BITMAP
AA
AE
AE
CE
AA
AA
AA
ENDCHAR
STARTCHAR U+33D2
ENCODING 13266
SWIDTH 666 0
DWIDTH 8 0
BBX 7 7 0 -2
BITMAP
80
A4
DA
DA
D6
A2
0C
ENDCHAR
STARTCHAR U+33D5
ENCODING 13269
SWIDTH 666 0
DWIDTH 8 0
BBX 7 7 0 -2
BITMAP
02
02
8A
C2
EA
EA
AA
ENDCHAR
STARTCHAR U+3401
ENCODING 13313
SWIDTH 666 0
DWIDTH 8 0
BBX 7 7 0 -1
BITMAP
FE
10
FE
92
AA
C6
FE
ENDCHAR
STARTCHAR U+3451
ENCODING 13393
SWIDTH 666 0
DWIDTH 8 0
BBX 7 7 0 -1
BITMAP
28
5E
D2
5A
5E
52
5E
ENDCHAR
STARTCHAR U+34E4
ENCODING 13540
SWIDTH 666 0
DWIDTH 8 0
BBX 7 7 0 -1
BITMAP
22
FA
26
76
06
72
76
ENDCHAR
STARTCHAR U+34FE
ENCODING 13566
SWIDTH 666 0
DWIDTH 8 0
BBX 7 7 0 -1
BITMAP
FA
FA
92
DA
B2
BA
D2
ENDCHAR
STARTCHAR U+3577
ENCODING 13687
SWIDTH 666 0
DWIDTH 8 0
BBX 7 7 0 -1
BITMAP
08
FE
B2
BE
F2
12
1E
ENDCHAR
STARTCHAR U+35A1
ENCODING 13729
SWIDTH 666 0
DWIDTH 8 0
BBX 7 7 0 -1
BITMAP
08
FE
D4
D6
FA
14
1A
ENDCHAR
STARTCHAR U+35AD
ENCODING 13741
SWIDTH 666 0
DWIDTH 8 0
BBX 7 7 0 -1
BITMAP
04
D8
FE
D4
E2
08
2A
ENDCHAR
STARTCHAR U+35BF
ENCODING 13759
SWIDTH 666 0
DWIDTH 8 0
BBX 7 7 0 -1
BITMAP
3E
D6
DC
DE
D6
3C
04
ENDCHAR
STARTCHAR U+35CE
ENCODING 13774
SWIDTH 666 0
DWIDTH 8 0
BBX 7 7 0 -1
BITMAP
16
FE
EE
C8
FE
1C
2A
ENDCHAR
STARTCHAR U+35D2
ENCODING 13778
SWIDTH 666 0
DWIDTH 8 0
BBX 7 7 0 -1
BITMAP
08
FE
D4
DC
DA
34
1A
ENDCHAR
STARTCHAR U+35F3
ENCODING 13811
SWIDTH 666 0
DWIDTH 8 0
BBX 7 7 0 -1
BITMAP
14
DE
C8
D4
EA
14
1C
ENDCHAR
STARTCHAR U+35FE
ENCODING 13822
SWIDTH 666 0
DWIDTH 8 0
BBX 7 7 0 -1
BITMAP
2C
FC
FE
D4
FC
3C
16
ENDCHAR
STARTCHAR U+3737
ENCODING 14135
SWIDTH 666 0
DWIDTH 8 0
BBX 7 7 0 -1
BITMAP
FE
5C
AA
6A
FE
28
F6
ENDCHAR
STARTCHAR U+3918
ENCODING 14616
SWIDTH 666 0
DWIDTH 8 0
BBX 7 7 0 -1
BITMAP
48
4E
74
DE
C2
5E
5E
ENDCHAR
STARTCHAR U+39D2
ENCODING 14802
SWIDTH 666 0
DWIDTH 8 0
BBX 7 7 0 -1
BITMAP
48
FE
62
54
D4
52
E2
ENDCHAR
STARTCHAR U+39E1
ENCODING 14817
SWIDTH 666 0
DWIDTH 8 0
BBX 7 7 0 -1
BITMAP
44
FE
48
74
CA
44
DA
ENDCHAR
STARTCHAR U+39F8
ENCODING 14840
SWIDTH 666 0
DWIDTH 8 0
BBX 7 7 0 -1
BITMAP
48
FE
54
7C
C4
48
D8
ENDCHAR
STARTCHAR U+39FE
ENCODING 14846
SWIDTH 666 0
DWIDTH 8 0
BBX 7 7 0 -1
BITMAP
50
FE
4A
6A
D4
52
AE
ENDCHAR
STARTCHAR U+3A18
ENCODING 14872
SWIDTH 666 0
DWIDTH 8 0
BBX 7 7 0 -1
BITMAP
48
EA
48
4E
DA
6E
CE
ENDCHAR
STARTCHAR U+3A52
ENCODING 14930
SWIDTH 666 0
DWIDTH 8 0
BBX 7 7 0 -1
BITMAP
52
F6
52
68
FE
48
EA
ENDCHAR
STARTCHAR U+3A67
ENCODING 14951
SWIDTH 666 0
DWIDTH 8 0
BBX 7 7 0 -1
BITMAP
5E
FE
54
7E
EA
5C
AA
ENDCHAR
STARTCHAR U+3A6E
ENCODING 14958
SWIDTH 666 0
DWIDTH 8 0
BBX 7 7 0 -1
BITMAP
56
EA
76
7E
D4
6A
D8
ENDCHAR
STARTCHAR U+3B39
ENCODING 15161
SWIDTH 666 0
DWIDTH 8 0
BBX 7 7 0 -1
BITMAP
FC
AA
FC
AE
FC
A4
AC
ENDCHAR
STARTCHAR U+3DE7
ENCODING 15847
SWIDTH 666 0
DWIDTH 8 0
BBX 7 7 0 -1
BITMAP
5E
54
FE
DE
54
56
AC
ENDCHAR
STARTCHAR U+3DEB
ENCODING 15851
SWIDTH 666 0
DWIDTH 8 0
BBX 7 7 0 -1
BITMAP
2E
FA
64
8A
54
10
EE
ENDCHAR
STARTCHAR U+3E03
ENCODING 15875
SWIDTH 666 0
DWIDTH 8 0
BBX 7 7 0 -1
BITMAP
F4
D6
FC
6A
FE
00
AA
ENDCHAR
STARTCHAR U+3E74
ENCODING 15988
SWIDTH 666 0
DWIDTH 8 0
BBX 7 7 0 -1
BITMAP
BE
4E
AE
64
AC
24
DA
ENDCHAR
STARTCHAR U+4034
ENCODING 16436
SWIDTH 666 0
DWIDTH 8 0
BBX 7 7 0 -1
BITMAP
FE
AA
F4
AA
FE
A4
FE
ENDCHAR
STARTCHAR U+4039
ENCODING 16441
SWIDTH 666 0
DWIDTH 8 0
BBX 7 7 0 -1
BITMAP
E8
BE
EC
BC
EA
A8
F6
ENDCHAR
STARTCHAR U+4045
ENCODING 16453
SWIDTH 666 0
DWIDTH 8 0
BBX 7 7 0 -1
BITMAP
EC
A4
FE
A8
EC
AC
FE
ENDCHAR
STARTCHAR U+4065
ENCODING 16485
SWIDTH 666 0
DWIDTH 8 0
BBX 7 7 0 -1
BITMAP
FE
B4
FE
A8
EE
B6
FE
ENDCHAR
STARTCHAR U+406A
ENCODING 16490
SWIDTH 666 0
DWIDTH 8 0
BBX 7 7 0 -1
BITMAP
F2
DC
F8
FE
DA
FA
D2
ENDCHAR
STARTCHAR U+40BB
ENCODING 16571
SWIDTH 666 0
DWIDTH 8 0
BBX 7 7 0 -1
BITMAP
FE
50
9C
F0
BE
B4
FA
ENDCHAR
STARTCHAR U+40DF
ENCODING 16607
SWIDTH 666 0
DWIDTH 8 0
BBX 7 7 0 -1
BITMAP
D4
7E
9A
FA
DA
DC
DA
ENDCHAR
STARTCHAR U+4180
ENCODING 16768
SWIDTH 666 0
DWIDTH 8 0
BBX 7 7 0 -1
BITMAP
DE
6A
FE
48
DC
C0
6A
ENDCHAR
STARTCHAR U+4308
ENCODING 17160
SWIDTH 666 0
DWIDTH 8 0
BBX 7 7 0 -1
BITMAP
5C
94
5C
BE
4A
DE
6A
ENDCHAR
STARTCHAR U+43DD
ENCODING 17373
SWIDTH 666 0
DWIDTH 8 0
BBX 7 7 0 -1
BITMAP
04
EE
A4
E8
AE
E2
AC
ENDCHAR
STARTCHAR U+44EA
ENCODING 17642
SWIDTH 666 0
DWIDTH 8 0
BBX 7 7 0 -1
BITMAP
28
FE
44
7C
FE
52
A6
ENDCHAR
STARTCHAR U+45C1
ENCODING 17857
SWIDTH 666 0
DWIDTH 8 0
BBX 7 7 0 -1
BITMAP
48
FE
A8
D4
7E
44
D4
ENDCHAR
STARTCHAR U+4606
ENCODING 17926
SWIDTH 666 0
DWIDTH 8 0
BBX 7 7 0 -1
BITMAP
48
FE
AA
FC
5C
52
AE
ENDCHAR
STARTCHAR U+463C
ENCODING 17980
SWIDTH 666 0
DWIDTH 8 0
BBX 7 7 0 -1
BITMAP
48
FE
22
4E
F6
4C
56
ENDCHAR
STARTCHAR U+47F4
ENCODING 18420
SWIDTH 666 0
DWIDTH 8 0
BBX 7 7 0 -1
BITMAP
FE
B0
FE
50
7E
D4
FA
ENDCHAR
STARTCHAR U+492D
ENCODING 18733
SWIDTH 666 0
DWIDTH 8 0
BBX 7 7 0 -1
BITMAP
54
A8
F4
5E
E8
5E
EA
ENDCHAR
STARTCHAR U+4951
ENCODING 18769
SWIDTH 666 0
DWIDTH 8 0
BBX 7 7 0 -1
BITMAP
68
9E
FC
56
EA
74
CA
ENDCHAR
STARTCHAR U+4A12
ENCODING 18962
SWIDTH 666 0
DWIDTH 8 0
BBX 7 7 0 -1
BITMAP
38
FE
B6
66
AA
66
AA
ENDCHAR
STARTCHAR U+4AB4
ENCODING 19124
SWIDTH 666 0
DWIDTH 8 0
BBX 7 7 0 -1
BITMAP
2E
F4
AE
2A
6E
B0
8A
ENDCHAR
STARTCHAR U+4ACC
ENCODING 19148
SWIDTH 666 0
DWIDTH 8 0
BBX 7 7 0 -1
BITMAP
4E
F4
9E
FA
4E
F0
2A
ENDCHAR
STARTCHAR U+4BCB
ENCODING 19403
SWIDTH 666 0
DWIDTH 8 0
BBX 7 7 0 -1
BITMAP
EA
B4
FE
A8
7A
64
BA
ENDCHAR
STARTCHAR U+4C7D
ENCODING 19581
SWIDTH 666 0
DWIDTH 8 0
BBX 7 7 0 -1
BITMAP
68
B4
6E
6C
68
16
A6
ENDCHAR
STARTCHAR U+4C81
ENCODING 19585
SWIDTH 666 0
DWIDTH 8 0
BBX 7 7 0 -1
BITMAP
7A
AE
7A
66
7A
12
B6
ENDCHAR
STARTCHAR U+4C85
ENCODING 19589
SWIDTH 666 0
DWIDTH 8 0
BBX 7 7 0 -1
BITMAP
D6
7A
D6
FA
D6
14
AA
ENDCHAR
STARTCHAR U+4CB3
ENCODING 19635
SWIDTH 666 0
DWIDTH 8 0
BBX 7 7 0 -1
BITMAP
44
EE
0E
E8
AE
B2
AA
ENDCHAR
STARTCHAR U+4D08
ENCODING 19720
SWIDTH 666 0
DWIDTH 8 0
BBX 7 7 0 -1
BITMAP
24
FE
AE
D8
FE
52
8A
ENDCHAR
STARTCHAR U+4E00
ENCODING 19968
SWIDTH 666 0
DWIDTH 8 0
BBX 7 1 0 2
BITMAP
FE
ENDCHAR
STARTCHAR U+4E01
ENCODING 19969
SWIDTH 666 0
DWIDTH 8 0
BBX 7 7 0 -1
BITMAP
FE
10
10
10
10
10
30
ENDCHAR
STARTCHAR U+4E02
ENCODING 19970
SWIDTH 666 0
DWIDTH 8 0
BBX 7 7 0 -1
BITMAP
FE
20
20
3C
04
04
0C
ENDCHAR
STARTCHAR U+4E03
ENCODING 19971
SWIDTH 666 0
DWIDTH 8 0
BBX 7 7 0 -1
BITMAP
20
20
FE
20
20
22
3E
ENDCHAR
STARTCHAR U+4E04
ENCODING 19972
SWIDTH 666 0
DWIDTH 8 0
BBX 7 7 0 -1
BITMAP
10
10
10
10
10
10
FE
ENDCHAR
STARTCHAR U+4E05
ENCODING 19973
SWIDTH 666 0
DWIDTH 8 0
BBX 7 7 0 -1
BITMAP
FE
10
10
10
10
10
10
ENDCHAR
STARTCHAR U+4E06
ENCODING 19974
SWIDTH 666 0
DWIDTH 8 0
BBX 7 5 0 1
BITMAP
FE
10
10
20
C0
ENDCHAR
STARTCHAR U+4E07
ENCODING 19975
SWIDTH 666 0
DWIDTH 8 0
BBX 7 7 0 -1
BITMAP
FE
20
20
3E
22
42
8E
ENDCHAR
STARTCHAR U+4E08
ENCODING 19976
SWIDTH 666 0
DWIDTH 8 0
BBX 7 7 0 -1
BITMAP
10
FE
10
50
30
30
CE
ENDCHAR
STARTCHAR U+4E09
ENCODING 19977
SWIDTH 666 0
DWIDTH 8 0
BBX 7 7 0 -1
BITMAP
FE
00
00
7C
00
00
FE
ENDCHAR
STARTCHAR U+4E0A
ENCODING 19978
SWIDTH 666 0
DWIDTH 8 0
BBX 7 7 0 -1
BITMAP
10
10
1C
10
10
10
FE
ENDCHAR
STARTCHAR U+4E0B
ENCODING 19979
SWIDTH 666 0
DWIDTH 8 0
BBX 7 7 0 -1
BITMAP
FE
10
18
14
10
10
10
ENDCHAR
STARTCHAR U+4E0C
ENCODING 19980
SWIDTH 666 0
DWIDTH 8 0
BBX 7 7 0 -1
BITMAP
FE
28
28
28
28
48
88
ENDCHAR
STARTCHAR U+4E0D
ENCODING 19981
SWIDTH 666 0
DWIDTH 8 0
BBX 7 7 0 -1
BITMAP
FE
10
38
54
92
10
10
ENDCHAR
STARTCHAR U+4E0E
ENCODING 19982
SWIDTH 666 0
DWIDTH 8 0
BBX 7 7 0 -1
BITMAP
7C
40
7C
04
FE
04
1C
ENDCHAR
STARTCHAR U+4E0F
ENCODING 19983
SWIDTH 666 0
DWIDTH 8 0
BBX 7 7 0 -1
BITMAP
FE
10
5C
54
7C
04
0C
ENDCHAR
STARTCHAR U+4E10
ENCODING 19984
SWIDTH 666 0
DWIDTH 8 0
BBX 7 7 0 -1
BITMAP
FE
10
9E
90
FE
02
0E
ENDCHAR
STARTCHAR U+4E11
ENCODING 19985
SWIDTH 666 0
DWIDTH 8 0
BBX 7 7 0 -1
BITMAP
7C
24
24
FE
24
24
FE
ENDCHAR
STARTCHAR U+4E12
ENCODING 19986
SWIDTH 666 0
DWIDTH 8 0
BBX 7 7 0 -1
BITMAP
FE
12
52
22
56
00
FE
ENDCHAR
STARTCHAR U+4E13
ENCODING 19987
SWIDTH 666 0
DWIDTH 8 0
BBX 7 7 0 -1
BITMAP
10
7C
10
FE
20
3C
04
ENDCHAR
STARTCHAR U+4E14
ENCODING 19988
SWIDTH 666 0
DWIDTH 8 0
BBX 7 7 0 -1
BITMAP
7C
44
7C
44
7C
44
FE
ENDCHAR
STARTCHAR U+4E15
ENCODING 19989
SWIDTH 666 0
DWIDTH 8 0
BBX 7 7 0 -1
BITMAP
FE
10
38
54
92
10
FE
ENDCHAR
STARTCHAR U+4E16
ENCODING 19990
SWIDTH 666 0
DWIDTH 8 0
BBX 7 7 0 -1
BITMAP
54
54
FE
54
5C
40
7E
ENDCHAR
STARTCHAR U+4E17
ENCODING 19991
SWIDTH 666 0
DWIDTH 8 0
BBX 7 7 0 -1
BITMAP
54
54
FE
54
54
54
7C
ENDCHAR
STARTCHAR U+4E18
ENCODING 19992
SWIDTH 666 0
DWIDTH 8 0
BBX 7 7 0 -1
BITMAP
7C
40
7E
48
48
48
FE
ENDCHAR
STARTCHAR U+4E19
ENCODING 19993
SWIDTH 666 0
DWIDTH 8 0
BBX 7 7 0 -1
BITMAP
FE
10
FE
92
92
AA
86
ENDCHAR
STARTCHAR U+4E1A
ENCODING 19994
SWIDTH 666 0
DWIDTH 8 0
BBX 7 7 0 -1
BITMAP
28
28
AA
6C
28
28
FE
ENDCHAR
STARTCHAR U+4E1B
ENCODING 19995
SWIDTH 666 0
DWIDTH 8 0
BBX 7 7 0 -1
BITMAP
48
48
68
94
A2
00
FE
ENDCHAR
STARTCHAR U+4E1C
ENCODING 19996
SWIDTH 666 0
DWIDTH 8 0
BBX 7 7 0 -1
BITMAP
20
FE
50
7C
10
54
B2
ENDCHAR
STARTCHAR U+4E1D
ENCODING 19997
SWIDTH 666 0
DWIDTH 8 0
BBX 7 7 0 -1
BITMAP
22
44
AA
44
EE
00
FE
ENDCHAR
STARTCHAR U+4E1E
ENCODING 19998
SWIDTH 666 0
DWIDTH 8 0
BBX 7 7 0 -1
BITMAP
78
10
DA
54
92
00
FE
ENDCHAR
STARTCHAR U+4E1F
ENCODING 19999
SWIDTH 666 0
DWIDTH 8 0
BBX 7 7 0 -1
BITMAP
FE
10
7C
10
FE
24
7C
ENDCHAR
STARTCHAR U+4E20
ENCODING 20000
SWIDTH 666 0
DWIDTH 8 0
BBX 7 7 0 -1
BITMAP
28
EE
28
6A
AE
00
FE
ENDCHAR
STARTCHAR U+4E21
ENCODING 20001
SWIDTH 666 0
DWIDTH 8 0
BBX 7 7 0 -1
BITMAP
FE
10
FE
92
92
BA
86
ENDCHAR
STARTCHAR U+4E22
ENCODING 20002
SWIDTH 666 0
DWIDTH 8 0
BBX 7 7 0 -1
BITMAP
7C
10
7C
10
FE
28
74
ENDCHAR
STARTCHAR U+4E23
ENCODING 20003
SWIDTH 666 0
DWIDTH 8 0
BBX 7 7 0 -1
BITMAP
FE
28
EE
AA
EE
28
48
ENDCHAR
STARTCHAR U+4E24
ENCODING 20004
SWIDTH 666 0
DWIDTH 8 0
BBX 7 7 0 -1
BITMAP
FE
28
FE
AA
D6
82
86
ENDCHAR
STARTCHAR U+4E25
ENCODING 20005
SWIDTH 666 0
DWIDTH 8 0
BBX 7 7 0 -1
BITMAP
FE
28
AA
7C
40
40
80
ENDCHAR
STARTCHAR U+4E26
ENCODING 20006
SWIDTH 666 0
DWIDTH 8 0
BBX 7 7 0 -1
BITMAP
44
FE
28
AA
AA
28
FE
ENDCHAR
STARTCHAR U+4E27
ENCODING 20007
SWIDTH 666 0
DWIDTH 8 0
BBX 7 7 0 -1
BITMAP
10
FE
54
FE
54
48
76
ENDCHAR
STARTCHAR U+4E28
ENCODING 20008
SWIDTH 666 0
DWIDTH 8 0
BBX 1 7 3 -1
BITMAP
80
80
80
80
80
80
80
ENDCHAR
STARTCHAR U+4E29
ENCODING 20009
SWIDTH 666 0
DWIDTH 8 0
BBX 4 7 2 -1
BITMAP
10
90
90
90
F0
10
10
ENDCHAR
STARTCHAR U+4E2A
ENCODING 20010
SWIDTH 666 0
DWIDTH 8 0
BBX 7 7 0 -1
BITMAP
10
28
44
92
10
10
10
ENDCHAR
STARTCHAR U+4E2B
ENCODING 20011
SWIDTH 666 0
DWIDTH 8 0
BBX 7 7 0 -1
BITMAP
82
44
28
10
10
10
10
ENDCHAR
STARTCHAR U+4E2C
ENCODING 20012
SWIDTH 666 0
DWIDTH 8 0
BBX 3 7 0 -1
BITMAP
20
A0
60
20
60
A0
20
ENDCHAR
STARTCHAR U+4E2D
ENCODING 20013
SWIDTH 666 0
DWIDTH 8 0
BBX 7 7 0 -1
BITMAP
10
FE
92
92
FE
10
10
ENDCHAR
STARTCHAR U+4E2E
ENCODING 20014
SWIDTH 666 0
DWIDTH 8 0
BBX 7 7 0 -1
BITMAP
FC
24
FC
24
FC
24
22
ENDCHAR
STARTCHAR U+4E2F
ENCODING 20015
SWIDTH 666 0
DWIDTH 8 0
BBX 7 7 0 -1
BITMAP
16
38
D6
38
D6
38
D0
ENDCHAR
STARTCHAR U+4E30
ENCODING 20016
SWIDTH 666 0
DWIDTH 8 0
BBX 7 7 0 -1
BITMAP
10
FE
10
7C
10
FE
10
ENDCHAR
STARTCHAR U+4E31
ENCODING 20017
SWIDTH 666 0
DWIDTH 8 0
BBX 7 7 0 -1
BITMAP
28
AA
AA
AA
EE
28
48
ENDCHAR
STARTCHAR U+4E32
ENCODING 20018
SWIDTH 666 0
DWIDTH 8 0
BBX 7 7 0 -1
BITMAP
10
7C
54
FE
92
FE
10
ENDCHAR
STARTCHAR U+4E33
ENCODING 20019
SWIDTH 666 0
DWIDTH 8 0
BBX 7 7 0 -1
BITMAP
28
FE
AA
FE
AA
FE
28
ENDCHAR
STARTCHAR U+4E34
ENCODING 20020
SWIDTH 666 0
DWIDTH 8 0
BBX 7 7 0 -1
BITMAP
28
2E
B4
A0
BE
2A
3E
ENDCHAR
STARTCHAR U+4E35
ENCODING 20021
SWIDTH 666 0
DWIDTH 8 0
BBX 7 7 0 -1
BITMAP
AA
FE
28
7C
10
FE
10
ENDCHAR
STARTCHAR U+4E36
ENCODING 20022
SWIDTH 666 0
DWIDTH 8 0
BBX 4 4 1 1
BITMAP
80
40
20
10
ENDCHAR
STARTCHAR U+4E37
ENCODING 20023
SWIDTH 666 0
DWIDTH 8 0
BBX 7 3 0 2
BITMAP
82
44
28
ENDCHAR
STARTCHAR U+4E38
ENCODING 20024
SWIDTH 666 0
DWIDTH 8 0
BBX 7 7 0 -1
BITMAP
20
FC
24
A4
64
54
86
ENDCHAR
STARTCHAR U+4E39
ENCODING 20025
SWIDTH 666 0
DWIDTH 8 0
BBX 7 7 0 -1
BITMAP
7C
44
54
FE
44
44
8C
ENDCHAR
STARTCHAR U+4E3A
ENCODING 20026
SWIDTH 666 0
DWIDTH 8 0
BBX 7 7 0 -1
BITMAP
48
28
7E
12
16
22
CC
ENDCHAR
STARTCHAR U+4E3B
ENCODING 20027
SWIDTH 666 0
DWIDTH 8 0
BBX 7 7 0 -1
BITMAP
20
10
FE
10
7C
10
FE
ENDCHAR
STARTCHAR U+4E3C
ENCODING 20028
SWIDTH 666 0
DWIDTH 8 0
BBX 7 7 0 -1
BITMAP
44
FE
44
54
FE
44
84
ENDCHAR
STARTCHAR U+4E3D
ENCODING 20029
SWIDTH 666 0
DWIDTH 8 0
BBX 7 7 0 -1
BITMAP
FE
00
EE
AA
EE
AA
AA
ENDCHAR
STARTCHAR U+4E3E
ENCODING 20030
SWIDTH 666 0
DWIDTH 8 0
BBX 7 7 0 -1
BITMAP
54
FE
54
BA
10
7C
10
ENDCHAR
STARTCHAR U+4E3F
ENCODING 20031
SWIDTH 666 0
DWIDTH 8 0
BBX 3 7 1 -1
BITMAP
20
20
20
20
20
40
80
ENDCHAR
STARTCHAR U+4E40
ENCODING 20032
SWIDTH 666 0
DWIDTH 8 0
BBX 7 5 0 -1
BITMAP
40
A0
10
08
06
ENDCHAR
STARTCHAR U+4E41
ENCODING 20033
SWIDTH 666 0
DWIDTH 8 0
BBX 7 6 0 -1
BITMAP
E0
20
20
10
08
06
ENDCHAR
STARTCHAR U+4E42
ENCODING 20034
SWIDTH 666 0
DWIDTH 8 0
BBX 7 7 0 -1
BITMAP
44
44
44
28
10
28
C6
ENDCHAR
STARTCHAR U+4E43
ENCODING 20035
SWIDTH 666 0
DWIDTH 8 0
BBX 7 7 0 -1
BITMAP
F8
48
4E
42
42
42
8E
ENDCHAR
STARTCHAR U+4E44
ENCODING 20036
SWIDTH 666 0
DWIDTH 8 0
BBX 6 7 1 -1
BITMAP
04
04
28
10
A8
C0
80
ENDCHAR
STARTCHAR U+4E45
ENCODING 20037
SWIDTH 666 0
DWIDTH 8 0
BBX 7 7 0 -1
BITMAP
78
48
88
10
30
48
86
ENDCHAR
STARTCHAR U+4E46
ENCODING 20038
SWIDTH 666 0
DWIDTH 8 0
BBX 7 7 0 -1
BITMAP
90
90
90
F0
10
28
C6
ENDCHAR
STARTCHAR U+4E47
ENCODING 20039
SWIDTH 666 0
DWIDTH 8 0
BBX 7 7 0 -1
BITMAP
0C
70
10
FE
10
12
1E
ENDCHAR
STARTCHAR U+4E48
ENCODING 20040
SWIDTH 666 0
DWIDTH 8 0
BBX 7 7 0 -1
BITMAP
20
28
48
90
24
44
FA
ENDCHAR
STARTCHAR U+4E49
ENCODING 20041
SWIDTH 666 0
DWIDTH 8 0
BBX 7 7 0 -1
BITMAP
20
14
44
28
10
28
C6
ENDCHAR
STARTCHAR U+4E4A
ENCODING 20042
SWIDTH 666 0
DWIDTH 8 0
BBX 7 5 0 1
BITMAP
0E
F0
02
44
28
ENDCHAR
STARTCHAR U+4E4B
ENCODING 20043
SWIDTH 666 0
DWIDTH 8 0
BBX 7 7 0 -1
BITMAP
10
FE
04
08
30
60
9E
ENDCHAR
STARTCHAR U+4E4C
ENCODING 20044
SWIDTH 666 0
DWIDTH 8 0
BBX 7 7 0 -1
BITMAP
20
7C
44
7E
02
FA
06
ENDCHAR
STARTCHAR U+4E4D
ENCODING 20045
SWIDTH 666 0
DWIDTH 8 0
BBX 7 7 0 -1
BITMAP
40
7E
90
1E
10
1E
10
ENDCHAR
STARTCHAR U+4E4E
ENCODING 20046
SWIDTH 666 0
DWIDTH 8 0
BBX 7 7 0 -1
BITMAP
7C
10
92
54
FE
10
30
ENDCHAR
STARTCHAR U+4E4F
ENCODING 20047
SWIDTH 666 0
DWIDTH 8 0
BBX 7 7 0 -1
BITMAP
7C
10
FE
04
18
60
9E
ENDCHAR
STARTCHAR U+4E50
ENCODING 20048
SWIDTH 666 0
DWIDTH 8 0
BBX 7 7 0 -1
BITMAP
3C
40
50
FE
10
54
B2
ENDCHAR
STARTCHAR U+4E51
ENCODING 20049
SWIDTH 666 0
DWIDTH 8 0
BBX 7 7 0 -1
BITMAP
FE
10
32
54
B8
54
92
ENDCHAR
STARTCHAR U+4E52
ENCODING 20050
SWIDTH 666 0
DWIDTH 8 0
BBX 7 7 0 -1
BITMAP
7C
40
7C
48
FE
20
40
ENDCHAR
STARTCHAR U+4E53
ENCODING 20051
SWIDTH 666 0
DWIDTH 8 0
BBX 7 7 0 -1
BITMAP
7C
40
7C
48
FE
08
04
ENDCHAR
STARTCHAR U+4E54
ENCODING 20052
SWIDTH 666 0
DWIDTH 8 0
BBX 7 7 0 -1
BITMAP
7C
10
FE
44
AA
28
48
ENDCHAR
STARTCHAR U+4E55
ENCODING 20053
SWIDTH 666 0
DWIDTH 8 0
BBX 7 7 0 -1
BITMAP
FE
88
BE
88
BE
AA
AA
ENDCHAR
STARTCHAR U+4E56
ENCODING 20054
SWIDTH 666 0
DWIDTH 8 0
BBX 7 7 0 -1
BITMAP
7C
10
FE
54
D6
54
D6
ENDCHAR
STARTCHAR U+4E57
ENCODING 20055
SWIDTH 666 0
DWIDTH 8 0
BBX 7 7 0 -1
BITMAP
FE
10
FE
54
FE
38
D6
ENDCHAR
STARTCHAR U+4E58
ENCODING 20056
SWIDTH 666 0
DWIDTH 8 0
BBX 7 7 0 -1
BITMAP
7C
10
FE
54
D6
38
D6
ENDCHAR
STARTCHAR U+4E59
ENCODING 20057
SWIDTH 666 0
DWIDTH 8 0
BBX 7 7 0 -1
BITMAP
F8
10
20
40
82
82
7C
ENDCHAR
STARTCHAR U+4E5A
ENCODING 20058
SWIDTH 666 0
DWIDTH 8 0
BBX 6 7 1 -1
BITMAP
80
80
80
80
80
84
78
ENDCHAR
STARTCHAR U+4E5B
ENCODING 20059
SWIDTH 666 0
DWIDTH 8 0
BBX 6 3 1 3
BITMAP
FC
04
08
ENDCHAR
STARTCHAR U+4E5C
ENCODING 20060
SWIDTH 666 0
DWIDTH 8 0
BBX 7 7 0 -1
BITMAP
40
5C
64
C4
40
42
3E
ENDCHAR
STARTCHAR U+4E5D
ENCODING 20061
SWIDTH 666 0
DWIDTH 8 0
BBX 7 7 0 -1
BITMAP
20
F8
28
28
28
4A
8E
ENDCHAR
STARTCHAR U+4E5E
ENCODING 20062
SWIDTH 666 0
DWIDTH 8 0
BBX 7 7 0 -1
BITMAP
7E
80
7C
08
30
42
7E
ENDCHAR
STARTCHAR U+4E5F
ENCODING 20063
SWIDTH 666 0
DWIDTH 8 0
BBX 7 7 0 -1
BITMAP
50
5E
72
D6
50
42
7E
ENDCHAR
STARTCHAR U+4E60
ENCODING 20064
SWIDTH 666 0
DWIDTH 8 0
BBX 6 7 1 -1
BITMAP
FC
44
24
04
34
C4
0C
ENDCHAR
STARTCHAR U+4E61
ENCODING 20065
SWIDTH 666 0
DWIDTH 8 0
BBX 7 7 0 -1
BITMAP
10
24
78
12
3C
08
F0
ENDCHAR
STARTCHAR U+4E62
ENCODING 20066
SWIDTH 666 0
DWIDTH 8 0
BBX 7 7 0 -1
BITMAP
28
28
A8
A8
AA
FA
0E
ENDCHAR
STARTCHAR U+4E63
ENCODING 20067
SWIDTH 666 0
DWIDTH 8 0
BBX 7 7 0 -1
BITMAP
48
88
E8
48
88
AA
EE
ENDCHAR
STARTCHAR U+4E64
ENCODING 20068
SWIDTH 666 0
DWIDTH 8 0
BBX 7 7 0 -1
BITMAP
FE
10
14
00
78
12
3E
ENDCHAR
STARTCHAR U+4E65
ENCODING 20069
SWIDTH 666 0
DWIDTH 8 0
BBX 7 7 0 -1
BITMAP
FE
28
00
70
10
24
3C
ENDCHAR
STARTCHAR U+4E66
ENCODING 20070
SWIDTH 666 0
DWIDTH 8 0
BBX 7 7 0 -1
BITMAP
24
FA
28
FC
24
2C
20
ENDCHAR
STARTCHAR U+4E67
ENCODING 20071
SWIDTH 666 0
DWIDTH 8 0
BBX 7 7 0 -1
BITMAP
28
48
FE
08
78
12
1E
ENDCHAR
STARTCHAR U+4E68
ENCODING 20072
SWIDTH 666 0
DWIDTH 8 0
BBX 7 7 0 -1
BITMAP
48
A8
E8
08
E8
AA
EE
ENDCHAR
STARTCHAR U+4E69
ENCODING 20073
SWIDTH 666 0
DWIDTH 8 0
BBX 7 7 0 -1
BITMAP
48
68
48
E8
A8
AA
EE
ENDCHAR
STARTCHAR U+4E6A
ENCODING 20074
SWIDTH 666 0
DWIDTH 8 0
BBX 7 7 0 -1
BITMAP
FE
2A
7E
6A
BE
80
7E
ENDCHAR
STARTCHAR U+4E6B
ENCODING 20075
SWIDTH 666 0
DWIDTH 8 0
BBX 7 7 0 -1
BITMAP
4E
EA
6A
AE
78
12
3E
ENDCHAR
STARTCHAR U+4E6C
ENCODING 20076
SWIDTH 666 0
DWIDTH 8 0
BBX 7 7 0 -1
BITMAP
FC
90
F0
80
F8
12
1E
ENDCHAR
STARTCHAR U+4E6D
ENCODING 20077
SWIDTH 666 0
DWIDTH 8 0
BBX 7 7 0 -1
BITMAP
FE
44
BC
00
F0
12
1E
ENDCHAR
STARTCHAR U+4E6E
ENCODING 20078
SWIDTH 666 0
DWIDTH 8 0
BBX 7 7 0 -1
BITMAP
EE
8A
EA
2C
F8
12
3E
ENDCHAR
STARTCHAR U+4E6F
ENCODING 20079
SWIDTH 666 0
DWIDTH 8 0
BBX 7 7 0 -1
BITMAP
FE
54
FE
10
78
0A
0E
ENDCHAR
STARTCHAR U+4E70
ENCODING 20080
SWIDTH 666 0
DWIDTH 8 0
BBX 7 7 0 -1
BITMAP
FE
2A
88
48
FE
14
E2
ENDCHAR
STARTCHAR U+4E71
ENCODING 20081
SWIDTH 666 0
DWIDTH 8 0
BBX 7 7 0 -1
BITMAP
E8
48
E8
48
EA
AA
EE
ENDCHAR
STARTCHAR U+4E72
ENCODING 20082
SWIDTH 666 0
DWIDTH 8 0
BBX 7 7 0 -1
BITMAP
90
1E
AA
14
78
12
1E
ENDCHAR
STARTCHAR U+4E73
ENCODING 20083
SWIDTH 666 0
DWIDTH 8 0
BBX 7 7 0 -1
BITMAP
F8
A8
F8
48
FA
4A
CE
ENDCHAR
STARTCHAR U+4E74
ENCODING 20084
SWIDTH 666 0
DWIDTH 8 0
BBX 7 7 0 -1
BITMAP
4E
E8
4E
CA
30
14
3C
ENDCHAR
STARTCHAR U+4E75
ENCODING 20085
SWIDTH 666 0
DWIDTH 8 0
BBX 7 7 0 -1
BITMAP
24
FC
54
FC
24
FC
26
ENDCHAR
STARTCHAR U+4E76
ENCODING 20086
SWIDTH 666 0
DWIDTH 8 0
BBX 7 7 0 -1
BITMAP
14
FE
54
7C
54
3A
0E
ENDCHAR
STARTCHAR U+4E77
ENCODING 20087
SWIDTH 666 0
DWIDTH 8 0
BBX 7 7 0 -1
BITMAP
FE
28
FE
AA
CE
82
FE
ENDCHAR
STARTCHAR U+4E78
ENCODING 20088
SWIDTH 666 0
DWIDTH 8 0
BBX 7 7 0 -1
BITMAP
4C
6C
FE
54
7C
46
3E
ENDCHAR
STARTCHAR U+4E79
ENCODING 20089
SWIDTH 666 0
DWIDTH 8 0
BBX 7 7 0 -1
BITMAP
48
E8
48
A8
48
EA
4E
ENDCHAR
STARTCHAR U+4E7A
ENCODING 20090
SWIDTH 666 0
DWIDTH 8 0
BBX 7 7 0 -1
BITMAP
EE
88
EE
AA
F0
92
3E
ENDCHAR
STARTCHAR U+4E7B
ENCODING 20091
SWIDTH 666 0
DWIDTH 8 0
BBX 7 7 0 -1
BITMAP
44
EA
44
62
B0
14
1C
ENDCHAR
STARTCHAR U+4E7C
ENCODING 20092
SWIDTH 666 0
DWIDTH 8 0
BBX 7 7 0 -1
BITMAP
88
3E
88
3E
80
1A
0E
ENDCHAR
STARTCHAR U+4E7D
ENCODING 20093
SWIDTH 666 0
DWIDTH 8 0
BBX 7 7 0 -1
BITMAP
14
FE
64
BC
08
12
3E
ENDCHAR
STARTCHAR U+4E7E
ENCODING 20094
SWIDTH 666 0
DWIDTH 8 0
BBX 7 7 0 -1
BITMAP
EE
50
EE
A4
E8
4A
4E
ENDCHAR
STARTCHAR U+4E7F
ENCODING 20095
SWIDTH 666 0
DWIDTH 8 0
BBX 7 7 0 -1
BITMAP
E8
48
A8
48
E8
4A
CE
ENDCHAR
STARTCHAR U+4E80
ENCODING 20096
SWIDTH 666 0
DWIDTH 8 0
BBX 7 7 0 -1
BITMAP
78
88
FE
92
FE
10
1E
ENDCHAR
STARTCHAR U+4E81
ENCODING 20097
SWIDTH 666 0
DWIDTH 8 0
BBX 7 7 0 -1
BITMAP
48
EE
40
EE
44
E8
4E
ENDCHAR
STARTCHAR U+4E82
ENCODING 20098
SWIDTH 666 0
DWIDTH 8 0
BBX 7 7 0 -1
BITMAP
F4
24
F4
94
F4
94
96
ENDCHAR
STARTCHAR U+4E83
ENCODING 20099
SWIDTH 666 0
DWIDTH 8 0
BBX 7 7 0 -1
BITMAP
AC
74
AC
54
BC
54
96
ENDCHAR
STARTCHAR U+4E84
ENCODING 20100
SWIDTH 666 0
DWIDTH 8 0
BBX 7 7 0 -1
BITMAP
24
FC
AC
54
74
54
FE
ENDCHAR
STARTCHAR U+4E85
ENCODING 20101
SWIDTH 666 0
DWIDTH 8 0
BBX 2 7 2 -1
BITMAP
40
40
40
40
40
40
C0
ENDCHAR
STARTCHAR U+4E86
ENCODING 20102
SWIDTH 666 0
DWIDTH 8 0
BBX 7 7 0 -1
BITMAP
FE
04
08
10
10
10
30
ENDCHAR
STARTCHAR U+4E87
ENCODING 20103
SWIDTH 666 0
DWIDTH 8 0
BBX 7 7 0 -1
BITMAP
40
7E
92
10
10
10
30
ENDCHAR
STARTCHAR U+4E88
ENCODING 20104
SWIDTH 666 0
DWIDTH 8 0
BBX 7 7 0 -1
BITMAP
7C
08
FE
12
14
10
70
ENDCHAR
STARTCHAR U+4E89
ENCODING 20105
SWIDTH 666 0
DWIDTH 8 0
BBX 7 7 0 -1
BITMAP
38
48
FC
16
FC
10
30
ENDCHAR
STARTCHAR U+4E8A
ENCODING 20106
SWIDTH 666 0
DWIDTH 8 0
BBX 7 7 0 -1
BITMAP
10
FE
54
FE
12
FE
10
ENDCHAR
STARTCHAR U+4E8B
ENCODING 20107
SWIDTH 666 0
DWIDTH 8 0
BBX 7 7 0 -1
BITMAP
FE
10
FE
12
FE
10
30
ENDCHAR
STARTCHAR U+4E8C
ENCODING 20108
SWIDTH 666 0
DWIDTH 8 0
BBX 7 7 0 -1
BITMAP
7C
00
00
00
00
00
FE
ENDCHAR
STARTCHAR U+4E8D
ENCODING 20109
SWIDTH 666 0
DWIDTH 8 0
BBX 7 7 0 -1
BITMAP
7C
00
FE
10
10
10
30
ENDCHAR
STARTCHAR U+4E8E
ENCODING 20110
SWIDTH 666 0
DWIDTH 8 0
BBX 7 7 0 -1
BITMAP
FE
10
10
FE
10
10
30
ENDCHAR
STARTCHAR U+4E8F
ENCODING 20111
SWIDTH 666 0
DWIDTH 8 0
BBX 7 7 0 -1
BITMAP
7C
00
FE
20
7C
04
18
ENDCHAR
STARTCHAR U+4E90
ENCODING 20112
SWIDTH 666 0
DWIDTH 8 0
BBX 7 7 0 -1
BITMAP
7C
20
FE
20
3C
04
0C
ENDCHAR
STARTCHAR U+4E91
ENCODING 20113
SWIDTH 666 0
DWIDTH 8 0
BBX 7 7 0 -1
BITMAP
7C
00
FE
20
24
42
FE
ENDCHAR
STARTCHAR U+4E92
ENCODING 20114
SWIDTH 666 0
DWIDTH 8 0
BBX 7 7 0 -1
BITMAP
FE
20
3C
44
78
08
FE
ENDCHAR
STARTCHAR U+4E93
ENCODING 20115
SWIDTH 666 0
DWIDTH 8 0
BBX 7 7 0 -1
BITMAP
7C
00
FE
24
24
44
84
ENDCHAR
STARTCHAR U+4E94
ENCODING 20116
SWIDTH 666 0
DWIDTH 8 0
BBX 7 7 0 -1
BITMAP
FE
10
10
7C
24
24
FE
ENDCHAR
STARTCHAR U+4E95
ENCODING 20117
SWIDTH 666 0
DWIDTH 8 0
BBX 7 7 0 -1
BITMAP
44
FE
44
44
FE
44
84
ENDCHAR
STARTCHAR U+4E96
ENCODING 20118
SWIDTH 666 0
DWIDTH 8 0
BBX 7 7 0 -1
BITMAP
7C
00
FE
00
7C
00
FE
ENDCHAR
STARTCHAR U+4E97
ENCODING 20119
SWIDTH 666 0
DWIDTH 8 0
BBX 7 7 0 -1
BITMAP
92
92
FE
00
7C
00
FE
ENDCHAR
STARTCHAR U+4E98
ENCODING 20120
SWIDTH 666 0
DWIDTH 8 0
BBX 7 7 0 -1
BITMAP
FE
00
7C
44
7C
00
FE
ENDCHAR
STARTCHAR U+4E99
ENCODING 20121
SWIDTH 666 0
DWIDTH 8 0
BBX 7 7 0 -1
BITMAP
FE
40
7C
44
94
0C
FE
ENDCHAR
STARTCHAR U+4E9A
ENCODING 20122
SWIDTH 666 0
DWIDTH 8 0
BBX 7 7 0 -1
BITMAP
FE
28
AA
AA
6C
28
FE
ENDCHAR
STARTCHAR U+4E9B
ENCODING 20123
SWIDTH 666 0
DWIDTH 8 0
BBX 7 7 0 -1
BITMAP
28
BE
A8
AA
FE
00
FE
ENDCHAR
STARTCHAR U+4E9C
ENCODING 20124
SWIDTH 666 0
DWIDTH 8 0
BBX 7 7 0 -1
BITMAP
FE
28
FE
AA
FE
28
FE
ENDCHAR
STARTCHAR U+4E9D
ENCODING 20125
SWIDTH 666 0
DWIDTH 8 0
BBX 7 7 0 -1
BITMAP
28
7C
44
AA
FE
00
FE
ENDCHAR
STARTCHAR U+4E9E
ENCODING 20126
SWIDTH 666 0
DWIDTH 8 0
BBX 7 7 0 -1
BITMAP
FE
28
EE
82
EE
28
FE
ENDCHAR
STARTCHAR U+4E9F
ENCODING 20127
SWIDTH 666 0
DWIDTH 8 0
BBX 7 7 0 -1
BITMAP
FE
40
76
92
F4
1A
FE
ENDCHAR
STARTCHAR U+4EA0
ENCODING 20128
SWIDTH 666 0
DWIDTH 8 0
BBX 7 2 0 3
BITMAP
10
FE
ENDCHAR
STARTCHAR U+4EA1
ENCODING 20129
SWIDTH 666 0
DWIDTH 8 0
BBX 7 7 0 -1
BITMAP
10
FE
40
40
40
40
7E
ENDCHAR
STARTCHAR U+4EA2
ENCODING 20130
SWIDTH 666 0
DWIDTH 8 0
BBX 7 7 0 -1
BITMAP
10
FE
00
7C
44
44
86
ENDCHAR
STARTCHAR U+4EA3
ENCODING 20131
SWIDTH 666 0
DWIDTH 8 0
BBX 7 7 0 -1
BITMAP
10
00
FE
24
24
24
44
ENDCHAR
STARTCHAR U+4EA4
ENCODING 20132
SWIDTH 666 0
DWIDTH 8 0
BBX 7 7 0 -1
BITMAP
10
FE
44
AA
10
28
C6
ENDCHAR
STARTCHAR U+4EA5
ENCODING 20133
SWIDTH 666 0
DWIDTH 8 0
BBX 7 7 0 -1
BITMAP
10
FE
28
54
28
54
A2
ENDCHAR
STARTCHAR U+4EA6
ENCODING 20134
SWIDTH 666 0
DWIDTH 8 0
BBX 7 7 0 -1
BITMAP
10
FE
28
AA
AA
28
48
ENDCHAR
STARTCHAR U+4EA7
ENCODING 20135
SWIDTH 666 0
DWIDTH 8 0
BBX 7 7 0 -1
BITMAP
10
7E
24
7E
40
40
80
ENDCHAR
STARTCHAR U+4EA8
ENCODING 20136
SWIDTH 666 0
DWIDTH 8 0
BBX 7 7 0 -1
BITMAP
10
FE
44
FE
08
10
30
ENDCHAR
STARTCHAR U+4EA9
ENCODING 20137
SWIDTH 666 0
DWIDTH 8 0
BBX 7 7 0 -1
BITMAP
10
00
FE
54
7C
54
7C
ENDCHAR
STARTCHAR U+4EAA
ENCODING 20138
SWIDTH 666 0
DWIDTH 8 0
BBX 7 7 0 -1
BITMAP
10
FE
28
AA
00
7C
06
ENDCHAR
STARTCHAR U+4EAB
ENCODING 20139
SWIDTH 666 0
DWIDTH 8 0
BBX 7 7 0 -1
BITMAP
FE
44
7C
08
FE
10
10
ENDCHAR
STARTCHAR U+4EAC
ENCODING 20140
SWIDTH 666 0
DWIDTH 8 0
BBX 7 7 0 -1
BITMAP
10
FE
44
7C
10
54
92
ENDCHAR
STARTCHAR U+4EAD
ENCODING 20141
SWIDTH 666 0
DWIDTH 8 0
BBX 7 7 0 -1
BITMAP
FE
44
7C
00
FE
92
30
ENDCHAR
STARTCHAR U+4EAE
ENCODING 20142
SWIDTH 666 0
DWIDTH 8 0
BBX 7 7 0 -1
BITMAP
10
FE
44
FE
AA
28
CE
ENDCHAR
STARTCHAR U+4EAF
ENCODING 20143
SWIDTH 666 0
DWIDTH 8 0
BBX 7 7 0 -1
BITMAP
10
FE
44
7C
FE
82
FE
ENDCHAR
STARTCHAR U+4EB0
ENCODING 20144
SWIDTH 666 0
DWIDTH 8 0
BBX 7 7 0 -1
BITMAP
FE
44
7C
44
7C
54
92
ENDCHAR
STARTCHAR U+4EB1
ENCODING 20145
SWIDTH 666 0
DWIDTH 8 0
BBX 7 7 0 -1
BITMAP
10
FE
5C
D4
5C
54
7E
ENDCHAR
STARTCHAR U+4EB2
ENCODING 20146
SWIDTH 666 0
DWIDTH 8 0
BBX 7 7 0 -1
BITMAP
10
FE
44
FE
10
FE
54
ENDCHAR
STARTCHAR U+4EB3
ENCODING 20147
SWIDTH 666 0
DWIDTH 8 0
BBX 7 7 0 -1
BITMAP
FE
44
FE
82
7C
22
3E
ENDCHAR
STARTCHAR U+4EB4
ENCODING 20148
SWIDTH 666 0
DWIDTH 8 0
BBX 7 7 0 -1
BITMAP
10
FE
28
FE
92
7C
26
ENDCHAR
STARTCHAR U+4EB5
ENCODING 20149
SWIDTH 666 0
DWIDTH 8 0
BBX 7 7 0 -1
BITMAP
10
FE
48
7C
D6
68
B6
ENDCHAR
STARTCHAR U+4EB6
ENCODING 20150
SWIDTH 666 0
DWIDTH 8 0
BBX 7 7 0 -1
BITMAP
FE
44
7C
00
7C
44
FE
ENDCHAR
STARTCHAR U+4EB7
ENCODING 20151
SWIDTH 666 0
DWIDTH 8 0
BBX 7 7 0 -1
BITMAP
10
FE
28
7E
6A
7C
AA
ENDCHAR
STARTCHAR U+4EB8
ENCODING 20152
SWIDTH 666 0
DWIDTH 8 0
BBX 7 7 0 -1
BITMAP
4A
E0
AE
EA
44
EE
44
ENDCHAR
STARTCHAR U+4EB9
ENCODING 20153
SWIDTH 666 0
DWIDTH 8 0
BBX 7 7 0 -1
BITMAP
10
FE
AA
FE
BA
28
FE
ENDCHAR
STARTCHAR U+4EBA
ENCODING 20154
SWIDTH 666 0
DWIDTH 8 0
BBX 7 7 0 -1
BITMAP
10
10
10
10
28
44
82
ENDCHAR
STARTCHAR U+4EBB
ENCODING 20155
SWIDTH 666 0
DWIDTH 8 0
BBX 3 7 1 -1
BITMAP
20
40
C0
40
40
40
40
ENDCHAR
STARTCHAR U+4EBC
ENCODING 20156
SWIDTH 666 0
DWIDTH 8 0
BBX 7 7 0 -1
BITMAP
10
10
10
28
C6
00
FE
ENDCHAR
STARTCHAR U+4EBD
ENCODING 20157
SWIDTH 666 0
DWIDTH 8 0
BBX 7 7 0 -1
BITMAP
10
10
28
C6
00
30
08
ENDCHAR
STARTCHAR U+4EBE
ENCODING 20158
SWIDTH 666 0
DWIDTH 8 0
BBX 7 7 0 -1
BITMAP
88
88
88
94
A2
80
FE
ENDCHAR
STARTCHAR U+4EBF
ENCODING 20159
SWIDTH 666 0
DWIDTH 8 0
BBX 7 7 0 -1
BITMAP
2E
42
C4
48
50
50
4E
ENDCHAR
STARTCHAR U+4EC0
ENCODING 20160
SWIDTH 666 0
DWIDTH 8 0
BBX 7 7 0 -1
BITMAP
48
48
DE
48
48
48
48
ENDCHAR
STARTCHAR U+4EC1
ENCODING 20161
SWIDTH 666 0
DWIDTH 8 0
BBX 7 7 0 -1
BITMAP
40
5E
C0
40
40
40
5E
ENDCHAR
STARTCHAR U+4EC2
ENCODING 20162
SWIDTH 666 0
DWIDTH 8 0
BBX 7 7 0 -1
BITMAP
48
5E
CA
4A
4A
4A
56
ENDCHAR
STARTCHAR U+4EC3
ENCODING 20163
SWIDTH 666 0
DWIDTH 8 0
BBX 7 7 0 -1
BITMAP
2E
44
C4
44
44
44
4C
ENDCHAR
STARTCHAR U+4EC4
ENCODING 20164
SWIDTH 666 0
DWIDTH 8 0
BBX 7 7 0 -1
BITMAP
7E
40
48
48
48
94
22
ENDCHAR
STARTCHAR U+4EC5
ENCODING 20165
SWIDTH 666 0
DWIDTH 8 0
BBX 7 7 0 -1
BITMAP
2E
42
CA
44
44
4A
52
ENDCHAR
STARTCHAR U+4EC6
ENCODING 20166
SWIDTH 666 0
DWIDTH 8 0
BBX 7 7 0 -1
BITMAP
48
48
C8
4C
4A
48
48
ENDCHAR
STARTCHAR U+4EC7
ENCODING 20167
SWIDTH 666 0
DWIDTH 8 0
BBX 7 7 0 -1
BITMAP
50
BC
94
94
94
94
A6
ENDCHAR
STARTCHAR U+4EC8
ENCODING 20168
SWIDTH 666 0
DWIDTH 8 0
BBX 7 7 0 -1
BITMAP
54
54
D4
54
54
62
62
ENDCHAR
STARTCHAR U+4EC9
ENCODING 20169
SWIDTH 666 0
DWIDTH 8 0
BBX 7 7 0 -1
BITMAP
5C
54
D4
54
54
54
66
ENDCHAR
STARTCHAR U+4ECA
ENCODING 20170
SWIDTH 666 0
DWIDTH 8 0
BBX 7 7 0 -1
BITMAP
10
28
D6
00
7C
08
10
ENDCHAR
STARTCHAR U+4ECB
ENCODING 20171
SWIDTH 666 0
DWIDTH 8 0
BBX 7 7 0 -1
BITMAP
10
28
C6
44
44
44
84
ENDCHAR
STARTCHAR U+4ECC
ENCODING 20172
SWIDTH 666 0
DWIDTH 8 0
BBX 7 7 0 -1
BITMAP
10
10
28
C6
10
28
C6
ENDCHAR
STARTCHAR U+4ECD
ENCODING 20173
SWIDTH 666 0
DWIDTH 8 0
BBX 7 7 0 -1
BITMAP
7C
54
D4
56
52
52
66
ENDCHAR
STARTCHAR U+4ECE
ENCODING 20174
SWIDTH 666 0
DWIDTH 8 0
BBX 7 7 0 -1
BITMAP
44
44
44
44
44
AA
92
ENDCHAR
STARTCHAR U+4ECF
ENCODING 20175
SWIDTH 666 0
DWIDTH 8 0
BBX 7 7 0 -1
BITMAP
48
48
C8
48
52
52
5E
ENDCHAR
STARTCHAR U+4ED0
ENCODING 20176
SWIDTH 666 0
DWIDTH 8 0
BBX 7 7 0 -1
BITMAP
10
28
D6
10
FE
10
10
ENDCHAR
STARTCHAR U+4ED1
ENCODING 20177
SWIDTH 666 0
DWIDTH 8 0
BBX 7 7 0 -1
BITMAP
10
28
C6
48
70
44
7C
ENDCHAR
ENDFONT
